<svg width="280" height="232" viewBox="0 0 280 232" fill="none" xmlns="http://www.w3.org/2000/svg">
<rect width="280" height="64" rx="20" fill="#EEE1CC"/>
<path d="M110.74 39.24C109.713 39.24 108.806 39.0667 108.02 38.72C107.233 38.36 106.613 37.8533 106.16 37.2C105.706 36.5333 105.473 35.7267 105.46 34.78H108.16C108.186 35.4333 108.42 35.9867 108.86 36.44C109.313 36.88 109.933 37.1 110.72 37.1C111.4 37.1 111.94 36.94 112.34 36.62C112.74 36.2867 112.94 35.8467 112.94 35.3C112.94 34.7267 112.76 34.28 112.4 33.96C112.053 33.64 111.586 33.38 111 33.18C110.413 32.98 109.786 32.7667 109.12 32.54C108.04 32.1667 107.213 31.6867 106.64 31.1C106.08 30.5133 105.8 29.7333 105.8 28.76C105.786 27.9333 105.98 27.2267 106.38 26.64C106.793 26.04 107.353 25.58 108.06 25.26C108.766 24.9267 109.58 24.76 110.5 24.76C111.433 24.76 112.253 24.9267 112.96 25.26C113.68 25.5933 114.24 26.06 114.64 26.66C115.053 27.26 115.273 27.9733 115.3 28.8H112.56C112.546 28.3067 112.353 27.8733 111.98 27.5C111.62 27.1133 111.113 26.92 110.46 26.92C109.9 26.9067 109.426 27.0467 109.04 27.34C108.666 27.62 108.48 28.0333 108.48 28.58C108.48 29.0467 108.626 29.42 108.92 29.7C109.213 29.9667 109.613 30.1933 110.12 30.38C110.626 30.5667 111.206 30.7667 111.86 30.98C112.553 31.22 113.186 31.5 113.76 31.82C114.333 32.14 114.793 32.5667 115.14 33.1C115.486 33.62 115.66 34.2933 115.66 35.12C115.66 35.8533 115.473 36.5333 115.1 37.16C114.726 37.7867 114.173 38.2933 113.44 38.68C112.706 39.0533 111.806 39.24 110.74 39.24ZM119.213 27.54C118.746 27.54 118.36 27.4 118.053 27.12C117.76 26.84 117.613 26.4867 117.613 26.06C117.613 25.6333 117.76 25.2867 118.053 25.02C118.36 24.74 118.746 24.6 119.213 24.6C119.68 24.6 120.06 24.74 120.353 25.02C120.66 25.2867 120.813 25.6333 120.813 26.06C120.813 26.4867 120.66 26.84 120.353 27.12C120.06 27.4 119.68 27.54 119.213 27.54ZM117.933 39V29.08H120.493V39H117.933ZM127.365 36.04C126.885 36.04 126.439 35.9867 126.025 35.88L125.285 36.62C125.512 36.74 125.819 36.84 126.205 36.92C126.592 37 127.219 37.08 128.085 37.16C129.405 37.28 130.365 37.5933 130.965 38.1C131.565 38.6067 131.865 39.3067 131.865 40.2C131.865 40.7867 131.705 41.34 131.385 41.86C131.065 42.3933 130.572 42.82 129.905 43.14C129.239 43.4733 128.385 43.64 127.345 43.64C125.932 43.64 124.792 43.3733 123.925 42.84C123.059 42.32 122.625 41.5333 122.625 40.48C122.625 39.5867 123.059 38.8133 123.925 38.16C123.659 38.04 123.425 37.9133 123.225 37.78C123.039 37.6467 122.872 37.5067 122.725 37.36V36.9L124.465 35.06C123.692 34.38 123.305 33.5067 123.305 32.44C123.305 31.7733 123.465 31.1667 123.785 30.62C124.119 30.0733 124.585 29.64 125.185 29.32C125.785 29 126.512 28.84 127.365 28.84C127.925 28.84 128.445 28.92 128.925 29.08H132.685V30.64L130.985 30.76C131.252 31.2667 131.385 31.8267 131.385 32.44C131.385 33.1067 131.225 33.7133 130.905 34.26C130.585 34.8067 130.119 35.24 129.505 35.56C128.905 35.88 128.192 36.04 127.365 36.04ZM127.365 34.08C127.885 34.08 128.312 33.94 128.645 33.66C128.992 33.38 129.165 32.98 129.165 32.46C129.165 31.94 128.992 31.54 128.645 31.26C128.312 30.98 127.885 30.84 127.365 30.84C126.819 30.84 126.379 30.98 126.045 31.26C125.712 31.54 125.545 31.94 125.545 32.46C125.545 32.98 125.712 33.38 126.045 33.66C126.379 33.94 126.819 34.08 127.365 34.08ZM124.965 40.22C124.965 40.7133 125.192 41.08 125.645 41.32C126.112 41.5733 126.679 41.7 127.345 41.7C127.985 41.7 128.505 41.5667 128.905 41.3C129.305 41.0467 129.505 40.7 129.505 40.26C129.505 39.9 129.372 39.6 129.105 39.36C128.852 39.12 128.339 38.9733 127.565 38.92C127.019 38.88 126.512 38.82 126.045 38.74C125.659 38.9533 125.379 39.1867 125.205 39.44C125.045 39.6933 124.965 39.9533 124.965 40.22ZM134.552 39V29.08H136.812L137.012 30.76C137.319 30.1733 137.759 29.7067 138.332 29.36C138.919 29.0133 139.605 28.84 140.392 28.84C141.619 28.84 142.572 29.2267 143.252 30C143.932 30.7733 144.272 31.9067 144.272 33.4V39H141.712V33.64C141.712 32.7867 141.539 32.1333 141.192 31.68C140.845 31.2267 140.305 31 139.572 31C138.852 31 138.259 31.2533 137.792 31.76C137.339 32.2667 137.112 32.9733 137.112 33.88V39H134.552ZM155.205 39.24C153.965 39.24 153.005 38.8533 152.325 38.08C151.659 37.3067 151.325 36.1733 151.325 34.68V29.08H153.865V34.44C153.865 35.2933 154.039 35.9467 154.385 36.4C154.732 36.8533 155.279 37.08 156.025 37.08C156.732 37.08 157.312 36.8267 157.765 36.32C158.232 35.8133 158.465 35.1067 158.465 34.2V29.08H161.025V39H158.765L158.565 37.32C158.259 37.9067 157.812 38.3733 157.225 38.72C156.652 39.0667 155.979 39.24 155.205 39.24ZM163.653 43.4V29.08H165.933L166.213 30.5C166.533 30.06 166.953 29.6733 167.473 29.34C168.007 29.0067 168.693 28.84 169.533 28.84C170.467 28.84 171.3 29.0667 172.033 29.52C172.767 29.9733 173.347 30.5933 173.773 31.38C174.2 32.1667 174.413 33.06 174.413 34.06C174.413 35.06 174.2 35.9533 173.773 36.74C173.347 37.5133 172.767 38.1267 172.033 38.58C171.3 39.02 170.467 39.24 169.533 39.24C168.787 39.24 168.133 39.1 167.573 38.82C167.013 38.54 166.56 38.1467 166.213 37.64V43.4H163.653ZM168.993 37C169.807 37 170.48 36.7267 171.013 36.18C171.547 35.6333 171.813 34.9267 171.813 34.06C171.813 33.1933 171.547 32.48 171.013 31.92C170.48 31.36 169.807 31.08 168.993 31.08C168.167 31.08 167.487 31.36 166.953 31.92C166.433 32.4667 166.173 33.1733 166.173 34.04C166.173 34.9067 166.433 35.62 166.953 36.18C167.487 36.7267 168.167 37 168.993 37Z" fill="black"/>
<rect y="84" width="280" height="64" rx="20" fill="#705F44"/>
<path d="M110.74 123.24C109.713 123.24 108.806 123.067 108.02 122.72C107.233 122.36 106.613 121.853 106.16 121.2C105.706 120.533 105.473 119.727 105.46 118.78H108.16C108.186 119.433 108.42 119.987 108.86 120.44C109.313 120.88 109.933 121.1 110.72 121.1C111.4 121.1 111.94 120.94 112.34 120.62C112.74 120.287 112.94 119.847 112.94 119.3C112.94 118.727 112.76 118.28 112.4 117.96C112.053 117.64 111.586 117.38 111 117.18C110.413 116.98 109.786 116.767 109.12 116.54C108.04 116.167 107.213 115.687 106.64 115.1C106.08 114.513 105.8 113.733 105.8 112.76C105.786 111.933 105.98 111.227 106.38 110.64C106.793 110.04 107.353 109.58 108.06 109.26C108.766 108.927 109.58 108.76 110.5 108.76C111.433 108.76 112.253 108.927 112.96 109.26C113.68 109.593 114.24 110.06 114.64 110.66C115.053 111.26 115.273 111.973 115.3 112.8H112.56C112.546 112.307 112.353 111.873 111.98 111.5C111.62 111.113 111.113 110.92 110.46 110.92C109.9 110.907 109.426 111.047 109.04 111.34C108.666 111.62 108.48 112.033 108.48 112.58C108.48 113.047 108.626 113.42 108.92 113.7C109.213 113.967 109.613 114.193 110.12 114.38C110.626 114.567 111.206 114.767 111.86 114.98C112.553 115.22 113.186 115.5 113.76 115.82C114.333 116.14 114.793 116.567 115.14 117.1C115.486 117.62 115.66 118.293 115.66 119.12C115.66 119.853 115.473 120.533 115.1 121.16C114.726 121.787 114.173 122.293 113.44 122.68C112.706 123.053 111.806 123.24 110.74 123.24ZM119.213 111.54C118.746 111.54 118.36 111.4 118.053 111.12C117.76 110.84 117.613 110.487 117.613 110.06C117.613 109.633 117.76 109.287 118.053 109.02C118.36 108.74 118.746 108.6 119.213 108.6C119.68 108.6 120.06 108.74 120.353 109.02C120.66 109.287 120.813 109.633 120.813 110.06C120.813 110.487 120.66 110.84 120.353 111.12C120.06 111.4 119.68 111.54 119.213 111.54ZM117.933 123V113.08H120.493V123H117.933ZM127.365 120.04C126.885 120.04 126.439 119.987 126.025 119.88L125.285 120.62C125.512 120.74 125.819 120.84 126.205 120.92C126.592 121 127.219 121.08 128.085 121.16C129.405 121.28 130.365 121.593 130.965 122.1C131.565 122.607 131.865 123.307 131.865 124.2C131.865 124.787 131.705 125.34 131.385 125.86C131.065 126.393 130.572 126.82 129.905 127.14C129.239 127.473 128.385 127.64 127.345 127.64C125.932 127.64 124.792 127.373 123.925 126.84C123.059 126.32 122.625 125.533 122.625 124.48C122.625 123.587 123.059 122.813 123.925 122.16C123.659 122.04 123.425 121.913 123.225 121.78C123.039 121.647 122.872 121.507 122.725 121.36V120.9L124.465 119.06C123.692 118.38 123.305 117.507 123.305 116.44C123.305 115.773 123.465 115.167 123.785 114.62C124.119 114.073 124.585 113.64 125.185 113.32C125.785 113 126.512 112.84 127.365 112.84C127.925 112.84 128.445 112.92 128.925 113.08H132.685V114.64L130.985 114.76C131.252 115.267 131.385 115.827 131.385 116.44C131.385 117.107 131.225 117.713 130.905 118.26C130.585 118.807 130.119 119.24 129.505 119.56C128.905 119.88 128.192 120.04 127.365 120.04ZM127.365 118.08C127.885 118.08 128.312 117.94 128.645 117.66C128.992 117.38 129.165 116.98 129.165 116.46C129.165 115.94 128.992 115.54 128.645 115.26C128.312 114.98 127.885 114.84 127.365 114.84C126.819 114.84 126.379 114.98 126.045 115.26C125.712 115.54 125.545 115.94 125.545 116.46C125.545 116.98 125.712 117.38 126.045 117.66C126.379 117.94 126.819 118.08 127.365 118.08ZM124.965 124.22C124.965 124.713 125.192 125.08 125.645 125.32C126.112 125.573 126.679 125.7 127.345 125.7C127.985 125.7 128.505 125.567 128.905 125.3C129.305 125.047 129.505 124.7 129.505 124.26C129.505 123.9 129.372 123.6 129.105 123.36C128.852 123.12 128.339 122.973 127.565 122.92C127.019 122.88 126.512 122.82 126.045 122.74C125.659 122.953 125.379 123.187 125.205 123.44C125.045 123.693 124.965 123.953 124.965 124.22ZM134.552 123V113.08H136.812L137.012 114.76C137.319 114.173 137.759 113.707 138.332 113.36C138.919 113.013 139.605 112.84 140.392 112.84C141.619 112.84 142.572 113.227 143.252 114C143.932 114.773 144.272 115.907 144.272 117.4V123H141.712V117.64C141.712 116.787 141.539 116.133 141.192 115.68C140.845 115.227 140.305 115 139.572 115C138.852 115 138.259 115.253 137.792 115.76C137.339 116.267 137.112 116.973 137.112 117.88V123H134.552ZM155.205 123.24C153.965 123.24 153.005 122.853 152.325 122.08C151.659 121.307 151.325 120.173 151.325 118.68V113.08H153.865V118.44C153.865 119.293 154.039 119.947 154.385 120.4C154.732 120.853 155.279 121.08 156.025 121.08C156.732 121.08 157.312 120.827 157.765 120.32C158.232 119.813 158.465 119.107 158.465 118.2V113.08H161.025V123H158.765L158.565 121.32C158.259 121.907 157.812 122.373 157.225 122.72C156.652 123.067 155.979 123.24 155.205 123.24ZM163.653 127.4V113.08H165.933L166.213 114.5C166.533 114.06 166.953 113.673 167.473 113.34C168.007 113.007 168.693 112.84 169.533 112.84C170.467 112.84 171.3 113.067 172.033 113.52C172.767 113.973 173.347 114.593 173.773 115.38C174.2 116.167 174.413 117.06 174.413 118.06C174.413 119.06 174.2 119.953 173.773 120.74C173.347 121.513 172.767 122.127 172.033 122.58C171.3 123.02 170.467 123.24 169.533 123.24C168.787 123.24 168.133 123.1 167.573 122.82C167.013 122.54 166.56 122.147 166.213 121.64V127.4H163.653ZM168.993 121C169.807 121 170.48 120.727 171.013 120.18C171.547 119.633 171.813 118.927 171.813 118.06C171.813 117.193 171.547 116.48 171.013 115.92C170.48 115.36 169.807 115.08 168.993 115.08C168.167 115.08 167.487 115.36 166.953 115.92C166.433 116.467 166.173 117.173 166.173 118.04C166.173 118.907 166.433 119.62 166.953 120.18C167.487 120.727 168.167 121 168.993 121Z" fill="white"/>
<rect y="168" width="280" height="64" rx="20" fill="#544732"/>
<path d="M110.74 207.24C109.713 207.24 108.806 207.067 108.02 206.72C107.233 206.36 106.613 205.853 106.16 205.2C105.706 204.533 105.473 203.727 105.46 202.78H108.16C108.186 203.433 108.42 203.987 108.86 204.44C109.313 204.88 109.933 205.1 110.72 205.1C111.4 205.1 111.94 204.94 112.34 204.62C112.74 204.287 112.94 203.847 112.94 203.3C112.94 202.727 112.76 202.28 112.4 201.96C112.053 201.64 111.586 201.38 111 201.18C110.413 200.98 109.786 200.767 109.12 200.54C108.04 200.167 107.213 199.687 106.64 199.1C106.08 198.513 105.8 197.733 105.8 196.76C105.786 195.933 105.98 195.227 106.38 194.64C106.793 194.04 107.353 193.58 108.06 193.26C108.766 192.927 109.58 192.76 110.5 192.76C111.433 192.76 112.253 192.927 112.96 193.26C113.68 193.593 114.24 194.06 114.64 194.66C115.053 195.26 115.273 195.973 115.3 196.8H112.56C112.546 196.307 112.353 195.873 111.98 195.5C111.62 195.113 111.113 194.92 110.46 194.92C109.9 194.907 109.426 195.047 109.04 195.34C108.666 195.62 108.48 196.033 108.48 196.58C108.48 197.047 108.626 197.42 108.92 197.7C109.213 197.967 109.613 198.193 110.12 198.38C110.626 198.567 111.206 198.767 111.86 198.98C112.553 199.22 113.186 199.5 113.76 199.82C114.333 200.14 114.793 200.567 115.14 201.1C115.486 201.62 115.66 202.293 115.66 203.12C115.66 203.853 115.473 204.533 115.1 205.16C114.726 205.787 114.173 206.293 113.44 206.68C112.706 207.053 111.806 207.24 110.74 207.24ZM119.213 195.54C118.746 195.54 118.36 195.4 118.053 195.12C117.76 194.84 117.613 194.487 117.613 194.06C117.613 193.633 117.76 193.287 118.053 193.02C118.36 192.74 118.746 192.6 119.213 192.6C119.68 192.6 120.06 192.74 120.353 193.02C120.66 193.287 120.813 193.633 120.813 194.06C120.813 194.487 120.66 194.84 120.353 195.12C120.06 195.4 119.68 195.54 119.213 195.54ZM117.933 207V197.08H120.493V207H117.933ZM127.365 204.04C126.885 204.04 126.439 203.987 126.025 203.88L125.285 204.62C125.512 204.74 125.819 204.84 126.205 204.92C126.592 205 127.219 205.08 128.085 205.16C129.405 205.28 130.365 205.593 130.965 206.1C131.565 206.607 131.865 207.307 131.865 208.2C131.865 208.787 131.705 209.34 131.385 209.86C131.065 210.393 130.572 210.82 129.905 211.14C129.239 211.473 128.385 211.64 127.345 211.64C125.932 211.64 124.792 211.373 123.925 210.84C123.059 210.32 122.625 209.533 122.625 208.48C122.625 207.587 123.059 206.813 123.925 206.16C123.659 206.04 123.425 205.913 123.225 205.78C123.039 205.647 122.872 205.507 122.725 205.36V204.9L124.465 203.06C123.692 202.38 123.305 201.507 123.305 200.44C123.305 199.773 123.465 199.167 123.785 198.62C124.119 198.073 124.585 197.64 125.185 197.32C125.785 197 126.512 196.84 127.365 196.84C127.925 196.84 128.445 196.92 128.925 197.08H132.685V198.64L130.985 198.76C131.252 199.267 131.385 199.827 131.385 200.44C131.385 201.107 131.225 201.713 130.905 202.26C130.585 202.807 130.119 203.24 129.505 203.56C128.905 203.88 128.192 204.04 127.365 204.04ZM127.365 202.08C127.885 202.08 128.312 201.94 128.645 201.66C128.992 201.38 129.165 200.98 129.165 200.46C129.165 199.94 128.992 199.54 128.645 199.26C128.312 198.98 127.885 198.84 127.365 198.84C126.819 198.84 126.379 198.98 126.045 199.26C125.712 199.54 125.545 199.94 125.545 200.46C125.545 200.98 125.712 201.38 126.045 201.66C126.379 201.94 126.819 202.08 127.365 202.08ZM124.965 208.22C124.965 208.713 125.192 209.08 125.645 209.32C126.112 209.573 126.679 209.7 127.345 209.7C127.985 209.7 128.505 209.567 128.905 209.3C129.305 209.047 129.505 208.7 129.505 208.26C129.505 207.9 129.372 207.6 129.105 207.36C128.852 207.12 128.339 206.973 127.565 206.92C127.019 206.88 126.512 206.82 126.045 206.74C125.659 206.953 125.379 207.187 125.205 207.44C125.045 207.693 124.965 207.953 124.965 208.22ZM134.552 207V197.08H136.812L137.012 198.76C137.319 198.173 137.759 197.707 138.332 197.36C138.919 197.013 139.605 196.84 140.392 196.84C141.619 196.84 142.572 197.227 143.252 198C143.932 198.773 144.272 199.907 144.272 201.4V207H141.712V201.64C141.712 200.787 141.539 200.133 141.192 199.68C140.845 199.227 140.305 199 139.572 199C138.852 199 138.259 199.253 137.792 199.76C137.339 200.267 137.112 200.973 137.112 201.88V207H134.552ZM155.205 207.24C153.965 207.24 153.005 206.853 152.325 206.08C151.659 205.307 151.325 204.173 151.325 202.68V197.08H153.865V202.44C153.865 203.293 154.039 203.947 154.385 204.4C154.732 204.853 155.279 205.08 156.025 205.08C156.732 205.08 157.312 204.827 157.765 204.32C158.232 203.813 158.465 203.107 158.465 202.2V197.08H161.025V207H158.765L158.565 205.32C158.259 205.907 157.812 206.373 157.225 206.72C156.652 207.067 155.979 207.24 155.205 207.24ZM163.653 211.4V197.08H165.933L166.213 198.5C166.533 198.06 166.953 197.673 167.473 197.34C168.007 197.007 168.693 196.84 169.533 196.84C170.467 196.84 171.3 197.067 172.033 197.52C172.767 197.973 173.347 198.593 173.773 199.38C174.2 200.167 174.413 201.06 174.413 202.06C174.413 203.06 174.2 203.953 173.773 204.74C173.347 205.513 172.767 206.127 172.033 206.58C171.3 207.02 170.467 207.24 169.533 207.24C168.787 207.24 168.133 207.1 167.573 206.82C167.013 206.54 166.56 206.147 166.213 205.64V211.4H163.653ZM168.993 205C169.807 205 170.48 204.727 171.013 204.18C171.547 203.633 171.813 202.927 171.813 202.06C171.813 201.193 171.547 200.48 171.013 199.92C170.48 199.36 169.807 199.08 168.993 199.08C168.167 199.08 167.487 199.36 166.953 199.92C166.433 200.467 166.173 201.173 166.173 202.04C166.173 202.907 166.433 203.62 166.953 204.18C167.487 204.727 168.167 205 168.993 205Z" fill="white"/>
</svg>
