<svg width="72" height="256" viewBox="0 0 72 256" fill="none" xmlns="http://www.w3.org/2000/svg">
<circle cx="36" cy="36" r="36" fill="#EEE1CC"/>
<path fill-rule="evenodd" clip-rule="evenodd" d="M50.25 35.5C50.25 35.0441 50.0689 34.607 49.7466 34.2846C49.4243 33.9623 48.9871 33.7812 48.5312 33.7812H28.6178L35.9981 26.4044C36.3209 26.0816 36.5022 25.6439 36.5022 25.1875C36.5022 24.7311 36.3209 24.2933 35.9981 23.9706C35.6754 23.6479 35.2377 23.4666 34.7812 23.4666C34.3248 23.4666 33.8871 23.6479 33.5644 23.9706L23.2519 34.2831C23.0918 34.4428 22.9648 34.6324 22.8782 34.8412C22.7915 35.05 22.7469 35.2739 22.7469 35.5C22.7469 35.7261 22.7915 35.9499 22.8782 36.1587C22.9648 36.3675 23.0918 36.5572 23.2519 36.7169L33.5644 47.0294C33.8871 47.3521 34.3248 47.5334 34.7812 47.5334C35.2377 47.5334 35.6754 47.3521 35.9981 47.0294C36.3209 46.7066 36.5022 46.2689 36.5022 45.8125C36.5022 45.3561 36.3209 44.9183 35.9981 44.5956L28.6178 37.2187H48.5312C48.9871 37.2187 49.4243 37.0376 49.7466 36.7153C50.0689 36.393 50.25 35.9558 50.25 35.5Z" fill="black"/>
<circle cx="36" cy="128" r="36" fill="#705F44"/>
<path fill-rule="evenodd" clip-rule="evenodd" d="M50.25 127.5C50.25 127.044 50.0689 126.607 49.7466 126.285C49.4243 125.962 48.9871 125.781 48.5312 125.781H28.6178L35.9981 118.404C36.3209 118.082 36.5022 117.644 36.5022 117.187C36.5022 116.731 36.3209 116.293 35.9981 115.971C35.6754 115.648 35.2377 115.467 34.7812 115.467C34.3248 115.467 33.8871 115.648 33.5644 115.971L23.2519 126.283C23.0918 126.443 22.9648 126.632 22.8782 126.841C22.7915 127.05 22.7469 127.274 22.7469 127.5C22.7469 127.726 22.7915 127.95 22.8782 128.159C22.9648 128.368 23.0918 128.557 23.2519 128.717L33.5644 139.029C33.8871 139.352 34.3248 139.533 34.7812 139.533C35.2377 139.533 35.6754 139.352 35.9981 139.029C36.3209 138.707 36.5022 138.269 36.5022 137.812C36.5022 137.356 36.3209 136.918 35.9981 136.596L28.6178 129.219H48.5312C48.9871 129.219 49.4243 129.038 49.7466 128.715C50.0689 128.393 50.25 127.956 50.25 127.5Z" fill="white"/>
<circle cx="36" cy="220" r="36" fill="#544732"/>
<path fill-rule="evenodd" clip-rule="evenodd" d="M50.25 219.5C50.25 219.044 50.0689 218.607 49.7466 218.285C49.4243 217.962 48.9871 217.781 48.5312 217.781H28.6178L35.9981 210.404C36.3209 210.082 36.5022 209.644 36.5022 209.187C36.5022 208.731 36.3209 208.293 35.9981 207.971C35.6754 207.648 35.2377 207.467 34.7812 207.467C34.3248 207.467 33.8871 207.648 33.5644 207.971L23.2519 218.283C23.0918 218.443 22.9648 218.632 22.8782 218.841C22.7915 219.05 22.7469 219.274 22.7469 219.5C22.7469 219.726 22.7915 219.95 22.8782 220.159C22.9648 220.368 23.0918 220.557 23.2519 220.717L33.5644 231.029C33.8871 231.352 34.3248 231.533 34.7812 231.533C35.2377 231.533 35.6754 231.352 35.9981 231.029C36.3209 230.707 36.5022 230.269 36.5022 229.812C36.5022 229.356 36.3209 228.918 35.9981 228.596L28.6178 221.219H48.5312C48.9871 221.219 49.4243 221.038 49.7466 220.715C50.0689 220.393 50.25 219.956 50.25 219.5Z" fill="white"/>
</svg>
