<svg width="280" height="232" viewBox="0 0 280 232" fill="none" xmlns="http://www.w3.org/2000/svg">
<rect width="280" height="64" rx="20" fill="#9DB580"/>
<path d="M114.138 39V25H116.698V37H122.898V39H114.138ZM129.404 39.24C128.444 39.24 127.578 39.02 126.804 38.58C126.044 38.14 125.438 37.5333 124.984 36.76C124.544 35.9733 124.324 35.0667 124.324 34.04C124.324 33.0133 124.551 32.1133 125.004 31.34C125.458 30.5533 126.064 29.94 126.824 29.5C127.598 29.06 128.464 28.84 129.424 28.84C130.371 28.84 131.224 29.06 131.984 29.5C132.758 29.94 133.364 30.5533 133.804 31.34C134.258 32.1133 134.484 33.0133 134.484 34.04C134.484 35.0667 134.258 35.9733 133.804 36.76C133.364 37.5333 132.758 38.14 131.984 38.58C131.211 39.02 130.351 39.24 129.404 39.24ZM129.404 37.02C130.071 37.02 130.651 36.7733 131.144 36.28C131.638 35.7733 131.884 35.0267 131.884 34.04C131.884 33.0533 131.638 32.3133 131.144 31.82C130.651 31.3133 130.078 31.06 129.424 31.06C128.744 31.06 128.158 31.3133 127.664 31.82C127.184 32.3133 126.944 33.0533 126.944 34.04C126.944 35.0267 127.184 35.7733 127.664 36.28C128.158 36.7733 128.738 37.02 129.404 37.02ZM140.348 36.04C139.868 36.04 139.422 35.9867 139.008 35.88L138.268 36.62C138.495 36.74 138.802 36.84 139.188 36.92C139.575 37 140.202 37.08 141.068 37.16C142.388 37.28 143.348 37.5933 143.948 38.1C144.548 38.6067 144.848 39.3067 144.848 40.2C144.848 40.7867 144.688 41.34 144.368 41.86C144.048 42.3933 143.555 42.82 142.888 43.14C142.222 43.4733 141.368 43.64 140.328 43.64C138.915 43.64 137.775 43.3733 136.908 42.84C136.042 42.32 135.608 41.5333 135.608 40.48C135.608 39.5867 136.042 38.8133 136.908 38.16C136.642 38.04 136.408 37.9133 136.208 37.78C136.022 37.6467 135.855 37.5067 135.708 37.36V36.9L137.448 35.06C136.675 34.38 136.288 33.5067 136.288 32.44C136.288 31.7733 136.448 31.1667 136.768 30.62C137.102 30.0733 137.568 29.64 138.168 29.32C138.768 29 139.495 28.84 140.348 28.84C140.908 28.84 141.428 28.92 141.908 29.08H145.668V30.64L143.968 30.76C144.235 31.2667 144.368 31.8267 144.368 32.44C144.368 33.1067 144.208 33.7133 143.888 34.26C143.568 34.8067 143.102 35.24 142.488 35.56C141.888 35.88 141.175 36.04 140.348 36.04ZM140.348 34.08C140.868 34.08 141.295 33.94 141.628 33.66C141.975 33.38 142.148 32.98 142.148 32.46C142.148 31.94 141.975 31.54 141.628 31.26C141.295 30.98 140.868 30.84 140.348 30.84C139.802 30.84 139.362 30.98 139.028 31.26C138.695 31.54 138.528 31.94 138.528 32.46C138.528 32.98 138.695 33.38 139.028 33.66C139.362 33.94 139.802 34.08 140.348 34.08ZM137.948 40.22C137.948 40.7133 138.175 41.08 138.628 41.32C139.095 41.5733 139.662 41.7 140.328 41.7C140.968 41.7 141.488 41.5667 141.888 41.3C142.288 41.0467 142.488 40.7 142.488 40.26C142.488 39.9 142.355 39.6 142.088 39.36C141.835 39.12 141.322 38.9733 140.548 38.92C140.002 38.88 139.495 38.82 139.028 38.74C138.642 38.9533 138.362 39.1867 138.188 39.44C138.028 39.6933 137.948 39.9533 137.948 40.22ZM153.681 27.54C153.214 27.54 152.827 27.4 152.521 27.12C152.227 26.84 152.081 26.4867 152.081 26.06C152.081 25.6333 152.227 25.2867 152.521 25.02C152.827 24.74 153.214 24.6 153.681 24.6C154.147 24.6 154.527 24.74 154.821 25.02C155.127 25.2867 155.281 25.6333 155.281 26.06C155.281 26.4867 155.127 26.84 154.821 27.12C154.527 27.4 154.147 27.54 153.681 27.54ZM152.401 39V29.08H154.961V39H152.401ZM157.633 39V29.08H159.893L160.093 30.76C160.399 30.1733 160.839 29.7067 161.413 29.36C161.999 29.0133 162.686 28.84 163.473 28.84C164.699 28.84 165.653 29.2267 166.333 30C167.013 30.7733 167.353 31.9067 167.353 33.4V39H164.793V33.64C164.793 32.7867 164.619 32.1333 164.273 31.68C163.926 31.2267 163.386 31 162.653 31C161.933 31 161.339 31.2533 160.873 31.76C160.419 32.2667 160.193 32.9733 160.193 33.88V39H157.633Z" fill="black"/>
<rect y="84" width="280" height="64" rx="20" fill="#627952"/>
<path d="M114.138 123V109H116.698V121H122.898V123H114.138ZM129.404 123.24C128.444 123.24 127.578 123.02 126.804 122.58C126.044 122.14 125.438 121.533 124.984 120.76C124.544 119.973 124.324 119.067 124.324 118.04C124.324 117.013 124.551 116.113 125.004 115.34C125.458 114.553 126.064 113.94 126.824 113.5C127.598 113.06 128.464 112.84 129.424 112.84C130.371 112.84 131.224 113.06 131.984 113.5C132.758 113.94 133.364 114.553 133.804 115.34C134.258 116.113 134.484 117.013 134.484 118.04C134.484 119.067 134.258 119.973 133.804 120.76C133.364 121.533 132.758 122.14 131.984 122.58C131.211 123.02 130.351 123.24 129.404 123.24ZM129.404 121.02C130.071 121.02 130.651 120.773 131.144 120.28C131.638 119.773 131.884 119.027 131.884 118.04C131.884 117.053 131.638 116.313 131.144 115.82C130.651 115.313 130.078 115.06 129.424 115.06C128.744 115.06 128.158 115.313 127.664 115.82C127.184 116.313 126.944 117.053 126.944 118.04C126.944 119.027 127.184 119.773 127.664 120.28C128.158 120.773 128.738 121.02 129.404 121.02ZM140.348 120.04C139.868 120.04 139.422 119.987 139.008 119.88L138.268 120.62C138.495 120.74 138.802 120.84 139.188 120.92C139.575 121 140.202 121.08 141.068 121.16C142.388 121.28 143.348 121.593 143.948 122.1C144.548 122.607 144.848 123.307 144.848 124.2C144.848 124.787 144.688 125.34 144.368 125.86C144.048 126.393 143.555 126.82 142.888 127.14C142.222 127.473 141.368 127.64 140.328 127.64C138.915 127.64 137.775 127.373 136.908 126.84C136.042 126.32 135.608 125.533 135.608 124.48C135.608 123.587 136.042 122.813 136.908 122.16C136.642 122.04 136.408 121.913 136.208 121.78C136.022 121.647 135.855 121.507 135.708 121.36V120.9L137.448 119.06C136.675 118.38 136.288 117.507 136.288 116.44C136.288 115.773 136.448 115.167 136.768 114.62C137.102 114.073 137.568 113.64 138.168 113.32C138.768 113 139.495 112.84 140.348 112.84C140.908 112.84 141.428 112.92 141.908 113.08H145.668V114.64L143.968 114.76C144.235 115.267 144.368 115.827 144.368 116.44C144.368 117.107 144.208 117.713 143.888 118.26C143.568 118.807 143.102 119.24 142.488 119.56C141.888 119.88 141.175 120.04 140.348 120.04ZM140.348 118.08C140.868 118.08 141.295 117.94 141.628 117.66C141.975 117.38 142.148 116.98 142.148 116.46C142.148 115.94 141.975 115.54 141.628 115.26C141.295 114.98 140.868 114.84 140.348 114.84C139.802 114.84 139.362 114.98 139.028 115.26C138.695 115.54 138.528 115.94 138.528 116.46C138.528 116.98 138.695 117.38 139.028 117.66C139.362 117.94 139.802 118.08 140.348 118.08ZM137.948 124.22C137.948 124.713 138.175 125.08 138.628 125.32C139.095 125.573 139.662 125.7 140.328 125.7C140.968 125.7 141.488 125.567 141.888 125.3C142.288 125.047 142.488 124.7 142.488 124.26C142.488 123.9 142.355 123.6 142.088 123.36C141.835 123.12 141.322 122.973 140.548 122.92C140.002 122.88 139.495 122.82 139.028 122.74C138.642 122.953 138.362 123.187 138.188 123.44C138.028 123.693 137.948 123.953 137.948 124.22ZM153.681 111.54C153.214 111.54 152.827 111.4 152.521 111.12C152.227 110.84 152.081 110.487 152.081 110.06C152.081 109.633 152.227 109.287 152.521 109.02C152.827 108.74 153.214 108.6 153.681 108.6C154.147 108.6 154.527 108.74 154.821 109.02C155.127 109.287 155.281 109.633 155.281 110.06C155.281 110.487 155.127 110.84 154.821 111.12C154.527 111.4 154.147 111.54 153.681 111.54ZM152.401 123V113.08H154.961V123H152.401ZM157.633 123V113.08H159.893L160.093 114.76C160.399 114.173 160.839 113.707 161.413 113.36C161.999 113.013 162.686 112.84 163.473 112.84C164.699 112.84 165.653 113.227 166.333 114C167.013 114.773 167.353 115.907 167.353 117.4V123H164.793V117.64C164.793 116.787 164.619 116.133 164.273 115.68C163.926 115.227 163.386 115 162.653 115C161.933 115 161.339 115.253 160.873 115.76C160.419 116.267 160.193 116.973 160.193 117.88V123H157.633Z" fill="white"/>
<rect y="168" width="280" height="64" rx="20" fill="#465939"/>
<path d="M114.138 207V193H116.698V205H122.898V207H114.138ZM129.404 207.24C128.444 207.24 127.578 207.02 126.804 206.58C126.044 206.14 125.438 205.533 124.984 204.76C124.544 203.973 124.324 203.067 124.324 202.04C124.324 201.013 124.551 200.113 125.004 199.34C125.458 198.553 126.064 197.94 126.824 197.5C127.598 197.06 128.464 196.84 129.424 196.84C130.371 196.84 131.224 197.06 131.984 197.5C132.758 197.94 133.364 198.553 133.804 199.34C134.258 200.113 134.484 201.013 134.484 202.04C134.484 203.067 134.258 203.973 133.804 204.76C133.364 205.533 132.758 206.14 131.984 206.58C131.211 207.02 130.351 207.24 129.404 207.24ZM129.404 205.02C130.071 205.02 130.651 204.773 131.144 204.28C131.638 203.773 131.884 203.027 131.884 202.04C131.884 201.053 131.638 200.313 131.144 199.82C130.651 199.313 130.078 199.06 129.424 199.06C128.744 199.06 128.158 199.313 127.664 199.82C127.184 200.313 126.944 201.053 126.944 202.04C126.944 203.027 127.184 203.773 127.664 204.28C128.158 204.773 128.738 205.02 129.404 205.02ZM140.348 204.04C139.868 204.04 139.422 203.987 139.008 203.88L138.268 204.62C138.495 204.74 138.802 204.84 139.188 204.92C139.575 205 140.202 205.08 141.068 205.16C142.388 205.28 143.348 205.593 143.948 206.1C144.548 206.607 144.848 207.307 144.848 208.2C144.848 208.787 144.688 209.34 144.368 209.86C144.048 210.393 143.555 210.82 142.888 211.14C142.222 211.473 141.368 211.64 140.328 211.64C138.915 211.64 137.775 211.373 136.908 210.84C136.042 210.32 135.608 209.533 135.608 208.48C135.608 207.587 136.042 206.813 136.908 206.16C136.642 206.04 136.408 205.913 136.208 205.78C136.022 205.647 135.855 205.507 135.708 205.36V204.9L137.448 203.06C136.675 202.38 136.288 201.507 136.288 200.44C136.288 199.773 136.448 199.167 136.768 198.62C137.102 198.073 137.568 197.64 138.168 197.32C138.768 197 139.495 196.84 140.348 196.84C140.908 196.84 141.428 196.92 141.908 197.08H145.668V198.64L143.968 198.76C144.235 199.267 144.368 199.827 144.368 200.44C144.368 201.107 144.208 201.713 143.888 202.26C143.568 202.807 143.102 203.24 142.488 203.56C141.888 203.88 141.175 204.04 140.348 204.04ZM140.348 202.08C140.868 202.08 141.295 201.94 141.628 201.66C141.975 201.38 142.148 200.98 142.148 200.46C142.148 199.94 141.975 199.54 141.628 199.26C141.295 198.98 140.868 198.84 140.348 198.84C139.802 198.84 139.362 198.98 139.028 199.26C138.695 199.54 138.528 199.94 138.528 200.46C138.528 200.98 138.695 201.38 139.028 201.66C139.362 201.94 139.802 202.08 140.348 202.08ZM137.948 208.22C137.948 208.713 138.175 209.08 138.628 209.32C139.095 209.573 139.662 209.7 140.328 209.7C140.968 209.7 141.488 209.567 141.888 209.3C142.288 209.047 142.488 208.7 142.488 208.26C142.488 207.9 142.355 207.6 142.088 207.36C141.835 207.12 141.322 206.973 140.548 206.92C140.002 206.88 139.495 206.82 139.028 206.74C138.642 206.953 138.362 207.187 138.188 207.44C138.028 207.693 137.948 207.953 137.948 208.22ZM153.681 195.54C153.214 195.54 152.827 195.4 152.521 195.12C152.227 194.84 152.081 194.487 152.081 194.06C152.081 193.633 152.227 193.287 152.521 193.02C152.827 192.74 153.214 192.6 153.681 192.6C154.147 192.6 154.527 192.74 154.821 193.02C155.127 193.287 155.281 193.633 155.281 194.06C155.281 194.487 155.127 194.84 154.821 195.12C154.527 195.4 154.147 195.54 153.681 195.54ZM152.401 207V197.08H154.961V207H152.401ZM157.633 207V197.08H159.893L160.093 198.76C160.399 198.173 160.839 197.707 161.413 197.36C161.999 197.013 162.686 196.84 163.473 196.84C164.699 196.84 165.653 197.227 166.333 198C167.013 198.773 167.353 199.907 167.353 201.4V207H164.793V201.64C164.793 200.787 164.619 200.133 164.273 199.68C163.926 199.227 163.386 199 162.653 199C161.933 199 161.339 199.253 160.873 199.76C160.419 200.267 160.193 200.973 160.193 201.88V207H157.633Z" fill="white"/>
</svg>
