<svg width="72" height="256" viewBox="0 0 72 256" fill="none" xmlns="http://www.w3.org/2000/svg">
<circle cx="36" cy="36" r="36" fill="#9DB580"/>
<path fill-rule="evenodd" clip-rule="evenodd" d="M21.75 35.5C21.75 35.0441 21.9311 34.607 22.2534 34.2846C22.5757 33.9623 23.0129 33.7812 23.4688 33.7812H43.3822L36.0019 26.4044C35.6791 26.0816 35.4978 25.6439 35.4978 25.1875C35.4978 24.7311 35.6791 24.2933 36.0019 23.9706C36.3246 23.6479 36.7623 23.4666 37.2188 23.4666C37.6752 23.4666 38.1129 23.6479 38.4356 23.9706L48.7481 34.2831C48.9082 34.4428 49.0352 34.6324 49.1218 34.8412C49.2085 35.05 49.2531 35.2739 49.2531 35.5C49.2531 35.7261 49.2085 35.9499 49.1218 36.1587C49.0352 36.3675 48.9082 36.5572 48.7481 36.7169L38.4356 47.0294C38.1129 47.3521 37.6752 47.5334 37.2188 47.5334C36.7623 47.5334 36.3246 47.3521 36.0019 47.0294C35.6791 46.7066 35.4978 46.2689 35.4978 45.8125C35.4978 45.3561 35.6791 44.9183 36.0019 44.5956L43.3822 37.2187H23.4688C23.0129 37.2187 22.5757 37.0376 22.2534 36.7153C21.9311 36.393 21.75 35.9558 21.75 35.5Z" fill="black"/>
<circle cx="36" cy="128" r="36" fill="#627952"/>
<path fill-rule="evenodd" clip-rule="evenodd" d="M21.75 127.5C21.75 127.044 21.9311 126.607 22.2534 126.285C22.5757 125.962 23.0129 125.781 23.4688 125.781H43.3822L36.0019 118.404C35.6791 118.082 35.4978 117.644 35.4978 117.187C35.4978 116.731 35.6791 116.293 36.0019 115.971C36.3246 115.648 36.7623 115.467 37.2188 115.467C37.6752 115.467 38.1129 115.648 38.4356 115.971L48.7481 126.283C48.9082 126.443 49.0352 126.632 49.1218 126.841C49.2085 127.05 49.2531 127.274 49.2531 127.5C49.2531 127.726 49.2085 127.95 49.1218 128.159C49.0352 128.368 48.9082 128.557 48.7481 128.717L38.4356 139.029C38.1129 139.352 37.6752 139.533 37.2188 139.533C36.7623 139.533 36.3246 139.352 36.0019 139.029C35.6791 138.707 35.4978 138.269 35.4978 137.812C35.4978 137.356 35.6791 136.918 36.0019 136.596L43.3822 129.219H23.4688C23.0129 129.219 22.5757 129.038 22.2534 128.715C21.9311 128.393 21.75 127.956 21.75 127.5Z" fill="white"/>
<circle cx="36" cy="220" r="36" fill="#465939"/>
<path fill-rule="evenodd" clip-rule="evenodd" d="M21.75 219.5C21.75 219.044 21.9311 218.607 22.2534 218.285C22.5757 217.962 23.0129 217.781 23.4688 217.781H43.3822L36.0019 210.404C35.6791 210.082 35.4978 209.644 35.4978 209.187C35.4978 208.731 35.6791 208.293 36.0019 207.971C36.3246 207.648 36.7623 207.467 37.2188 207.467C37.6752 207.467 38.1129 207.648 38.4356 207.971L48.7481 218.283C48.9082 218.443 49.0352 218.632 49.1218 218.841C49.2085 219.05 49.2531 219.274 49.2531 219.5C49.2531 219.726 49.2085 219.95 49.1218 220.159C49.0352 220.368 48.9082 220.557 48.7481 220.717L38.4356 231.029C38.1129 231.352 37.6752 231.533 37.2188 231.533C36.7623 231.533 36.3246 231.352 36.0019 231.029C35.6791 230.707 35.4978 230.269 35.4978 229.812C35.4978 229.356 35.6791 228.918 36.0019 228.596L43.3822 221.219H23.4688C23.0129 221.219 22.5757 221.038 22.2534 220.715C21.9311 220.393 21.75 219.956 21.75 219.5Z" fill="white"/>
</svg>
