<?xml version="1.0" encoding="utf-8"?>
<!-- Generator: Adobe Illustrator 28.2.0, SVG Export Plug-In . SVG Version: 6.00 Build 0)  -->
<svg version="1.1" id="Layer_2_00000045612131211261138470000005056281376117646226_"
	 xmlns="http://www.w3.org/2000/svg" xmlns:xlink="http://www.w3.org/1999/xlink" x="0px" y="0px" viewBox="0 0 268 348"
	 style="enable-background:new 0 0 268 348;" xml:space="preserve">
<style type="text/css">
	.st0{fill:#FFFFFF;}
	.st1{enable-background:new    ;}
</style>
<g id="Layer_1-2">
	<g id="logo-bw">
		<g>
			<path d="M232.4,4.2H35.6C18.2,4.2,4.2,18.2,4.2,35.6v177.2c30.9,40.6,79.1,20.5,106.1-6.8c2.8-2.8,6.9-4,10.8-3.1
				c46.4,10,124.9-17.9,124.9-81.1v-10.7c0-4.5,1.5-8.8,4.1-12.4c5.5-7.2,10-14.2,13.7-20.9V35.6C263.8,18.3,249.7,4.2,232.4,4.2
				L232.4,4.2z"/>
			<path d="M231.9,0H36.1C16.2,0,0,16.2,0,36.1v195.9C0,251.8,16.2,268,36.1,268h195.9c19.8,0,36.1-16.2,36.1-36.1V36.1
				C268,16.2,251.8,0,231.9,0z M263.8,231.9c0,17.6-14.3,31.9-31.9,31.9H36.1c-17.6,0-31.9-14.3-31.9-31.9V36.1
				c0-17.6,14.3-31.9,31.9-31.9h195.9c17.6,0,31.9,14.3,31.9,31.9V231.9z"/>
			<path class="st0" d="M76.1,73.2c-4.8,0-10.5-1.5-17-5.2c-1.2-0.7-1.6-2.2-0.9-3.4c0.7-1.2,2.2-1.6,3.4-0.9
				c8.8,5.1,21.2,8.4,31-4.9c0.8-1.1,2.4-1.4,3.5-0.5s1.3,2.4,0.5,3.5C93.1,66.7,86.3,73.2,76.1,73.2L76.1,73.2z"/>
			<path class="st0" d="M130.7,61.7c-4,0-8.5-0.8-13.7-2.9c-1.3-0.5-1.9-2-1.4-3.2c0.5-1.3,1.9-1.9,3.2-1.4
				c9.5,3.7,22.3,5.1,29.9-9.5c0.6-1.2,2.1-1.7,3.4-1.1s1.7,2.2,1.1,3.4C150,53.1,143.3,61.7,130.7,61.7L130.7,61.7z"/>
			<path class="st0" d="M83,109.2c-17.2,0-32.3-3.4-43.3-9.9c-1.2-0.7-1.6-2.2-0.9-3.4s2.2-1.6,3.4-0.9
				c39.2,23.5,113.9,0.5,147.5-34.9c0.9-1,2.5-1,3.5-0.1s1,2.5,0.1,3.5c-19.3,20.2-48.1,35.6-79.2,42.2
				C103.5,108.1,92.9,109.2,83,109.2L83,109.2z"/>
		</g>
		<g class="st1">
			<path d="M24.2,309.3c-0.8,0-1.5-0.3-2.1-0.8c-0.6-0.5-0.8-1.2-0.8-2c0-0.8,0.3-1.5,0.8-2c0.6-0.5,1.3-0.7,2.1-0.7h21.3
				c0.8,0,1.5,0.3,2.1,0.8c0.6,0.5,0.8,1.2,0.8,2c0,0.8-0.3,1.5-0.8,2c-0.6,0.5-1.3,0.7-2.1,0.7H24.2z M34.8,337.4
				c-0.9,0-1.6-0.3-2.2-0.8c-0.6-0.6-0.9-1.3-0.9-2.1v-27.8h6.2v27.8c0,0.8-0.3,1.5-0.9,2.1C36.5,337.1,35.7,337.4,34.8,337.4z"/>
			<path d="M55.8,337.4c-0.8,0-1.5-0.3-2.1-0.8c-0.5-0.6-0.8-1.3-0.8-2.1v-19.8c0-0.8,0.3-1.5,0.8-2.1c0.5-0.6,1.2-0.8,2.1-0.8
				c0.8,0,1.5,0.3,2.1,0.8c0.5,0.6,0.8,1.3,0.8,2.1v4.5l-0.3-3.2c0.4-0.8,0.8-1.4,1.4-2c0.6-0.6,1.2-1.1,1.9-1.5
				c0.7-0.4,1.5-0.7,2.3-0.9c0.8-0.2,1.6-0.3,2.4-0.3c1,0,1.8,0.3,2.4,0.8c0.7,0.5,1,1.2,1,1.9c0,1.1-0.3,1.8-0.8,2.3
				c-0.5,0.5-1.1,0.7-1.8,0.7c-0.6,0-1.2-0.1-1.7-0.3c-0.5-0.2-1.1-0.3-1.7-0.3c-0.6,0-1.2,0.1-1.8,0.4c-0.6,0.3-1.1,0.7-1.6,1.3
				c-0.5,0.6-0.9,1.3-1.2,2.1c-0.3,0.8-0.5,1.8-0.5,3v11.4c0,0.8-0.3,1.5-0.8,2.1C57.4,337.1,56.7,337.4,55.8,337.4z"/>
			<path d="M94.8,311.3c0.8,0,1.5,0.3,2.1,0.8c0.5,0.5,0.8,1.2,0.8,2.1v20.3c0,0.8-0.3,1.5-0.8,2.1c-0.5,0.6-1.2,0.8-2.1,0.8
				c-0.8,0-1.5-0.3-2.1-0.8c-0.5-0.6-0.8-1.3-0.8-2.1v-2.4l1.1,0.4c0,0.4-0.2,0.9-0.7,1.5c-0.4,0.6-1.1,1.2-1.8,1.8
				c-0.8,0.6-1.7,1.1-2.7,1.5c-1,0.4-2.2,0.6-3.4,0.6c-2.2,0-4.2-0.6-6-1.7c-1.8-1.1-3.2-2.7-4.2-4.7c-1-2-1.6-4.3-1.6-6.9
				c0-2.6,0.5-4.9,1.6-6.9c1-2,2.4-3.6,4.2-4.7c1.8-1.1,3.7-1.7,5.9-1.7c1.4,0,2.6,0.2,3.8,0.6c1.2,0.4,2.2,0.9,3,1.6
				c0.8,0.6,1.5,1.3,2,1.9c0.5,0.7,0.7,1.2,0.7,1.7l-1.7,0.6v-3.5c0-0.8,0.3-1.5,0.8-2.1C93.3,311.5,94,311.3,94.8,311.3z
				 M85.1,332.6c1.4,0,2.6-0.4,3.7-1.1c1.1-0.7,1.9-1.7,2.5-2.9c0.6-1.2,0.9-2.6,0.9-4.1c0-1.5-0.3-2.9-0.9-4.1
				c-0.6-1.2-1.4-2.2-2.5-2.9c-1.1-0.7-2.3-1.1-3.7-1.1c-1.4,0-2.6,0.4-3.6,1.1c-1.1,0.7-1.9,1.7-2.5,2.9c-0.6,1.2-0.9,2.6-0.9,4.1
				c0,1.5,0.3,2.9,0.9,4.1c0.6,1.2,1.4,2.2,2.5,2.9C82.5,332.3,83.7,332.6,85.1,332.6z"/>
			<path d="M117.7,311.3c2.4,0,4.2,0.5,5.4,1.5c1.2,1,2.1,2.3,2.5,4c0.5,1.6,0.7,3.5,0.7,5.5v12.3c0,0.8-0.3,1.5-0.8,2.1
				c-0.5,0.6-1.2,0.8-2.1,0.8c-0.8,0-1.5-0.3-2.1-0.8c-0.5-0.6-0.8-1.3-0.8-2.1v-12.3c0-1.1-0.1-2-0.4-2.9c-0.3-0.8-0.8-1.5-1.5-2
				c-0.7-0.5-1.7-0.8-3-0.8c-1.3,0-2.4,0.3-3.2,0.8c-0.9,0.5-1.6,1.2-2,2c-0.5,0.8-0.7,1.8-0.7,2.9v12.3c0,0.8-0.3,1.5-0.8,2.1
				c-0.5,0.6-1.2,0.8-2.1,0.8c-0.8,0-1.5-0.3-2.1-0.8c-0.5-0.6-0.8-1.3-0.8-2.1v-19.8c0-0.8,0.3-1.5,0.8-2.1
				c0.5-0.6,1.2-0.8,2.1-0.8c0.8,0,1.5,0.3,2.1,0.8c0.5,0.6,0.8,1.3,0.8,2.1v2.1l-0.7-0.1c0.3-0.5,0.7-1.1,1.2-1.8
				c0.5-0.6,1.2-1.2,1.9-1.8c0.7-0.5,1.6-1,2.5-1.3C115.6,311.4,116.6,311.3,117.7,311.3z"/>
			<path d="M153.6,311.7c0.8,0,1.5,0.3,2.1,0.8c0.5,0.5,0.8,1.2,0.8,2.1v29.4c0,0.8-0.3,1.5-0.8,2.1s-1.2,0.8-2.1,0.8
				c-0.8,0-1.5-0.3-2.1-0.8s-0.8-1.3-0.8-2.1v-12l1.1,0.4c0,0.4-0.2,0.9-0.7,1.5c-0.4,0.6-1.1,1.2-1.8,1.8s-1.7,1.1-2.7,1.5
				c-1,0.4-2.2,0.6-3.4,0.6c-2.2,0-4.2-0.6-6-1.7c-1.8-1.1-3.2-2.7-4.2-4.7c-1-2-1.6-4.3-1.6-6.9c0-2.6,0.5-4.9,1.6-6.9
				c1-2,2.4-3.6,4.2-4.7c1.8-1.1,3.7-1.7,5.9-1.7c1.4,0,2.6,0.2,3.8,0.6c1.2,0.4,2.2,0.9,3,1.6c0.8,0.6,1.5,1.3,2,1.9
				c0.5,0.7,0.7,1.2,0.7,1.7l-1.7,0.6v-3c0-0.8,0.3-1.5,0.8-2.1C152,312,152.7,311.7,153.6,311.7z M143.9,332.6
				c1.4,0,2.6-0.4,3.7-1.1c1.1-0.7,1.9-1.7,2.5-2.9c0.6-1.2,0.9-2.6,0.9-4.1c0-1.5-0.3-2.9-0.9-4.1c-0.6-1.2-1.4-2.2-2.5-2.9
				c-1.1-0.7-2.3-1.1-3.7-1.1c-1.4,0-2.6,0.4-3.6,1.1c-1.1,0.7-1.9,1.7-2.5,2.9c-0.6,1.2-0.9,2.6-0.9,4.1c0,1.5,0.3,2.9,0.9,4.1
				c0.6,1.2,1.4,2.2,2.5,2.9C141.3,332.3,142.5,332.6,143.9,332.6z"/>
			<path d="M181.7,311.7c0.8,0,1.5,0.3,2.1,0.8c0.5,0.6,0.8,1.3,0.8,2.1v12.2c0,3.4-0.9,6.1-2.8,8.1c-1.9,2-4.6,3-8.2,3
				s-6.3-1-8.1-3c-1.9-2-2.8-4.7-2.8-8.1v-12.2c0-0.8,0.3-1.5,0.8-2.1c0.5-0.6,1.2-0.8,2.1-0.8s1.5,0.3,2.1,0.8
				c0.5,0.6,0.8,1.3,0.8,2.1v12.2c0,2,0.4,3.4,1.3,4.3c0.9,0.9,2.2,1.4,3.9,1.4c1.8,0,3.1-0.5,3.9-1.4c0.9-0.9,1.3-2.4,1.3-4.3
				v-12.2c0-0.8,0.3-1.5,0.8-2.1C180.2,312,180.9,311.7,181.7,311.7z"/>
			<path d="M193.4,308.6c-1.1,0-1.9-0.2-2.3-0.5c-0.4-0.4-0.7-1-0.7-1.9v-0.9c0-0.9,0.2-1.6,0.7-1.9s1.3-0.5,2.3-0.5
				c1.1,0,1.9,0.2,2.4,0.5c0.4,0.4,0.7,1,0.7,1.9v0.9c0,0.9-0.2,1.6-0.7,1.9S194.4,308.6,193.4,308.6z M196.3,334.5
				c0,0.8-0.3,1.5-0.8,2.1c-0.5,0.6-1.2,0.8-2.1,0.8c-0.8,0-1.5-0.3-2.1-0.8c-0.5-0.6-0.8-1.3-0.8-2.1v-19.8c0-0.8,0.3-1.5,0.8-2.1
				c0.5-0.6,1.2-0.8,2.1-0.8c0.8,0,1.5,0.3,2.1,0.8c0.5,0.6,0.8,1.3,0.8,2.1V334.5z"/>
			<path d="M215.9,312.2c0.8,0,1.4,0.2,1.9,0.7s0.8,1.1,0.8,1.9c0,0.8-0.3,1.4-0.8,1.9s-1.2,0.7-1.9,0.7h-12.7
				c-0.8,0-1.4-0.2-1.9-0.7c-0.5-0.5-0.8-1.1-0.8-1.9c0-0.8,0.3-1.4,0.8-1.9c0.5-0.5,1.2-0.7,1.9-0.7H215.9z M215.4,301.9
				c0.7,0,1.4,0.1,2.1,0.3c0.7,0.2,1.2,0.5,1.7,0.9s0.7,1,0.7,1.7c0,0.8-0.2,1.4-0.7,1.9c-0.5,0.5-1,0.7-1.6,0.7
				c-0.3,0-0.7-0.1-1.3-0.2c-0.6-0.1-1.1-0.2-1.7-0.2c-0.8,0-1.4,0.2-1.8,0.5c-0.4,0.4-0.7,0.8-0.9,1.2s-0.2,0.9-0.2,1.2v24.5
				c0,0.8-0.3,1.5-0.8,2.1c-0.5,0.6-1.2,0.8-2.1,0.8s-1.5-0.3-2.1-0.8c-0.5-0.6-0.8-1.3-0.8-2.1V310c0-2.3,0.8-4.2,2.4-5.8
				C209.8,302.7,212.2,301.9,215.4,301.9z"/>
			<path d="M242.2,311.7c0.8,0,1.5,0.3,2.1,0.8c0.5,0.6,0.8,1.3,0.8,2.1v20.4c0,2.9-0.6,5.3-1.7,7c-1.1,1.7-2.6,3-4.4,3.8
				c-1.9,0.8-3.9,1.2-6.2,1.2c-1,0-2.1-0.1-3.3-0.2c-1.2-0.2-2.1-0.4-2.8-0.7c-1-0.4-1.6-0.9-2-1.6c-0.4-0.6-0.4-1.3-0.2-2
				c0.3-0.9,0.8-1.6,1.4-1.9c0.6-0.3,1.3-0.4,2-0.1c0.5,0.2,1.2,0.4,2,0.7c0.8,0.3,1.8,0.5,2.9,0.5c1.5,0,2.7-0.2,3.7-0.6
				c1-0.4,1.7-1.1,2.2-2c0.5-0.9,0.7-2.2,0.7-3.9V332l1,1.2c-0.5,1.1-1.2,1.9-2,2.6c-0.8,0.7-1.8,1.2-2.9,1.6
				c-1.1,0.4-2.4,0.5-3.8,0.5c-1.7,0-3.2-0.4-4.4-1.2c-1.3-0.8-2.2-1.9-3-3.3c-0.7-1.4-1.1-3-1.1-4.8v-14c0-0.8,0.3-1.5,0.8-2.1
				c0.5-0.6,1.2-0.8,2.1-0.8c0.8,0,1.5,0.3,2.1,0.8c0.5,0.6,0.8,1.3,0.8,2.1V327c0,2.1,0.5,3.5,1.4,4.4c0.9,0.8,2.2,1.3,3.8,1.3
				c1.1,0,2.1-0.2,2.8-0.6c0.8-0.4,1.4-1.1,1.8-1.9c0.4-0.8,0.6-1.9,0.6-3.1v-12.3c0-0.8,0.3-1.5,0.8-2.1
				C240.7,312,241.4,311.7,242.2,311.7z"/>
		</g>
	</g>
</g>
</svg>
