<?xml version="1.0" encoding="UTF-8"?>
<svg id="Layer_2" data-name="Layer 2" xmlns="http://www.w3.org/2000/svg" viewBox="0 0 32 32">
  <defs>
    <style>
      .cls-1 {
        fill: #a7bf87;
      }

      .cls-1, .cls-2 {
        stroke-width: 0px;
      }

      .cls-2 {
        fill: #fff;
      }
    </style>
  </defs>
  <g id="Layer_1-2" data-name="Layer 1">
    <g id="logo-32px">
      <path class="cls-1" d="M27.93.5H4.07C2.1.5.5,2.1.5,4.07v21.34c3.69,4.85,9.45,2.45,12.67-.81.33-.34.82-.47,1.28-.37,5.54,1.2,14.92-2.13,14.92-9.68v-1.28c0-.53.17-1.05.5-1.48.65-.86,1.19-1.69,1.63-2.49v-5.22c0-1.97-1.6-3.57-3.57-3.57Z"/>
      <path class="cls-1" d="M27.66,0H4.34C1.95,0,0,1.95,0,4.34v23.32c0,2.39,1.95,4.34,4.34,4.34h23.32c2.39,0,4.34-1.95,4.34-4.34V4.34c0-2.39-1.95-4.34-4.34-4.34ZM31.5,27.66c0,2.12-1.72,3.84-3.84,3.84H4.34c-2.12,0-3.84-1.72-3.84-3.84V4.34C.5,2.22,2.22.5,4.34.5h23.32c2.12,0,3.84,1.72,3.84,3.84v23.32Z"/>
      <path class="cls-2" d="M9.09,8.74c-.58,0-1.25-.17-2.03-.63-.14-.08-.19-.27-.11-.41.08-.14.27-.19.41-.11,1.05.61,2.54,1.01,3.7-.58.1-.13.28-.16.42-.06.13.1.16.28.06.42-.44.6-1.24,1.37-2.46,1.37Z"/>
      <path class="cls-2" d="M15.61,7.37c-.47,0-1.02-.1-1.64-.35-.15-.06-.23-.23-.17-.39.06-.15.23-.23.39-.17,1.13.45,2.67.61,3.57-1.13.08-.15.26-.2.4-.13.15.08.2.26.13.4-.38.73-1.19,1.76-2.69,1.76Z"/>
      <path class="cls-2" d="M9.91,13.04c-2.05,0-3.86-.4-5.17-1.18-.14-.08-.19-.27-.1-.41.08-.14.27-.19.41-.1,4.68,2.81,13.6.06,17.62-4.17.11-.12.3-.12.42-.01.12.11.12.3.01.42-2.3,2.42-5.75,4.25-9.46,5.04-1.29.27-2.55.41-3.74.41Z"/>
    </g>
  </g>
</svg>