<?xml version="1.0" encoding="UTF-8"?>
<svg id="Layer_2" data-name="Layer 2" xmlns="http://www.w3.org/2000/svg" viewBox="0 0 48 48">
  <defs>
    <style>
      .cls-1 {
        fill: #a7bf87;
      }

      .cls-1, .cls-2 {
        stroke-width: 0px;
      }

      .cls-2 {
        fill: #fff;
      }
    </style>
  </defs>
  <g id="Layer_1-2" data-name="Layer 1">
    <g id="logo-48px">
      <path class="cls-1" d="M41.89.75H6.11C3.15.75.75,3.15.75,6.11v32c5.53,7.27,14.17,3.67,19-1.21.5-.51,1.23-.71,1.93-.56,8.3,1.79,22.38-3.2,22.38-14.52v-1.92c0-.8.26-1.58.74-2.22.98-1.29,1.79-2.54,2.45-3.74v-7.83c0-2.96-2.4-5.36-5.36-5.36Z"/>
      <path class="cls-1" d="M41.49,0H6.51C2.93,0,0,2.93,0,6.51v34.98c0,3.58,2.93,6.51,6.51,6.51h34.98c3.58,0,6.51-2.93,6.51-6.51V6.51c0-3.58-2.93-6.51-6.51-6.51ZM47.25,41.49c0,3.18-2.58,5.76-5.76,5.76H6.51c-3.18,0-5.76-2.58-5.76-5.76V6.51C.75,3.33,3.33.75,6.51.75h34.98c3.18,0,5.76,2.58,5.76,5.76v34.98Z"/>
      <path class="cls-2" d="M13.63,13.12c-.87,0-1.88-.26-3.04-.94-.21-.13-.29-.4-.16-.61.13-.21.4-.28.61-.16,1.57.92,3.8,1.51,5.55-.87.15-.2.43-.24.63-.1.2.15.24.43.1.63-.66.89-1.86,2.06-3.69,2.06Z"/>
      <path class="cls-2" d="M23.41,11.05c-.71,0-1.52-.15-2.45-.52-.23-.09-.34-.35-.25-.58.09-.23.35-.34.58-.25,1.69.67,4,.92,5.36-1.7.11-.22.38-.3.6-.19.22.11.3.38.19.6-.57,1.1-1.78,2.64-4.03,2.64Z"/>
      <path class="cls-2" d="M14.87,19.56c-3.07,0-5.79-.6-7.75-1.78-.21-.13-.28-.4-.15-.61.13-.21.4-.28.61-.15,7.02,4.21,20.4.08,26.43-6.25.17-.18.45-.19.63-.02.18.17.19.45.02.63-3.45,3.63-8.62,6.38-14.18,7.56-1.93.41-3.83.61-5.6.61Z"/>
    </g>
  </g>
</svg>