<?xml version="1.0" encoding="UTF-8"?>
<svg id="Layer_2" data-name="Layer 2" xmlns="http://www.w3.org/2000/svg" viewBox="0 0 16 16">
  <defs>
    <style>
      .cls-1 {
        fill: #a7bf87;
      }

      .cls-1, .cls-2 {
        stroke-width: 0px;
      }

      .cls-2 {
        fill: #fff;
      }
    </style>
  </defs>
  <g id="Layer_1-2" data-name="Layer 1">
    <g id="logo-16px">
      <path class="cls-1" d="M13.96.25H2.04C1.05.25.25,1.05.25,2.04v10.67c1.84,2.42,4.72,1.22,6.33-.4.17-.17.41-.24.64-.19,2.77.6,7.46-1.07,7.46-4.84v-.64c0-.27.09-.53.25-.74.33-.43.6-.85.82-1.25v-2.61c0-.99-.8-1.79-1.79-1.79Z"/>
      <path class="cls-1" d="M13.83,0H2.17C.98,0,0,.98,0,2.17v11.66c0,1.19.98,2.17,2.17,2.17h11.66c1.19,0,2.17-.98,2.17-2.17V2.17c0-1.19-.98-2.17-2.17-2.17ZM15.75,13.83c0,1.06-.86,1.92-1.92,1.92H2.17c-1.06,0-1.92-.86-1.92-1.92V2.17C.25,1.11,1.11.25,2.17.25h11.66c1.06,0,1.92.86,1.92,1.92v11.66Z"/>
      <path class="cls-2" d="M4.54,4.37c-.29,0-.63-.09-1.01-.31-.07-.04-.1-.13-.05-.2.04-.07.13-.09.2-.05.52.31,1.27.5,1.85-.29.05-.07.14-.08.21-.03.07.05.08.14.03.21-.22.3-.62.69-1.23.69Z"/>
      <path class="cls-2" d="M7.8,3.68c-.24,0-.51-.05-.82-.17-.08-.03-.11-.12-.08-.19.03-.08.12-.11.19-.08.56.22,1.33.31,1.79-.57.04-.07.13-.1.2-.06.07.04.1.13.06.2-.19.37-.59.88-1.34.88Z"/>
      <path class="cls-2" d="M4.96,6.52c-1.02,0-1.93-.2-2.58-.59-.07-.04-.09-.13-.05-.2.04-.07.13-.09.2-.05,2.34,1.4,6.8.03,8.81-2.08.06-.06.15-.06.21,0,.06.06.06.15,0,.21-1.15,1.21-2.87,2.13-4.73,2.52-.64.14-1.28.2-1.87.2Z"/>
    </g>
  </g>
</svg>