<?xml version="1.0" encoding="UTF-8"?>
<svg id="Layer_2" data-name="Layer 2" xmlns="http://www.w3.org/2000/svg" viewBox="0 0 383.47 120">
  <defs>
    <style>
      .cls-1 {
        fill: #465939;
        font-family: Quicksand-Bold, Quicksand;
        font-size: 48px;
        font-variation-settings: 'wght' 700;
        font-weight: 700;
      }

      .cls-2 {
        fill: #a7bf87;
      }

      .cls-2, .cls-3 {
        stroke-width: 0px;
      }

      .cls-3 {
        fill: #fff;
      }
    </style>
  </defs>
  <g id="Layer_1-2" data-name="Layer 1">
    <g id="logo-horizontal">
      <g id="logo-120px">
        <path class="cls-2" d="M104.73,1.88H15.27C7.87,1.88,1.88,7.87,1.88,15.27v80.01c13.83,18.17,35.43,9.18,47.5-3.03,1.25-1.27,3.08-1.77,4.81-1.4,20.76,4.49,55.95-8,55.95-36.31v-4.8c0-2,.65-3.95,1.86-5.55,2.44-3.23,4.47-6.34,6.12-9.34V15.27c0-7.4-6-13.39-13.39-13.39Z"/>
        <path class="cls-2" d="M103.73,0H16.27C7.32,0,0,7.32,0,16.27v87.46c0,8.95,7.32,16.27,16.27,16.27h87.46c8.95,0,16.27-7.32,16.27-16.27V16.27c0-8.95-7.32-16.27-16.27-16.27ZM118.12,103.73c0,7.95-6.44,14.39-14.39,14.39H16.27c-7.95,0-14.39-6.44-14.39-14.39V16.27C1.88,8.32,8.32,1.88,16.27,1.88h87.46c7.95,0,14.39,6.44,14.39,14.39v87.46Z"/>
        <path class="cls-3" d="M34.08,32.79c-2.17,0-4.7-.66-7.59-2.35-.53-.31-.71-1-.4-1.53.31-.53,1-.71,1.53-.4,3.92,2.29,9.51,3.78,13.88-2.18.37-.5,1.07-.61,1.56-.24.5.37.61,1.07.24,1.56-1.64,2.24-4.66,5.14-9.23,5.14Z"/>
        <path class="cls-3" d="M58.53,27.63c-1.77,0-3.81-.38-6.13-1.3-.58-.23-.86-.88-.63-1.45.23-.57.87-.86,1.45-.63,4.23,1.67,10,2.29,13.4-4.25.29-.55.96-.76,1.51-.48.55.29.76.96.48,1.51-1.43,2.75-4.45,6.6-10.08,6.6Z"/>
        <path class="cls-3" d="M37.17,48.9c-7.69,0-14.48-1.51-19.37-4.44-.53-.32-.7-1.01-.38-1.54.32-.53,1.01-.7,1.54-.38,17.55,10.53,50.99.21,66.06-15.62.43-.45,1.13-.47,1.58-.04.45.43.47,1.13.04,1.58-8.63,9.06-21.55,15.95-35.46,18.91-4.83,1.03-9.57,1.53-14.01,1.53Z"/>
      </g>
      <text class="cls-1" transform="translate(155.04 75.1)"><tspan x="0" y="0">Tranquify</tspan></text>
    </g>
  </g>
</svg>