<?xml version="1.0" encoding="utf-8"?>
<!-- Generator: Adobe Illustrator 28.2.0, SVG Export Plug-In . SVG Version: 6.00 Build 0)  -->
<svg version="1.1" id="Layer_2_00000013183936997548285860000004144181790454431130_"
	 xmlns="http://www.w3.org/2000/svg" xmlns:xlink="http://www.w3.org/1999/xlink" x="0px" y="0px" viewBox="0 0 383.5 120"
	 style="enable-background:new 0 0 383.5 120;" xml:space="preserve">
<style type="text/css">
	.st0{fill:#A7BF87;}
	.st1{fill:#FFFFFF;}
	.st2{enable-background:new    ;}
	.st3{fill:#465939;}
</style>
<g id="Layer_1-2">
	<g id="logo-horizontal">
		<g id="logo-120px">
			<path class="st0" d="M104.7,1.9H15.3c-7.4,0-13.4,6-13.4,13.4v80c13.8,18.2,35.4,9.2,47.5-3c1.2-1.3,3.1-1.8,4.8-1.4
				c20.8,4.5,55.9-8,55.9-36.3v-4.8c0-2,0.7-4,1.9-5.5c2.4-3.2,4.5-6.3,6.1-9.3V15.3C118.1,7.9,112.1,1.9,104.7,1.9z"/>
			<path class="st0" d="M103.7,0H16.3C7.3,0,0,7.3,0,16.3v87.5c0,8.9,7.3,16.3,16.3,16.3h87.5c8.9,0,16.3-7.3,16.3-16.3V16.3
				C120,7.3,112.7,0,103.7,0z M118.1,103.7c0,7.9-6.4,14.4-14.4,14.4H16.3c-7.9,0-14.4-6.4-14.4-14.4V16.3c0-8,6.4-14.4,14.4-14.4
				h87.5c7.9,0,14.4,6.4,14.4,14.4C118.1,16.3,118.1,103.7,118.1,103.7z"/>
			<path class="st1" d="M34.1,32.8c-2.2,0-4.7-0.7-7.6-2.4c-0.5-0.3-0.7-1-0.4-1.5s1-0.7,1.5-0.4c3.9,2.3,9.5,3.8,13.9-2.2
				c0.4-0.5,1.1-0.6,1.6-0.2c0.5,0.4,0.6,1.1,0.2,1.6C41.7,29.9,38.6,32.8,34.1,32.8L34.1,32.8z"/>
			<path class="st1" d="M58.5,27.6c-1.8,0-3.8-0.4-6.1-1.3c-0.6-0.2-0.9-0.9-0.6-1.5c0.2-0.6,0.9-0.9,1.5-0.6
				c4.2,1.7,10,2.3,13.4-4.2c0.3-0.5,1-0.8,1.5-0.5c0.6,0.3,0.8,1,0.5,1.5C67.2,23.8,64.2,27.6,58.5,27.6z"/>
			<path class="st1" d="M37.2,48.9c-7.7,0-14.5-1.5-19.4-4.4c-0.5-0.3-0.7-1-0.4-1.5c0.3-0.5,1-0.7,1.5-0.4
				c17.5,10.5,51,0.2,66.1-15.6c0.4-0.5,1.1-0.5,1.6,0c0.4,0.4,0.5,1.1,0,1.6C78,37.5,65.1,44.4,51.2,47.4
				C46.3,48.4,41.6,48.9,37.2,48.9z"/>
		</g>
		<g class="st2">
			<path class="st3" d="M159.4,47c-0.8,0-1.5-0.3-2.1-0.8c-0.6-0.5-0.8-1.2-0.8-2c0-0.8,0.3-1.5,0.8-2c0.6-0.5,1.3-0.7,2.1-0.7h21.3
				c0.8,0,1.5,0.3,2.1,0.8c0.6,0.5,0.8,1.2,0.8,2c0,0.8-0.3,1.5-0.8,2c-0.6,0.5-1.3,0.7-2.1,0.7H159.4z M170,75.1
				c-0.9,0-1.6-0.3-2.2-0.8c-0.6-0.6-0.9-1.3-0.9-2.1V44.3h6.2v27.8c0,0.8-0.3,1.5-0.9,2.1C171.7,74.8,170.9,75.1,170,75.1z"/>
			<path class="st3" d="M191.1,75.1c-0.8,0-1.5-0.3-2.1-0.8c-0.5-0.6-0.8-1.3-0.8-2.1V52.3c0-0.8,0.3-1.5,0.8-2.1
				c0.5-0.6,1.2-0.8,2.1-0.8c0.8,0,1.5,0.3,2.1,0.8c0.5,0.6,0.8,1.3,0.8,2.1v4.5l-0.3-3.2c0.4-0.8,0.8-1.4,1.4-2
				c0.6-0.6,1.2-1.1,1.9-1.5c0.7-0.4,1.5-0.7,2.3-0.9s1.6-0.3,2.4-0.3c1,0,1.8,0.3,2.4,0.8c0.7,0.5,1,1.2,1,1.9
				c0,1.1-0.3,1.8-0.8,2.3s-1.1,0.7-1.8,0.7c-0.6,0-1.2-0.1-1.7-0.3c-0.5-0.2-1.1-0.3-1.7-0.3c-0.6,0-1.2,0.1-1.8,0.4
				c-0.6,0.3-1.1,0.7-1.6,1.3c-0.5,0.6-0.9,1.3-1.2,2.1c-0.3,0.8-0.5,1.8-0.5,3v11.4c0,0.8-0.3,1.5-0.8,2.1
				C192.6,74.8,191.9,75.1,191.1,75.1z"/>
			<path class="st3" d="M230.1,48.9c0.8,0,1.5,0.3,2.1,0.8c0.5,0.5,0.8,1.2,0.8,2.1v20.3c0,0.8-0.3,1.5-0.8,2.1
				c-0.5,0.6-1.2,0.8-2.1,0.8s-1.5-0.3-2.1-0.8c-0.5-0.6-0.8-1.3-0.8-2.1v-2.4l1.1,0.4c0,0.4-0.2,0.9-0.7,1.5
				c-0.4,0.6-1.1,1.2-1.8,1.8c-0.8,0.6-1.7,1.1-2.7,1.5s-2.2,0.6-3.4,0.6c-2.2,0-4.2-0.6-6-1.7s-3.2-2.7-4.2-4.7s-1.6-4.3-1.6-6.9
				c0-2.6,0.5-4.9,1.6-6.9s2.4-3.6,4.2-4.7c1.8-1.1,3.7-1.7,5.9-1.7c1.4,0,2.6,0.2,3.8,0.6c1.2,0.4,2.2,0.9,3,1.6
				c0.8,0.6,1.5,1.3,2,1.9c0.5,0.7,0.7,1.2,0.7,1.7l-1.7,0.6v-3.5c0-0.8,0.3-1.5,0.8-2.1C228.5,49.2,229.2,48.9,230.1,48.9z
				 M220.4,70.3c1.4,0,2.6-0.4,3.7-1.1c1.1-0.7,1.9-1.7,2.5-2.9c0.6-1.2,0.9-2.6,0.9-4.1c0-1.5-0.3-2.9-0.9-4.1
				c-0.6-1.2-1.4-2.2-2.5-2.9c-1.1-0.7-2.3-1.1-3.7-1.1c-1.4,0-2.6,0.4-3.6,1.1c-1.1,0.7-1.9,1.7-2.5,2.9c-0.6,1.2-0.9,2.6-0.9,4.1
				c0,1.5,0.3,2.9,0.9,4.1c0.6,1.2,1.4,2.2,2.5,2.9C217.8,69.9,219,70.3,220.4,70.3z"/>
			<path class="st3" d="M252.9,48.9c2.4,0,4.2,0.5,5.4,1.5c1.2,1,2.1,2.3,2.5,4c0.5,1.6,0.7,3.5,0.7,5.5v12.3c0,0.8-0.3,1.5-0.8,2.1
				c-0.5,0.6-1.2,0.8-2.1,0.8s-1.5-0.3-2.1-0.8c-0.5-0.6-0.8-1.3-0.8-2.1V59.9c0-1.1-0.1-2-0.4-2.9c-0.3-0.8-0.8-1.5-1.5-2
				c-0.7-0.5-1.7-0.8-3-0.8c-1.3,0-2.4,0.3-3.2,0.8c-0.9,0.5-1.6,1.2-2,2c-0.5,0.8-0.7,1.8-0.7,2.9v12.3c0,0.8-0.3,1.5-0.8,2.1
				c-0.5,0.6-1.2,0.8-2.1,0.8c-0.8,0-1.5-0.3-2.1-0.8c-0.5-0.6-0.8-1.3-0.8-2.1V52.3c0-0.8,0.3-1.5,0.8-2.1c0.5-0.6,1.2-0.8,2.1-0.8
				c0.8,0,1.5,0.3,2.1,0.8c0.5,0.6,0.8,1.3,0.8,2.1v2.1l-0.7-0.1c0.3-0.5,0.7-1.1,1.2-1.8c0.5-0.6,1.2-1.2,1.9-1.8
				c0.7-0.5,1.6-1,2.5-1.3C250.8,49.1,251.8,48.9,252.9,48.9z"/>
			<path class="st3" d="M288.8,49.4c0.8,0,1.5,0.3,2.1,0.8c0.5,0.5,0.8,1.2,0.8,2.1v29.4c0,0.8-0.3,1.5-0.8,2.1s-1.2,0.8-2.1,0.8
				c-0.8,0-1.5-0.3-2.1-0.8s-0.8-1.3-0.8-2.1v-12l1.1,0.4c0,0.4-0.2,0.9-0.7,1.5c-0.4,0.6-1.1,1.2-1.8,1.8s-1.7,1.1-2.7,1.5
				c-1,0.4-2.2,0.6-3.4,0.6c-2.2,0-4.2-0.6-6-1.7c-1.8-1.1-3.2-2.7-4.2-4.7c-1-2-1.6-4.3-1.6-6.9c0-2.6,0.5-4.9,1.6-6.9
				c1-2,2.4-3.6,4.2-4.7c1.8-1.1,3.7-1.7,5.9-1.7c1.4,0,2.6,0.2,3.8,0.6c1.2,0.4,2.2,0.9,3,1.6c0.8,0.6,1.5,1.3,2,1.9
				c0.5,0.7,0.7,1.2,0.7,1.7l-1.7,0.6v-3c0-0.8,0.3-1.5,0.8-2.1C287.3,49.7,288,49.4,288.8,49.4z M279.1,70.3c1.4,0,2.6-0.4,3.7-1.1
				c1.1-0.7,1.9-1.7,2.5-2.9c0.6-1.2,0.9-2.6,0.9-4.1c0-1.5-0.3-2.9-0.9-4.1c-0.6-1.2-1.4-2.2-2.5-2.9c-1.1-0.7-2.3-1.1-3.7-1.1
				c-1.4,0-2.6,0.4-3.6,1.1c-1.1,0.7-1.9,1.7-2.5,2.9c-0.6,1.2-0.9,2.6-0.9,4.1c0,1.5,0.3,2.9,0.9,4.1c0.6,1.2,1.4,2.2,2.5,2.9
				C276.5,69.9,277.7,70.3,279.1,70.3z"/>
			<path class="st3" d="M317,49.4c0.8,0,1.5,0.3,2.1,0.8c0.5,0.6,0.8,1.3,0.8,2.1v12.2c0,3.4-0.9,6.1-2.8,8.1c-1.9,2-4.6,3-8.2,3
				s-6.3-1-8.1-3c-1.9-2-2.8-4.7-2.8-8.1V52.3c0-0.8,0.3-1.5,0.8-2.1c0.5-0.6,1.2-0.8,2.1-0.8s1.5,0.3,2.1,0.8
				c0.5,0.6,0.8,1.3,0.8,2.1v12.2c0,2,0.4,3.4,1.3,4.3c0.9,0.9,2.2,1.4,3.9,1.4c1.8,0,3.1-0.5,3.9-1.4c0.9-0.9,1.3-2.4,1.3-4.3V52.3
				c0-0.8,0.3-1.5,0.8-2.1C315.5,49.7,316.2,49.4,317,49.4z"/>
			<path class="st3" d="M328.6,46.3c-1.1,0-1.9-0.2-2.3-0.5c-0.4-0.4-0.7-1-0.7-1.9V43c0-0.9,0.2-1.6,0.7-1.9s1.3-0.5,2.3-0.5
				c1.1,0,1.9,0.2,2.4,0.5c0.4,0.4,0.7,1,0.7,1.9v0.9c0,0.9-0.2,1.6-0.7,1.9S329.7,46.3,328.6,46.3z M331.5,72.2
				c0,0.8-0.3,1.5-0.8,2.1c-0.5,0.6-1.2,0.8-2.1,0.8c-0.8,0-1.5-0.3-2.1-0.8c-0.5-0.6-0.8-1.3-0.8-2.1V52.3c0-0.8,0.3-1.5,0.8-2.1
				c0.5-0.6,1.2-0.8,2.1-0.8c0.8,0,1.5,0.3,2.1,0.8c0.5,0.6,0.8,1.3,0.8,2.1V72.2z"/>
			<path class="st3" d="M351.2,49.9c0.8,0,1.4,0.2,1.9,0.7s0.8,1.1,0.8,1.9c0,0.8-0.3,1.4-0.8,1.9s-1.2,0.7-1.9,0.7h-12.7
				c-0.8,0-1.4-0.2-1.9-0.7c-0.5-0.5-0.8-1.1-0.8-1.9c0-0.8,0.3-1.4,0.8-1.9c0.5-0.5,1.2-0.7,1.9-0.7H351.2z M350.6,39.6
				c0.7,0,1.4,0.1,2.1,0.3c0.7,0.2,1.2,0.5,1.7,0.9s0.7,1,0.7,1.7c0,0.8-0.2,1.4-0.7,1.9c-0.5,0.5-1,0.7-1.6,0.7
				c-0.3,0-0.7-0.1-1.3-0.2c-0.6-0.1-1.1-0.2-1.7-0.2c-0.8,0-1.4,0.2-1.8,0.5c-0.4,0.4-0.7,0.8-0.9,1.2s-0.2,0.9-0.2,1.2v24.5
				c0,0.8-0.3,1.5-0.8,2.1c-0.5,0.6-1.2,0.8-2.1,0.8s-1.5-0.3-2.1-0.8c-0.5-0.6-0.8-1.3-0.8-2.1V47.7c0-2.3,0.8-4.2,2.4-5.8
				C345,40.4,347.4,39.6,350.6,39.6z"/>
			<path class="st3" d="M377.5,49.4c0.8,0,1.5,0.3,2.1,0.8c0.5,0.6,0.8,1.3,0.8,2.1v20.4c0,2.9-0.6,5.3-1.7,7
				c-1.1,1.7-2.6,3-4.4,3.8c-1.9,0.8-3.9,1.2-6.2,1.2c-1,0-2.1-0.1-3.3-0.2c-1.2-0.2-2.1-0.4-2.8-0.7c-1-0.4-1.6-0.9-2-1.6
				c-0.4-0.6-0.4-1.3-0.2-2c0.3-0.9,0.8-1.6,1.4-1.9c0.6-0.3,1.3-0.4,2-0.1c0.5,0.2,1.2,0.4,2,0.7c0.8,0.3,1.8,0.5,2.9,0.5
				c1.5,0,2.7-0.2,3.7-0.6c1-0.4,1.7-1.1,2.2-2c0.5-0.9,0.7-2.2,0.7-3.9v-3.2l1,1.2c-0.5,1.1-1.2,1.9-2,2.6
				c-0.8,0.7-1.8,1.2-2.9,1.6c-1.1,0.4-2.4,0.5-3.8,0.5c-1.7,0-3.2-0.4-4.4-1.2c-1.3-0.8-2.2-1.9-3-3.3c-0.7-1.4-1.1-3-1.1-4.8v-14
				c0-0.8,0.3-1.5,0.8-2.1c0.5-0.6,1.2-0.8,2.1-0.8c0.8,0,1.5,0.3,2.1,0.8c0.5,0.6,0.8,1.3,0.8,2.1v12.3c0,2.1,0.5,3.5,1.4,4.4
				c0.9,0.8,2.2,1.3,3.8,1.3c1.1,0,2.1-0.2,2.8-0.6c0.8-0.4,1.4-1.1,1.8-1.9c0.4-0.8,0.6-1.9,0.6-3.1V52.3c0-0.8,0.3-1.5,0.8-2.1
				C375.9,49.7,376.6,49.4,377.5,49.4z"/>
		</g>
	</g>
</g>
</svg>
