<?xml version="1.0" encoding="UTF-8"?>
<svg id="Layer_2" data-name="Layer 2" xmlns="http://www.w3.org/2000/svg" viewBox="0 0 268 348.03">
  <defs>
    <style>
      .cls-1 {
        font-family: Quicksand-Bold, Quicksand;
        font-size: 48px;
        font-variation-settings: 'wght' 700;
        font-weight: 700;
      }

      .cls-2, .cls-3 {
        stroke-width: 0px;
      }

      .cls-3 {
        fill: #fff;
      }
    </style>
  </defs>
  <g id="Layer_1-2" data-name="Layer 1">
    <g id="logo-bw">
      <g>
        <path class="cls-2" d="M232.4,4.2H35.57c-17.33,0-31.38,14.05-31.38,31.38v177.22c30.9,40.58,79.12,20.51,106.09-6.77,2.8-2.83,6.87-3.96,10.75-3.12,46.36,10.02,124.94-17.86,124.94-81.09v-10.73c0-4.47,1.46-8.83,4.15-12.39,5.46-7.21,9.98-14.16,13.66-20.87v-42.23c0-17.34-14.06-31.4-31.4-31.4Z"/>
        <path class="cls-2" d="M231.94,0H36.06C16.23,0,0,16.23,0,36.06v195.88c0,19.83,16.23,36.06,36.06,36.06h195.88c19.83,0,36.06-16.23,36.06-36.06V36.06c0-19.83-16.23-36.06-36.06-36.06ZM263.8,231.94c0,17.6-14.27,31.86-31.86,31.86H36.06c-17.6,0-31.86-14.27-31.86-31.86V36.06c0-17.6,14.27-31.86,31.86-31.86h195.88c17.6,0,31.86,14.27,31.86,31.86v195.88Z"/>
        <path class="cls-3" d="M76.12,73.24c-4.85,0-10.49-1.46-16.96-5.25-1.19-.7-1.59-2.23-.9-3.42.7-1.19,2.23-1.59,3.42-.9,8.75,5.12,21.24,8.44,31.01-4.87.82-1.11,2.38-1.36,3.49-.54,1.11.82,1.35,2.38.54,3.49-3.67,4.99-10.4,11.48-20.6,11.48Z"/>
        <path class="cls-3" d="M130.72,61.7c-3.96,0-8.5-.85-13.7-2.9-1.28-.51-1.91-1.96-1.41-3.24.51-1.28,1.95-1.92,3.24-1.41,9.46,3.73,22.32,5.11,29.93-9.49.64-1.23,2.15-1.7,3.37-1.06,1.22.64,1.7,2.15,1.06,3.37-3.2,6.15-9.93,14.74-22.5,14.74Z"/>
        <path class="cls-3" d="M83.02,109.22c-17.16,0-32.35-3.37-43.26-9.92-1.18-.71-1.57-2.25-.86-3.43.71-1.18,2.25-1.57,3.43-.86,39.19,23.51,113.89.47,147.54-34.89.95-1,2.53-1.04,3.53-.09,1,.95,1.04,2.53.09,3.53-19.27,20.24-48.13,35.63-79.19,42.23-10.79,2.29-21.37,3.42-31.29,3.42Z"/>
      </g>
      <text class="cls-1" transform="translate(19.79 337.42)"><tspan x="0" y="0">Tranquify</tspan></text>
    </g>
  </g>
</svg>