<svg width="430" height="94" viewBox="0 0 430 94" fill="none" xmlns="http://www.w3.org/2000/svg">
<path d="M0 0H430V94H0V0Z" fill="white"/>
<mask id="mask0_1011_2281" style="mask-type:alpha" maskUnits="userSpaceOnUse" x="335" y="13" width="40" height="40">
<rect x="335" y="13" width="40" height="40" fill="#D9D9D9"/>
</mask>
<g mask="url(#mask0_1011_2281)">
<path d="M343.333 49.6667C342.417 49.6667 341.632 49.3403 340.979 48.6875C340.326 48.0348 340 47.25 340 46.3334V23C340 22.0834 340.326 21.2987 340.979 20.6459C341.632 19.9931 342.417 19.6667 343.333 19.6667H345V16.3334H348.333V19.6667H361.667V16.3334H365V19.6667H366.667C367.583 19.6667 368.368 19.9931 369.021 20.6459C369.674 21.2987 370 22.0834 370 23V46.3334C370 47.25 369.674 48.0348 369.021 48.6875C368.368 49.3403 367.583 49.6667 366.667 49.6667H343.333ZM343.333 46.3334H366.667V29.6667H343.333V46.3334ZM343.333 26.3334H366.667V23H343.333V26.3334ZM355 36.3334C354.528 36.3334 354.132 36.1737 353.813 35.8542C353.493 35.5348 353.333 35.1389 353.333 34.6667C353.333 34.1945 353.493 33.7987 353.813 33.4792C354.132 33.1598 354.528 33 355 33C355.472 33 355.868 33.1598 356.188 33.4792C356.507 33.7987 356.667 34.1945 356.667 34.6667C356.667 35.1389 356.507 35.5348 356.188 35.8542C355.868 36.1737 355.472 36.3334 355 36.3334ZM348.333 36.3334C347.861 36.3334 347.465 36.1737 347.146 35.8542C346.826 35.5348 346.667 35.1389 346.667 34.6667C346.667 34.1945 346.826 33.7987 347.146 33.4792C347.465 33.1598 347.861 33 348.333 33C348.806 33 349.201 33.1598 349.521 33.4792C349.84 33.7987 350 34.1945 350 34.6667C350 35.1389 349.84 35.5348 349.521 35.8542C349.201 36.1737 348.806 36.3334 348.333 36.3334ZM361.667 36.3334C361.194 36.3334 360.799 36.1737 360.479 35.8542C360.16 35.5348 360 35.1389 360 34.6667C360 34.1945 360.16 33.7987 360.479 33.4792C360.799 33.1598 361.194 33 361.667 33C362.139 33 362.535 33.1598 362.854 33.4792C363.174 33.7987 363.333 34.1945 363.333 34.6667C363.333 35.1389 363.174 35.5348 362.854 35.8542C362.535 36.1737 362.139 36.3334 361.667 36.3334ZM355 43C354.528 43 354.132 42.8403 353.813 42.5209C353.493 42.2014 353.333 41.8056 353.333 41.3334C353.333 40.8612 353.493 40.4653 353.813 40.1459C354.132 39.8264 354.528 39.6667 355 39.6667C355.472 39.6667 355.868 39.8264 356.188 40.1459C356.507 40.4653 356.667 40.8612 356.667 41.3334C356.667 41.8056 356.507 42.2014 356.188 42.5209C355.868 42.8403 355.472 43 355 43ZM348.333 43C347.861 43 347.465 42.8403 347.146 42.5209C346.826 42.2014 346.667 41.8056 346.667 41.3334C346.667 40.8612 346.826 40.4653 347.146 40.1459C347.465 39.8264 347.861 39.6667 348.333 39.6667C348.806 39.6667 349.201 39.8264 349.521 40.1459C349.84 40.4653 350 40.8612 350 41.3334C350 41.8056 349.84 42.2014 349.521 42.5209C349.201 42.8403 348.806 43 348.333 43ZM361.667 43C361.194 43 360.799 42.8403 360.479 42.5209C360.16 42.2014 360 41.8056 360 41.3334C360 40.8612 360.16 40.4653 360.479 40.1459C360.799 39.8264 361.194 39.6667 361.667 39.6667C362.139 39.6667 362.535 39.8264 362.854 40.1459C363.174 40.4653 363.333 40.8612 363.333 41.3334C363.333 41.8056 363.174 42.2014 362.854 42.5209C362.535 42.8403 362.139 43 361.667 43Z" fill="#D9D9D9"/>
</g>
<path d="M60.4545 51.3636V34.3182L57.1818 36.8182L55 33.9091L60.4545 29.7273V24.0909H64.0909V26.9545L75 18.6364L95 33.9091L92.8182 36.7727L89.5455 34.3182V51.3636H60.4545ZM64.0909 47.7273H73.1818V40.4545H76.8182V47.7273H85.9091V31.5455L75 23.2273L64.0909 31.5455V47.7273ZM60.4545 22.2727C60.4545 20.7576 60.9848 19.4697 62.0455 18.4091C63.1061 17.3485 64.3939 16.8182 65.9091 16.8182C66.4242 16.8182 66.8561 16.6439 67.2045 16.2955C67.553 15.947 67.7273 15.5152 67.7273 15H71.3636C71.3636 16.5152 70.8333 17.803 69.7727 18.8636C68.7121 19.9242 67.4242 20.4545 65.9091 20.4545C65.3939 20.4545 64.9621 20.6288 64.6136 20.9773C64.2652 21.3258 64.0909 21.7576 64.0909 22.2727H60.4545Z" fill="#627952"/>
<mask id="mask1_1011_2281" style="mask-type:alpha" maskUnits="userSpaceOnUse" x="241" y="12" width="44" height="44">
<rect x="241" y="12" width="44" height="44" fill="#D9D9D9"/>
</mask>
<g mask="url(#mask1_1011_2281)">
<path d="M263.331 52.6631C261.101 52.3882 258.886 51.7847 256.686 50.8529C254.486 49.921 252.523 48.5844 250.797 46.8429C249.071 45.1014 247.673 42.9016 246.604 40.2435C245.534 37.5855 245 34.3927 245 30.6653V28.8322H246.833C248.391 28.8322 249.995 29.0308 251.645 29.4279C253.295 29.8251 254.837 30.4209 256.273 31.2153C256.64 28.5878 257.473 25.8915 258.771 23.1265C260.07 20.3615 261.59 17.986 263.331 16.0001C265.073 17.986 266.592 20.3615 267.891 23.1265C269.189 25.8915 270.022 28.5878 270.389 31.2153C271.825 30.4209 273.368 29.8251 275.017 29.4279C276.667 29.0308 278.271 28.8322 279.829 28.8322H281.663V30.6653C281.663 34.3927 281.128 37.5855 280.059 40.2435C278.989 42.9016 277.591 45.1014 275.865 46.8429C274.139 48.5844 272.184 49.921 269.999 50.8529C267.815 51.7847 265.592 52.3882 263.331 52.6631ZM263.239 48.9052C262.903 43.8335 261.399 39.9991 258.725 37.4021C256.052 34.8052 252.729 33.2012 248.757 32.5901C249.094 37.8146 250.644 41.7101 253.409 44.2765C256.174 46.8429 259.451 48.3858 263.239 48.9052ZM263.331 37.2647C263.789 36.5925 264.347 35.8974 265.004 35.1795C265.661 34.4615 266.295 33.8428 266.906 33.3234C266.845 31.5819 266.501 29.764 265.875 27.8698C265.248 25.9755 264.4 24.1271 263.331 22.3245C262.262 24.1271 261.414 25.9755 260.788 27.8698C260.161 29.764 259.817 31.5819 259.756 33.3234C260.367 33.8428 261.009 34.4615 261.681 35.1795C262.353 35.8974 262.903 36.5925 263.331 37.2647ZM266.906 48.0803C268.036 47.7136 269.212 47.179 270.434 46.4762C271.657 45.7735 272.795 44.8188 273.849 43.6119C274.903 42.4051 275.804 40.9004 276.553 39.0978C277.301 37.2952 277.752 35.126 277.905 32.5901C275.033 33.0179 272.512 33.9726 270.343 35.4544C268.174 36.9362 266.508 38.8228 265.347 41.1143C265.714 42.092 266.027 43.1613 266.287 44.3223C266.547 45.4833 266.753 46.7359 266.906 48.0803Z" fill="#D9D9D9"/>
</g>
<path d="M53.3146 74V62.8H55.3626V67.456H60.3866V62.8H62.4346V74H60.3866V69.12H55.3626V74H53.3146ZM68.3714 74.192C67.6034 74.192 66.9101 74.016 66.2914 73.664C65.6834 73.312 65.1981 72.8267 64.8354 72.208C64.4834 71.5787 64.3074 70.8533 64.3074 70.032C64.3074 69.2107 64.4888 68.4907 64.8514 67.872C65.2141 67.2427 65.6994 66.752 66.3074 66.4C66.9261 66.048 67.6194 65.872 68.3874 65.872C69.1448 65.872 69.8274 66.048 70.4354 66.4C71.0541 66.752 71.5394 67.2427 71.8914 67.872C72.2541 68.4907 72.4354 69.2107 72.4354 70.032C72.4354 70.8533 72.2541 71.5787 71.8914 72.208C71.5394 72.8267 71.0541 73.312 70.4354 73.664C69.8168 74.016 69.1288 74.192 68.3714 74.192ZM68.3714 72.416C68.9048 72.416 69.3688 72.2187 69.7634 71.824C70.1581 71.4187 70.3554 70.8213 70.3554 70.032C70.3554 69.2427 70.1581 68.6507 69.7634 68.256C69.3688 67.8507 68.9101 67.648 68.3874 67.648C67.8434 67.648 67.3741 67.8507 66.9794 68.256C66.5954 68.6507 66.4034 69.2427 66.4034 70.032C66.4034 70.8213 66.5954 71.4187 66.9794 71.824C67.3741 72.2187 67.8381 72.416 68.3714 72.416ZM74.2666 74V66.064H76.0746L76.2506 67.136C76.5066 66.752 76.8426 66.448 77.2586 66.224C77.6852 65.9893 78.1759 65.872 78.7306 65.872C79.9572 65.872 80.8266 66.3467 81.3386 67.296C81.6266 66.8587 82.0106 66.512 82.4906 66.256C82.9812 66 83.5146 65.872 84.0906 65.872C85.1252 65.872 85.9199 66.1813 86.4746 66.8C87.0292 67.4187 87.3066 68.3253 87.3066 69.52V74H85.2586V69.712C85.2586 69.0293 85.1252 68.5067 84.8586 68.144C84.6026 67.7813 84.2026 67.6 83.6586 67.6C83.1039 67.6 82.6559 67.8027 82.3146 68.208C81.9839 68.6133 81.8186 69.1787 81.8186 69.904V74H79.7706V69.712C79.7706 69.0293 79.6372 68.5067 79.3706 68.144C79.1039 67.7813 78.6932 67.6 78.1386 67.6C77.5946 67.6 77.1519 67.8027 76.8106 68.208C76.4799 68.6133 76.3146 69.1787 76.3146 69.904V74H74.2666ZM93.1069 74.192C92.3069 74.192 91.5976 74.0213 90.9789 73.68C90.3603 73.3387 89.8749 72.8587 89.5229 72.24C89.1709 71.6213 88.9949 70.9067 88.9949 70.096C88.9949 69.2747 89.1656 68.544 89.5069 67.904C89.8589 67.264 90.3389 66.768 90.9469 66.416C91.5656 66.0533 92.2909 65.872 93.1229 65.872C93.9016 65.872 94.5896 66.0427 95.1869 66.384C95.7843 66.7253 96.2483 67.1947 96.5789 67.792C96.9203 68.3787 97.0909 69.0347 97.0909 69.76C97.0909 69.8773 97.0856 70 97.0749 70.128C97.0749 70.256 97.0696 70.3893 97.0589 70.528H91.0269C91.0696 71.1467 91.2829 71.632 91.6669 71.984C92.0616 72.336 92.5363 72.512 93.0909 72.512C93.5069 72.512 93.8536 72.4213 94.1309 72.24C94.4189 72.048 94.6323 71.8027 94.7709 71.504H96.8509C96.7016 72.0053 96.4509 72.464 96.0989 72.88C95.7576 73.2853 95.3309 73.6053 94.8189 73.84C94.3176 74.0747 93.7469 74.192 93.1069 74.192ZM93.1229 67.536C92.6216 67.536 92.1789 67.68 91.7949 67.968C91.4109 68.2453 91.1656 68.672 91.0589 69.248H95.0109C94.9789 68.7253 94.7869 68.3093 94.4349 68C94.0829 67.6907 93.6456 67.536 93.1229 67.536Z" fill="#627952"/>
<path d="M147.104 74V62.8H149.536L153.104 69.904L156.624 62.8H159.056V74H157.008V66.272L153.888 72.4H152.272L149.152 66.272V74H147.104ZM164.989 74.192C164.221 74.192 163.527 74.016 162.909 73.664C162.301 73.312 161.815 72.8267 161.453 72.208C161.101 71.5787 160.925 70.8533 160.925 70.032C160.925 69.2107 161.106 68.4907 161.469 67.872C161.831 67.2427 162.317 66.752 162.925 66.4C163.543 66.048 164.237 65.872 165.005 65.872C165.762 65.872 166.445 66.048 167.053 66.4C167.671 66.752 168.157 67.2427 168.509 67.872C168.871 68.4907 169.053 69.2107 169.053 70.032C169.053 70.8533 168.871 71.5787 168.509 72.208C168.157 72.8267 167.671 73.312 167.053 73.664C166.434 74.016 165.746 74.192 164.989 74.192ZM164.989 72.416C165.522 72.416 165.986 72.2187 166.381 71.824C166.775 71.4187 166.973 70.8213 166.973 70.032C166.973 69.2427 166.775 68.6507 166.381 68.256C165.986 67.8507 165.527 67.648 165.005 67.648C164.461 67.648 163.991 67.8507 163.597 68.256C163.213 68.6507 163.021 69.2427 163.021 70.032C163.021 70.8213 163.213 71.4187 163.597 71.824C163.991 72.2187 164.455 72.416 164.989 72.416ZM174.692 74.192C173.924 74.192 173.23 74.016 172.612 73.664C172.004 73.312 171.518 72.8267 171.156 72.208C170.804 71.5787 170.628 70.8533 170.628 70.032C170.628 69.2107 170.809 68.4907 171.172 67.872C171.534 67.2427 172.02 66.752 172.628 66.4C173.246 66.048 173.94 65.872 174.708 65.872C175.465 65.872 176.148 66.048 176.756 66.4C177.374 66.752 177.86 67.2427 178.212 67.872C178.574 68.4907 178.756 69.2107 178.756 70.032C178.756 70.8533 178.574 71.5787 178.212 72.208C177.86 72.8267 177.374 73.312 176.756 73.664C176.137 74.016 175.449 74.192 174.692 74.192ZM174.692 72.416C175.225 72.416 175.689 72.2187 176.084 71.824C176.478 71.4187 176.676 70.8213 176.676 70.032C176.676 69.2427 176.478 68.6507 176.084 68.256C175.689 67.8507 175.23 67.648 174.708 67.648C174.164 67.648 173.694 67.8507 173.3 68.256C172.916 68.6507 172.724 69.2427 172.724 70.032C172.724 70.8213 172.916 71.4187 173.3 71.824C173.694 72.2187 174.158 72.416 174.692 72.416ZM184.235 74.192C183.488 74.192 182.822 74.0107 182.235 73.648C181.648 73.2853 181.184 72.7893 180.843 72.16C180.502 71.5307 180.331 70.816 180.331 70.016C180.331 69.216 180.502 68.5067 180.843 67.888C181.184 67.2587 181.648 66.768 182.235 66.416C182.822 66.0533 183.488 65.872 184.235 65.872C184.832 65.872 185.355 65.984 185.803 66.208C186.251 66.432 186.614 66.7467 186.891 67.152V62.48H188.939V74H187.115L186.891 72.864C186.635 73.216 186.294 73.5253 185.867 73.792C185.451 74.0587 184.907 74.192 184.235 74.192ZM184.667 72.4C185.328 72.4 185.867 72.1813 186.283 71.744C186.71 71.296 186.923 70.7253 186.923 70.032C186.923 69.3387 186.71 68.7733 186.283 68.336C185.867 67.888 185.328 67.664 184.667 67.664C184.016 67.664 183.478 67.8827 183.051 68.32C182.624 68.7573 182.411 69.3227 182.411 70.016C182.411 70.7093 182.624 71.28 183.051 71.728C183.478 72.176 184.016 72.4 184.667 72.4Z" fill="#627952"/>
<path d="M229.416 74V62.8H231.848L235.416 69.904L238.936 62.8H241.368V74H239.32V66.272L236.2 72.4H234.584L231.464 66.272V74H229.416ZM247.349 74.192C246.549 74.192 245.84 74.0213 245.221 73.68C244.602 73.3387 244.117 72.8587 243.765 72.24C243.413 71.6213 243.237 70.9067 243.237 70.096C243.237 69.2747 243.408 68.544 243.749 67.904C244.101 67.264 244.581 66.768 245.189 66.416C245.808 66.0533 246.533 65.872 247.365 65.872C248.144 65.872 248.832 66.0427 249.429 66.384C250.026 66.7253 250.49 67.1947 250.821 67.792C251.162 68.3787 251.333 69.0347 251.333 69.76C251.333 69.8773 251.328 70 251.317 70.128C251.317 70.256 251.312 70.3893 251.301 70.528H245.269C245.312 71.1467 245.525 71.632 245.909 71.984C246.304 72.336 246.778 72.512 247.333 72.512C247.749 72.512 248.096 72.4213 248.373 72.24C248.661 72.048 248.874 71.8027 249.013 71.504H251.093C250.944 72.0053 250.693 72.464 250.341 72.88C250 73.2853 249.573 73.6053 249.061 73.84C248.56 74.0747 247.989 74.192 247.349 74.192ZM247.365 67.536C246.864 67.536 246.421 67.68 246.037 67.968C245.653 68.2453 245.408 68.672 245.301 69.248H249.253C249.221 68.7253 249.029 68.3093 248.677 68C248.325 67.6907 247.888 67.536 247.365 67.536ZM256.704 74.192C255.957 74.192 255.29 74.0107 254.704 73.648C254.117 73.2853 253.653 72.7893 253.312 72.16C252.97 71.5307 252.8 70.816 252.8 70.016C252.8 69.216 252.97 68.5067 253.312 67.888C253.653 67.2587 254.117 66.768 254.704 66.416C255.29 66.0533 255.957 65.872 256.704 65.872C257.301 65.872 257.824 65.984 258.272 66.208C258.72 66.432 259.082 66.7467 259.36 67.152V62.48H261.408V74H259.584L259.36 72.864C259.104 73.216 258.762 73.5253 258.336 73.792C257.92 74.0587 257.376 74.192 256.704 74.192ZM257.136 72.4C257.797 72.4 258.336 72.1813 258.752 71.744C259.178 71.296 259.392 70.7253 259.392 70.032C259.392 69.3387 259.178 68.7733 258.752 68.336C258.336 67.888 257.797 67.664 257.136 67.664C256.485 67.664 255.946 67.8827 255.52 68.32C255.093 68.7573 254.88 69.3227 254.88 70.016C254.88 70.7093 255.093 71.28 255.52 71.728C255.946 72.176 256.485 72.4 257.136 72.4ZM264.597 64.832C264.224 64.832 263.914 64.72 263.669 64.496C263.434 64.272 263.317 63.9893 263.317 63.648C263.317 63.3067 263.434 63.0293 263.669 62.816C263.914 62.592 264.224 62.48 264.597 62.48C264.97 62.48 265.274 62.592 265.509 62.816C265.754 63.0293 265.877 63.3067 265.877 63.648C265.877 63.9893 265.754 64.272 265.509 64.496C265.274 64.72 264.97 64.832 264.597 64.832ZM263.573 74V66.064H265.621V74H263.573ZM271.295 74C270.463 74 269.796 73.7973 269.295 73.392C268.793 72.9867 268.543 72.2667 268.543 71.232V67.776H267.183V66.064H268.543L268.783 63.936H270.591V66.064H272.735V67.776H270.591V71.248C270.591 71.632 270.671 71.8987 270.831 72.048C271.001 72.1867 271.289 72.256 271.695 72.256H272.687V74H271.295ZM277.229 74.192C276.546 74.192 275.986 74.0853 275.549 73.872C275.112 73.648 274.786 73.3547 274.573 72.992C274.36 72.6293 274.253 72.2293 274.253 71.792C274.253 71.056 274.541 70.4587 275.117 70C275.693 69.5413 276.557 69.312 277.709 69.312H279.725V69.12C279.725 68.576 279.57 68.176 279.261 67.92C278.952 67.664 278.568 67.536 278.109 67.536C277.693 67.536 277.33 67.6373 277.021 67.84C276.712 68.032 276.52 68.32 276.445 68.704H274.445C274.498 68.128 274.69 67.6267 275.021 67.2C275.362 66.7733 275.8 66.448 276.333 66.224C276.866 65.9893 277.464 65.872 278.125 65.872C279.256 65.872 280.146 66.1547 280.797 66.72C281.448 67.2853 281.773 68.0853 281.773 69.12V74H280.029L279.837 72.72C279.602 73.1467 279.272 73.4987 278.845 73.776C278.429 74.0533 277.89 74.192 277.229 74.192ZM277.693 72.592C278.28 72.592 278.733 72.4 279.053 72.016C279.384 71.632 279.592 71.1573 279.677 70.592H277.933C277.389 70.592 277 70.6933 276.765 70.896C276.53 71.088 276.413 71.328 276.413 71.616C276.413 71.9253 276.53 72.1653 276.765 72.336C277 72.5067 277.309 72.592 277.693 72.592ZM287.154 74C286.322 74 285.655 73.7973 285.154 73.392C284.653 72.9867 284.402 72.2667 284.402 71.232V67.776H283.042V66.064H284.402L284.642 63.936H286.45V66.064H288.594V67.776H286.45V71.248C286.45 71.632 286.53 71.8987 286.69 72.048C286.861 72.1867 287.149 72.256 287.554 72.256H288.546V74H287.154ZM294.005 74.192C293.205 74.192 292.496 74.0213 291.877 73.68C291.259 73.3387 290.773 72.8587 290.421 72.24C290.069 71.6213 289.893 70.9067 289.893 70.096C289.893 69.2747 290.064 68.544 290.405 67.904C290.757 67.264 291.237 66.768 291.845 66.416C292.464 66.0533 293.189 65.872 294.021 65.872C294.8 65.872 295.488 66.0427 296.085 66.384C296.683 66.7253 297.147 67.1947 297.477 67.792C297.819 68.3787 297.989 69.0347 297.989 69.76C297.989 69.8773 297.984 70 297.973 70.128C297.973 70.256 297.968 70.3893 297.957 70.528H291.925C291.968 71.1467 292.181 71.632 292.565 71.984C292.96 72.336 293.435 72.512 293.989 72.512C294.405 72.512 294.752 72.4213 295.029 72.24C295.317 72.048 295.531 71.8027 295.669 71.504H297.749C297.6 72.0053 297.349 72.464 296.997 72.88C296.656 73.2853 296.229 73.6053 295.717 73.84C295.216 74.0747 294.645 74.192 294.005 74.192ZM294.021 67.536C293.52 67.536 293.077 67.68 292.693 67.968C292.309 68.2453 292.064 68.672 291.957 69.248H295.909C295.877 68.7253 295.685 68.3093 295.333 68C294.981 67.6907 294.544 67.536 294.021 67.536Z" fill="#627952"/>
<path d="M327.418 74.192C326.287 74.192 325.316 73.952 324.506 73.472C323.695 72.9813 323.071 72.304 322.634 71.44C322.196 70.5653 321.978 69.5573 321.978 68.416C321.978 67.2747 322.196 66.2667 322.634 65.392C323.071 64.5173 323.695 63.8347 324.506 63.344C325.316 62.8533 326.287 62.608 327.418 62.608C328.762 62.608 329.86 62.944 330.714 63.616C331.578 64.2773 332.116 65.2107 332.33 66.416H330.074C329.935 65.808 329.636 65.3333 329.178 64.992C328.73 64.64 328.132 64.464 327.386 64.464C326.351 64.464 325.54 64.816 324.954 65.52C324.367 66.224 324.074 67.1893 324.074 68.416C324.074 69.6427 324.367 70.608 324.954 71.312C325.54 72.0053 326.351 72.352 327.386 72.352C328.132 72.352 328.73 72.192 329.178 71.872C329.636 71.5413 329.935 71.088 330.074 70.512H332.33C332.116 71.664 331.578 72.5653 330.714 73.216C329.86 73.8667 328.762 74.192 327.418 74.192ZM336.831 74.192C336.148 74.192 335.588 74.0853 335.151 73.872C334.713 73.648 334.388 73.3547 334.175 72.992C333.961 72.6293 333.855 72.2293 333.855 71.792C333.855 71.056 334.143 70.4587 334.719 70C335.295 69.5413 336.159 69.312 337.311 69.312H339.327V69.12C339.327 68.576 339.172 68.176 338.863 67.92C338.553 67.664 338.169 67.536 337.711 67.536C337.295 67.536 336.932 67.6373 336.623 67.84C336.313 68.032 336.121 68.32 336.047 68.704H334.047C334.1 68.128 334.292 67.6267 334.623 67.2C334.964 66.7733 335.401 66.448 335.935 66.224C336.468 65.9893 337.065 65.872 337.727 65.872C338.857 65.872 339.748 66.1547 340.399 66.72C341.049 67.2853 341.375 68.0853 341.375 69.12V74H339.631L339.439 72.72C339.204 73.1467 338.873 73.4987 338.447 73.776C338.031 74.0533 337.492 74.192 336.831 74.192ZM337.295 72.592C337.881 72.592 338.335 72.4 338.655 72.016C338.985 71.632 339.193 71.1573 339.279 70.592H337.535C336.991 70.592 336.601 70.6933 336.367 70.896C336.132 71.088 336.015 71.328 336.015 71.616C336.015 71.9253 336.132 72.1653 336.367 72.336C336.601 72.5067 336.911 72.592 337.295 72.592ZM343.329 74V62.48H345.377V74H343.329ZM351.326 74.192C350.526 74.192 349.816 74.0213 349.198 73.68C348.579 73.3387 348.094 72.8587 347.742 72.24C347.39 71.6213 347.214 70.9067 347.214 70.096C347.214 69.2747 347.384 68.544 347.726 67.904C348.078 67.264 348.558 66.768 349.166 66.416C349.784 66.0533 350.51 65.872 351.342 65.872C352.12 65.872 352.808 66.0427 353.406 66.384C354.003 66.7253 354.467 67.1947 354.798 67.792C355.139 68.3787 355.31 69.0347 355.31 69.76C355.31 69.8773 355.304 70 355.294 70.128C355.294 70.256 355.288 70.3893 355.278 70.528H349.246C349.288 71.1467 349.502 71.632 349.886 71.984C350.28 72.336 350.755 72.512 351.31 72.512C351.726 72.512 352.072 72.4213 352.35 72.24C352.638 72.048 352.851 71.8027 352.99 71.504H355.07C354.92 72.0053 354.67 72.464 354.318 72.88C353.976 73.2853 353.55 73.6053 353.038 73.84C352.536 74.0747 351.966 74.192 351.326 74.192ZM351.342 67.536C350.84 67.536 350.398 67.68 350.014 67.968C349.63 68.2453 349.384 68.672 349.278 69.248H353.23C353.198 68.7253 353.006 68.3093 352.654 68C352.302 67.6907 351.864 67.536 351.342 67.536ZM357.032 74V66.064H358.84L359 67.408C359.246 66.9387 359.598 66.5653 360.056 66.288C360.526 66.0107 361.075 65.872 361.704 65.872C362.686 65.872 363.448 66.1813 363.992 66.8C364.536 67.4187 364.808 68.3253 364.808 69.52V74H362.76V69.712C362.76 69.0293 362.622 68.5067 362.344 68.144C362.067 67.7813 361.635 67.6 361.048 67.6C360.472 67.6 359.998 67.8027 359.624 68.208C359.262 68.6133 359.08 69.1787 359.08 69.904V74H357.032ZM370.415 74.192C369.668 74.192 369.001 74.0107 368.415 73.648C367.828 73.2853 367.364 72.7893 367.023 72.16C366.681 71.5307 366.511 70.816 366.511 70.016C366.511 69.216 366.681 68.5067 367.023 67.888C367.364 67.2587 367.828 66.768 368.415 66.416C369.001 66.0533 369.668 65.872 370.415 65.872C371.012 65.872 371.535 65.984 371.983 66.208C372.431 66.432 372.793 66.7467 373.071 67.152V62.48H375.119V74H373.295L373.071 72.864C372.815 73.216 372.473 73.5253 372.047 73.792C371.631 74.0587 371.087 74.192 370.415 74.192ZM370.847 72.4C371.508 72.4 372.047 72.1813 372.463 71.744C372.889 71.296 373.103 70.7253 373.103 70.032C373.103 69.3387 372.889 68.7733 372.463 68.336C372.047 67.888 371.508 67.664 370.847 67.664C370.196 67.664 369.657 67.8827 369.231 68.32C368.804 68.7573 368.591 69.3227 368.591 70.016C368.591 70.7093 368.804 71.28 369.231 71.728C369.657 72.176 370.196 72.4 370.847 72.4ZM379.94 74.192C379.257 74.192 378.697 74.0853 378.26 73.872C377.823 73.648 377.497 73.3547 377.284 72.992C377.071 72.6293 376.964 72.2293 376.964 71.792C376.964 71.056 377.252 70.4587 377.828 70C378.404 69.5413 379.268 69.312 380.42 69.312H382.436V69.12C382.436 68.576 382.281 68.176 381.972 67.92C381.663 67.664 381.279 67.536 380.82 67.536C380.404 67.536 380.041 67.6373 379.732 67.84C379.423 68.032 379.231 68.32 379.156 68.704H377.156C377.209 68.128 377.401 67.6267 377.732 67.2C378.073 66.7733 378.511 66.448 379.044 66.224C379.577 65.9893 380.175 65.872 380.836 65.872C381.967 65.872 382.857 66.1547 383.508 66.72C384.159 67.2853 384.484 68.0853 384.484 69.12V74H382.74L382.548 72.72C382.313 73.1467 381.983 73.4987 381.556 73.776C381.14 74.0533 380.601 74.192 379.94 74.192ZM380.404 72.592C380.991 72.592 381.444 72.4 381.764 72.016C382.095 71.632 382.303 71.1573 382.388 70.592H380.644C380.1 70.592 379.711 70.6933 379.476 70.896C379.241 71.088 379.124 71.328 379.124 71.616C379.124 71.9253 379.241 72.1653 379.476 72.336C379.711 72.5067 380.02 72.592 380.404 72.592ZM386.438 74V66.064H388.262L388.454 67.552C388.742 67.04 389.132 66.6347 389.622 66.336C390.124 66.0267 390.71 65.872 391.382 65.872V68.032H390.806C390.358 68.032 389.958 68.1013 389.606 68.24C389.254 68.3787 388.977 68.6187 388.774 68.96C388.582 69.3013 388.486 69.776 388.486 70.384V74H386.438Z" fill="#627952"/>
<path d="M168 44.6971C172.194 44.6971 175.74 41.9941 177.198 38.2171H158.802C160.242 41.9941 163.806 44.6971 168 44.6971ZM161.7 32.6629C162.416 32.6629 163.103 32.3703 163.609 31.8495C164.116 31.3286 164.4 30.6223 164.4 29.8857C164.4 29.1492 164.116 28.4428 163.609 27.922C163.103 27.4012 162.416 27.1086 161.7 27.1086C160.984 27.1086 160.297 27.4012 159.791 27.922C159.284 28.4428 159 29.1492 159 29.8857C159 30.6223 159.284 31.3286 159.791 31.8495C160.297 32.3703 160.984 32.6629 161.7 32.6629ZM174.3 32.6629C175.016 32.6629 175.703 32.3703 176.209 31.8495C176.716 31.3286 177 30.6223 177 29.8857C177 29.1492 176.716 28.4428 176.209 27.922C175.703 27.4012 175.016 27.1086 174.3 27.1086C173.584 27.1086 172.897 27.4012 172.391 27.922C171.884 28.4428 171.6 29.1492 171.6 29.8857C171.6 30.6223 171.884 31.3286 172.391 31.8495C172.897 32.3703 173.584 32.6629 174.3 32.6629ZM168 49.3257C164.181 49.3257 160.518 47.7652 157.818 44.9875C155.117 42.2099 153.6 38.4425 153.6 34.5143C153.6 30.5861 155.117 26.8187 157.818 24.041C160.518 21.2633 164.181 19.7029 168 19.7029C171.819 19.7029 175.482 21.2633 178.182 24.041C180.883 26.8187 182.4 30.5861 182.4 34.5143C182.4 38.4425 180.883 42.2099 178.182 44.9875C175.482 47.7652 171.819 49.3257 168 49.3257ZM168 16C158.046 16 150 24.3314 150 34.5143C150 39.4246 151.896 44.1338 155.272 47.6059C156.944 49.3251 158.928 50.6888 161.112 51.6193C163.296 52.5497 165.636 53.0286 168 53.0286C172.774 53.0286 177.352 51.078 180.728 47.6059C184.104 44.1338 186 39.4246 186 34.5143C186 32.083 185.534 29.6754 184.63 27.4292C183.725 25.1829 182.399 23.1419 180.728 21.4227C179.056 19.7035 177.072 18.3397 174.888 17.4093C172.704 16.4789 170.364 16 168 16Z" fill="#D9D9D9"/>
</svg>
