<svg width="268" height="71" viewBox="0 0 268 71" fill="none" xmlns="http://www.w3.org/2000/svg">
<rect width="268" height="71" rx="20" fill="#D9D9D9"/>
<path fill-rule="evenodd" clip-rule="evenodd" d="M234.421 23.9834C234.505 23.899 234.605 23.8321 234.715 23.7864C234.825 23.7407 234.943 23.7172 235.063 23.7172C235.182 23.7172 235.3 23.7407 235.41 23.7864C235.52 23.8321 235.62 23.899 235.704 23.9834L246.579 34.8584C246.664 34.9426 246.731 35.0426 246.776 35.1527C246.822 35.2628 246.846 35.3808 246.846 35.5C246.846 35.6192 246.822 35.7373 246.776 35.8474C246.731 35.9575 246.664 36.0575 246.579 36.1417L235.704 47.0167C235.534 47.1868 235.303 47.2824 235.063 47.2824C234.822 47.2824 234.591 47.1868 234.421 47.0167C234.251 46.8465 234.155 46.6157 234.155 46.375C234.155 46.1344 234.251 45.9036 234.421 45.7334L244.656 35.5L234.421 25.2667C234.337 25.1825 234.27 25.0825 234.224 24.9724C234.178 24.8623 234.155 24.7442 234.155 24.625C234.155 24.5058 234.178 24.3878 234.224 24.2777C234.27 24.1676 234.337 24.0676 234.421 23.9834Z" fill="black"/>
<path d="M52.184 41V29.8H59V30.904H53.528V34.84H58.184V35.928H53.528V41H52.184ZM62.744 41.192C62.0827 41.192 61.5333 41.08 61.096 40.856C60.6587 40.632 60.3333 40.3333 60.12 39.96C59.9067 39.5867 59.8 39.1813 59.8 38.744C59.8 37.9333 60.1093 37.3093 60.728 36.872C61.3467 36.4347 62.1893 36.216 63.256 36.216H65.4V36.12C65.4 35.4267 65.2187 34.904 64.856 34.552C64.4933 34.1893 64.008 34.008 63.4 34.008C62.8773 34.008 62.424 34.1413 62.04 34.408C61.6667 34.664 61.432 35.0427 61.336 35.544H59.96C60.0133 34.968 60.2053 34.4827 60.536 34.088C60.8773 33.6933 61.2987 33.3947 61.8 33.192C62.3013 32.9787 62.8347 32.872 63.4 32.872C64.5093 32.872 65.3413 33.1707 65.896 33.768C66.4613 34.3547 66.744 35.1387 66.744 36.12V41H65.544L65.464 39.576C65.24 40.024 64.9093 40.408 64.472 40.728C64.0453 41.0373 63.4693 41.192 62.744 41.192ZM62.952 40.056C63.464 40.056 63.9013 39.9227 64.264 39.656C64.6373 39.3893 64.92 39.0427 65.112 38.616C65.304 38.1893 65.4 37.7413 65.4 37.272V37.256H63.368C62.5787 37.256 62.0187 37.3947 61.688 37.672C61.368 37.9387 61.208 38.2747 61.208 38.68C61.208 39.096 61.3573 39.432 61.656 39.688C61.9653 39.9333 62.3973 40.056 62.952 40.056ZM70.7514 41L67.7434 33.064H69.1514L71.5354 39.704L73.9354 33.064H75.3114L72.3034 41H70.7514ZM80.0169 41.192C79.2702 41.192 78.5982 41.0213 78.0009 40.68C77.4035 40.3387 76.9289 39.8587 76.5769 39.24C76.2355 38.6107 76.0649 37.8747 76.0649 37.032C76.0649 36.1893 76.2409 35.4587 76.5929 34.84C76.9449 34.2107 77.4195 33.7253 78.0169 33.384C78.6249 33.0427 79.3022 32.872 80.0489 32.872C80.7955 32.872 81.4675 33.0427 82.0649 33.384C82.6622 33.7253 83.1315 34.2107 83.4729 34.84C83.8249 35.4587 84.0009 36.1893 84.0009 37.032C84.0009 37.8747 83.8249 38.6107 83.4729 39.24C83.1209 39.8587 82.6409 40.3387 82.0329 40.68C81.4355 41.0213 80.7635 41.192 80.0169 41.192ZM80.0169 40.04C80.4755 40.04 80.9022 39.928 81.2969 39.704C81.6915 39.48 82.0115 39.144 82.2569 38.696C82.5022 38.248 82.6249 37.6933 82.6249 37.032C82.6249 36.3707 82.5022 35.816 82.2569 35.368C82.0222 34.92 81.7075 34.584 81.3129 34.36C80.9182 34.136 80.4969 34.024 80.0489 34.024C79.5902 34.024 79.1635 34.136 78.7689 34.36C78.3742 34.584 78.0542 34.92 77.8089 35.368C77.5635 35.816 77.4409 36.3707 77.4409 37.032C77.4409 37.6933 77.5635 38.248 77.8089 38.696C78.0542 39.144 78.3689 39.48 78.7529 39.704C79.1475 39.928 79.5689 40.04 80.0169 40.04ZM88.7656 41.192C87.827 41.192 87.0803 40.9093 86.5256 40.344C85.971 39.768 85.6936 38.888 85.6936 37.704V33.064H87.0376V37.56C87.0376 39.2133 87.715 40.04 89.0696 40.04C89.763 40.04 90.3336 39.7947 90.7816 39.304C91.2403 38.8027 91.4696 38.0933 91.4696 37.176V33.064H92.8136V41H91.5976L91.5016 39.576C91.2563 40.0773 90.8883 40.472 90.3976 40.76C89.9176 41.048 89.3736 41.192 88.7656 41.192ZM95.0259 41V33.064H96.2419L96.3539 34.584C96.5992 34.0613 96.9725 33.6453 97.4739 33.336C97.9752 33.0267 98.5939 32.872 99.3299 32.872V34.28H98.9619C98.4925 34.28 98.0605 34.3653 97.6659 34.536C97.2712 34.696 96.9565 34.9733 96.7219 35.368C96.4872 35.7627 96.3699 36.3067 96.3699 37V41H95.0259ZM101.654 31.304C101.388 31.304 101.164 31.2187 100.982 31.048C100.812 30.8667 100.726 30.6427 100.726 30.376C100.726 30.12 100.812 29.9067 100.982 29.736C101.164 29.5653 101.388 29.48 101.654 29.48C101.91 29.48 102.129 29.5653 102.31 29.736C102.492 29.9067 102.582 30.12 102.582 30.376C102.582 30.6427 102.492 30.8667 102.31 31.048C102.129 31.2187 101.91 31.304 101.654 31.304ZM100.982 41V33.064H102.326V41H100.982ZM107.803 41C107.077 41 106.507 40.824 106.091 40.472C105.675 40.12 105.467 39.4853 105.467 38.568V34.2H104.09V33.064H105.467L105.643 31.16H106.811V33.064H109.147V34.2H106.811V38.568C106.811 39.0693 106.912 39.4107 107.115 39.592C107.317 39.7627 107.675 39.848 108.187 39.848H109.019V41H107.803ZM114.203 41.192C113.446 41.192 112.774 41.0213 112.187 40.68C111.601 40.328 111.137 39.8427 110.795 39.224C110.465 38.6053 110.299 37.8747 110.299 37.032C110.299 36.2 110.465 35.4747 110.795 34.856C111.126 34.2267 111.585 33.7413 112.171 33.4C112.769 33.048 113.457 32.872 114.235 32.872C115.003 32.872 115.665 33.048 116.219 33.4C116.785 33.7413 117.217 34.1947 117.515 34.76C117.814 35.3253 117.963 35.9333 117.963 36.584C117.963 36.7013 117.958 36.8187 117.947 36.936C117.947 37.0533 117.947 37.1867 117.947 37.336H111.627C111.659 37.944 111.798 38.4507 112.043 38.856C112.299 39.2507 112.614 39.5493 112.987 39.752C113.371 39.9547 113.777 40.056 114.203 40.056C114.758 40.056 115.222 39.928 115.595 39.672C115.969 39.416 116.241 39.0693 116.411 38.632H117.739C117.526 39.368 117.115 39.9813 116.507 40.472C115.91 40.952 115.142 41.192 114.203 41.192ZM114.203 34.008C113.563 34.008 112.993 34.2053 112.491 34.6C112.001 34.984 111.718 35.5493 111.643 36.296H116.635C116.603 35.5813 116.358 35.0213 115.899 34.616C115.441 34.2107 114.875 34.008 114.203 34.008ZM122.785 41.192C121.835 41.192 121.046 40.952 120.417 40.472C119.787 39.992 119.419 39.3413 119.313 38.52H120.689C120.774 38.936 120.993 39.2987 121.345 39.608C121.707 39.9067 122.193 40.056 122.801 40.056C123.366 40.056 123.782 39.9387 124.049 39.704C124.315 39.4587 124.449 39.1707 124.449 38.84C124.449 38.36 124.273 38.04 123.921 37.88C123.579 37.72 123.094 37.576 122.465 37.448C122.038 37.3627 121.611 37.24 121.185 37.08C120.758 36.92 120.401 36.696 120.113 36.408C119.825 36.1093 119.681 35.72 119.681 35.24C119.681 34.5467 119.937 33.9813 120.449 33.544C120.971 33.096 121.675 32.872 122.561 32.872C123.403 32.872 124.091 33.0853 124.625 33.512C125.169 33.928 125.483 34.5253 125.569 35.304H124.241C124.187 34.8987 124.011 34.584 123.713 34.36C123.425 34.1253 123.035 34.008 122.545 34.008C122.065 34.008 121.691 34.1093 121.425 34.312C121.169 34.5147 121.041 34.7813 121.041 35.112C121.041 35.432 121.206 35.6827 121.537 35.864C121.878 36.0453 122.337 36.2 122.913 36.328C123.403 36.4347 123.867 36.568 124.305 36.728C124.753 36.8773 125.115 37.1067 125.393 37.416C125.681 37.7147 125.825 38.152 125.825 38.728C125.835 39.4427 125.563 40.0347 125.009 40.504C124.465 40.9627 123.723 41.192 122.785 41.192Z" fill="black"/>
<mask id="mask0_1011_2256" style="mask-type:alpha" maskUnits="userSpaceOnUse" x="19" y="27" width="18" height="18">
<rect x="19" y="27" width="17.194" height="18" fill="#D9D9D9"/>
</mask>
<g mask="url(#mask0_1011_2256)">
<path d="M27.5968 42.7499L26.558 41.7749C25.352 40.6374 24.355 39.6562 23.5669 38.8312C22.7789 38.0062 22.152 37.2656 21.6863 36.6093C21.2207 35.9531 20.8953 35.3499 20.7102 34.7999C20.5252 34.2499 20.4326 33.6874 20.4326 33.1124C20.4326 31.9374 20.8087 30.9562 21.561 30.1687C22.3132 29.3812 23.2505 28.9874 24.3729 28.9874C24.9938 28.9874 25.5849 29.1249 26.146 29.3999C26.7072 29.6749 27.1908 30.0624 27.5968 30.5624C28.0028 30.0624 28.4863 29.6749 29.0475 29.3999C29.6087 29.1249 30.1998 28.9874 30.8207 28.9874C31.9431 28.9874 32.8804 29.3812 33.6326 30.1687C34.3849 30.9562 34.761 31.9374 34.761 33.1124C34.761 33.6874 34.6684 34.2499 34.4834 34.7999C34.2983 35.3499 33.9729 35.9531 33.5072 36.6093C33.0416 37.2656 32.4147 38.0062 31.6266 38.8312C30.8386 39.6562 29.8416 40.6374 28.6356 41.7749L27.5968 42.7499Z" fill="#1C1B1F"/>
</g>
</svg>
