<svg width="268" height="71" viewBox="0 0 268 71" fill="none" xmlns="http://www.w3.org/2000/svg">
<rect width="268" height="71" rx="20" fill="#D9D9D9"/>
<path fill-rule="evenodd" clip-rule="evenodd" d="M234.421 23.9834C234.505 23.899 234.605 23.8321 234.715 23.7864C234.825 23.7407 234.943 23.7172 235.062 23.7172C235.182 23.7172 235.3 23.7407 235.41 23.7864C235.52 23.8321 235.62 23.899 235.704 23.9834L246.579 34.8584C246.663 34.9426 246.73 35.0426 246.776 35.1527C246.822 35.2628 246.845 35.3808 246.845 35.5C246.845 35.6192 246.822 35.7373 246.776 35.8474C246.73 35.9575 246.663 36.0575 246.579 36.1417L235.704 47.0167C235.534 47.1868 235.303 47.2824 235.062 47.2824C234.822 47.2824 234.591 47.1868 234.421 47.0167C234.251 46.8465 234.155 46.6157 234.155 46.375C234.155 46.1344 234.251 45.9036 234.421 45.7334L244.656 35.5L234.421 25.2667C234.336 25.1825 234.269 25.0825 234.224 24.9724C234.178 24.8623 234.155 24.7442 234.155 24.625C234.155 24.5058 234.178 24.3878 234.224 24.2777C234.269 24.1676 234.336 24.0676 234.421 23.9834Z" fill="black"/>
<path d="M51.48 41L55.608 29.8H57.032L61.144 41H59.72L58.696 38.12H53.928L52.888 41H51.48ZM54.328 37.032H58.296L56.312 31.496L54.328 37.032ZM65.9395 41.192C65.1822 41.192 64.4995 41.0213 63.8915 40.68C63.2942 40.328 62.8195 39.8427 62.4675 39.224C62.1262 38.5947 61.9555 37.864 61.9555 37.032C61.9555 36.2 62.1262 35.4747 62.4675 34.856C62.8195 34.2267 63.2942 33.7413 63.8915 33.4C64.4995 33.048 65.1822 32.872 65.9395 32.872C66.8782 32.872 67.6675 33.1173 68.3075 33.608C68.9582 34.0987 69.3688 34.7547 69.5395 35.576H68.1635C68.0568 35.0853 67.7955 34.7067 67.3795 34.44C66.9635 34.1627 66.4782 34.024 65.9235 34.024C65.4755 34.024 65.0542 34.136 64.6595 34.36C64.2648 34.584 63.9448 34.92 63.6995 35.368C63.4542 35.816 63.3315 36.3707 63.3315 37.032C63.3315 37.6933 63.4542 38.248 63.6995 38.696C63.9448 39.144 64.2648 39.4853 64.6595 39.72C65.0542 39.944 65.4755 40.056 65.9235 40.056C66.4782 40.056 66.9635 39.9227 67.3795 39.656C67.7955 39.3787 68.0568 38.9893 68.1635 38.488H69.5395C69.3795 39.288 68.9742 39.9387 68.3235 40.44C67.6728 40.9413 66.8782 41.192 65.9395 41.192ZM75.0645 41.192C74.3072 41.192 73.6245 41.0213 73.0165 40.68C72.4192 40.328 71.9445 39.8427 71.5925 39.224C71.2512 38.5947 71.0805 37.864 71.0805 37.032C71.0805 36.2 71.2512 35.4747 71.5925 34.856C71.9445 34.2267 72.4192 33.7413 73.0165 33.4C73.6245 33.048 74.3072 32.872 75.0645 32.872C76.0032 32.872 76.7925 33.1173 77.4325 33.608C78.0832 34.0987 78.4938 34.7547 78.6645 35.576H77.2885C77.1818 35.0853 76.9205 34.7067 76.5045 34.44C76.0885 34.1627 75.6032 34.024 75.0485 34.024C74.6005 34.024 74.1792 34.136 73.7845 34.36C73.3898 34.584 73.0698 34.92 72.8245 35.368C72.5792 35.816 72.4565 36.3707 72.4565 37.032C72.4565 37.6933 72.5792 38.248 72.8245 38.696C73.0698 39.144 73.3898 39.4853 73.7845 39.72C74.1792 39.944 74.6005 40.056 75.0485 40.056C75.6032 40.056 76.0885 39.9227 76.5045 39.656C76.9205 39.3787 77.1818 38.9893 77.2885 38.488H78.6645C78.5045 39.288 78.0992 39.9387 77.4485 40.44C76.7978 40.9413 76.0032 41.192 75.0645 41.192ZM84.1575 41.192C83.4108 41.192 82.7388 41.0213 82.1415 40.68C81.5442 40.3387 81.0695 39.8587 80.7175 39.24C80.3762 38.6107 80.2055 37.8747 80.2055 37.032C80.2055 36.1893 80.3815 35.4587 80.7335 34.84C81.0855 34.2107 81.5602 33.7253 82.1575 33.384C82.7655 33.0427 83.4428 32.872 84.1895 32.872C84.9362 32.872 85.6082 33.0427 86.2055 33.384C86.8028 33.7253 87.2722 34.2107 87.6135 34.84C87.9655 35.4587 88.1415 36.1893 88.1415 37.032C88.1415 37.8747 87.9655 38.6107 87.6135 39.24C87.2615 39.8587 86.7815 40.3387 86.1735 40.68C85.5762 41.0213 84.9042 41.192 84.1575 41.192ZM84.1575 40.04C84.6162 40.04 85.0428 39.928 85.4375 39.704C85.8322 39.48 86.1522 39.144 86.3975 38.696C86.6428 38.248 86.7655 37.6933 86.7655 37.032C86.7655 36.3707 86.6428 35.816 86.3975 35.368C86.1628 34.92 85.8482 34.584 85.4535 34.36C85.0588 34.136 84.6375 34.024 84.1895 34.024C83.7308 34.024 83.3042 34.136 82.9095 34.36C82.5148 34.584 82.1948 34.92 81.9495 35.368C81.7042 35.816 81.5815 36.3707 81.5815 37.032C81.5815 37.6933 81.7042 38.248 81.9495 38.696C82.1948 39.144 82.5095 39.48 82.8935 39.704C83.2882 39.928 83.7095 40.04 84.1575 40.04ZM92.9062 41.192C91.9676 41.192 91.2209 40.9093 90.6663 40.344C90.1116 39.768 89.8343 38.888 89.8343 37.704V33.064H91.1783V37.56C91.1783 39.2133 91.8556 40.04 93.2103 40.04C93.9036 40.04 94.4743 39.7947 94.9223 39.304C95.3809 38.8027 95.6103 38.0933 95.6103 37.176V33.064H96.9543V41H95.7383L95.6423 39.576C95.3969 40.0773 95.0289 40.472 94.5383 40.76C94.0583 41.048 93.5143 41.192 92.9062 41.192ZM99.1665 41V33.064H100.383L100.463 34.488C100.719 33.9867 101.087 33.592 101.567 33.304C102.047 33.016 102.591 32.872 103.199 32.872C104.137 32.872 104.884 33.16 105.439 33.736C106.004 34.3013 106.286 35.176 106.286 36.36V41H104.943V36.504C104.943 34.8507 104.26 34.024 102.895 34.024C102.212 34.024 101.641 34.2747 101.183 34.776C100.735 35.2667 100.511 35.9707 100.511 36.888V41H99.1665ZM111.459 41C110.733 41 110.163 40.824 109.747 40.472C109.331 40.12 109.123 39.4853 109.123 38.568V34.2H107.747V33.064H109.123L109.299 31.16H110.467V33.064H112.803V34.2H110.467V38.568C110.467 39.0693 110.568 39.4107 110.771 39.592C110.973 39.7627 111.331 39.848 111.843 39.848H112.675V41H111.459ZM122.393 41.192C121.571 41.192 120.857 41.0427 120.249 40.744C119.641 40.4453 119.171 40.0293 118.841 39.496C118.51 38.9627 118.345 38.344 118.345 37.64H119.753C119.753 38.0773 119.854 38.4827 120.057 38.856C120.259 39.2187 120.553 39.512 120.937 39.736C121.331 39.9493 121.817 40.056 122.393 40.056C123.15 40.056 123.737 39.8747 124.153 39.512C124.569 39.1493 124.777 38.696 124.777 38.152C124.777 37.704 124.681 37.3467 124.489 37.08C124.297 36.8027 124.035 36.5787 123.705 36.408C123.385 36.2373 123.011 36.088 122.585 35.96C122.169 35.832 121.731 35.688 121.273 35.528C120.409 35.2293 119.769 34.8613 119.353 34.424C118.937 33.976 118.729 33.3947 118.729 32.68C118.718 32.0827 118.857 31.5547 119.145 31.096C119.433 30.6267 119.838 30.264 120.361 30.008C120.894 29.7413 121.523 29.608 122.249 29.608C122.963 29.608 123.582 29.7413 124.105 30.008C124.638 30.2747 125.049 30.6427 125.337 31.112C125.635 31.5813 125.79 32.1147 125.801 32.712H124.393C124.393 32.4027 124.313 32.0987 124.153 31.8C123.993 31.4907 123.747 31.24 123.417 31.048C123.097 30.856 122.691 30.76 122.201 30.76C121.593 30.7493 121.091 30.904 120.697 31.224C120.313 31.544 120.121 31.9867 120.121 32.552C120.121 33.032 120.254 33.4 120.521 33.656C120.798 33.912 121.182 34.1253 121.673 34.296C122.163 34.456 122.729 34.6427 123.369 34.856C123.902 35.048 124.382 35.272 124.809 35.528C125.235 35.784 125.566 36.1147 125.801 36.52C126.046 36.9253 126.169 37.4427 126.169 38.072C126.169 38.6053 126.03 39.112 125.753 39.592C125.475 40.0613 125.054 40.4453 124.489 40.744C123.934 41.0427 123.235 41.192 122.393 41.192ZM131.563 41.192C130.805 41.192 130.133 41.0213 129.547 40.68C128.96 40.328 128.496 39.8427 128.155 39.224C127.824 38.6053 127.659 37.8747 127.659 37.032C127.659 36.2 127.824 35.4747 128.155 34.856C128.485 34.2267 128.944 33.7413 129.531 33.4C130.128 33.048 130.816 32.872 131.595 32.872C132.363 32.872 133.024 33.048 133.579 33.4C134.144 33.7413 134.576 34.1947 134.875 34.76C135.173 35.3253 135.323 35.9333 135.323 36.584C135.323 36.7013 135.317 36.8187 135.307 36.936C135.307 37.0533 135.307 37.1867 135.307 37.336H128.987C129.019 37.944 129.157 38.4507 129.403 38.856C129.659 39.2507 129.973 39.5493 130.347 39.752C130.731 39.9547 131.136 40.056 131.563 40.056C132.117 40.056 132.581 39.928 132.955 39.672C133.328 39.416 133.6 39.0693 133.771 38.632H135.099C134.885 39.368 134.475 39.9813 133.867 40.472C133.269 40.952 132.501 41.192 131.563 41.192ZM131.563 34.008C130.923 34.008 130.352 34.2053 129.851 34.6C129.36 34.984 129.077 35.5493 129.003 36.296H133.995C133.963 35.5813 133.717 35.0213 133.259 34.616C132.8 34.2107 132.235 34.008 131.563 34.008ZM139.974 41C139.249 41 138.678 40.824 138.262 40.472C137.846 40.12 137.638 39.4853 137.638 38.568V34.2H136.262V33.064H137.638L137.814 31.16H138.982V33.064H141.318V34.2H138.982V38.568C138.982 39.0693 139.084 39.4107 139.286 39.592C139.489 39.7627 139.846 39.848 140.358 39.848H141.19V41H139.974ZM146.162 41C145.437 41 144.866 40.824 144.45 40.472C144.034 40.12 143.826 39.4853 143.826 38.568V34.2H142.45V33.064H143.826L144.002 31.16H145.17V33.064H147.506V34.2H145.17V38.568C145.17 39.0693 145.271 39.4107 145.474 39.592C145.677 39.7627 146.034 39.848 146.546 39.848H147.378V41H146.162ZM150.029 31.304C149.763 31.304 149.539 31.2187 149.357 31.048C149.187 30.8667 149.101 30.6427 149.101 30.376C149.101 30.12 149.187 29.9067 149.357 29.736C149.539 29.5653 149.763 29.48 150.029 29.48C150.285 29.48 150.504 29.5653 150.685 29.736C150.867 29.9067 150.957 30.12 150.957 30.376C150.957 30.6427 150.867 30.8667 150.685 31.048C150.504 31.2187 150.285 31.304 150.029 31.304ZM149.357 41V33.064H150.701V41H149.357ZM153.042 41V33.064H154.258L154.338 34.488C154.594 33.9867 154.962 33.592 155.442 33.304C155.922 33.016 156.466 32.872 157.074 32.872C158.012 32.872 158.759 33.16 159.314 33.736C159.879 34.3013 160.161 35.176 160.161 36.36V41H158.818V36.504C158.818 34.8507 158.135 34.024 156.77 34.024C156.087 34.024 155.516 34.2747 155.058 34.776C154.61 35.2667 154.386 35.9707 154.386 36.888V41H153.042ZM165.334 38.504C164.886 38.504 164.475 38.4453 164.102 38.328L163.302 39.08C163.419 39.1653 163.563 39.24 163.734 39.304C163.915 39.3573 164.171 39.4107 164.502 39.464C164.832 39.5067 165.296 39.5547 165.894 39.608C166.96 39.6827 167.723 39.928 168.182 40.344C168.64 40.76 168.87 41.304 168.87 41.976C168.87 42.4347 168.742 42.872 168.486 43.288C168.24 43.704 167.856 44.0453 167.334 44.312C166.822 44.5787 166.16 44.712 165.35 44.712C164.635 44.712 164 44.616 163.446 44.424C162.891 44.2427 162.459 43.96 162.15 43.576C161.84 43.2027 161.686 42.728 161.686 42.152C161.686 41.8533 161.766 41.528 161.926 41.176C162.086 40.8347 162.384 40.5093 162.822 40.2C162.587 40.104 162.384 40.0027 162.214 39.896C162.054 39.7787 161.904 39.6507 161.766 39.512V39.144L163.126 37.8C162.496 37.2667 162.182 36.5627 162.182 35.688C162.182 35.1653 162.304 34.6907 162.55 34.264C162.795 33.8373 163.152 33.5013 163.622 33.256C164.091 33 164.662 32.872 165.334 32.872C165.792 32.872 166.208 32.936 166.582 33.064H169.51V34.072L168.022 34.136C168.331 34.584 168.486 35.1013 168.486 35.688C168.486 36.2107 168.358 36.6853 168.102 37.112C167.856 37.5387 167.499 37.88 167.03 38.136C166.571 38.3813 166.006 38.504 165.334 38.504ZM165.334 37.4C165.899 37.4 166.347 37.256 166.678 36.968C167.019 36.6693 167.19 36.2427 167.19 35.688C167.19 35.144 167.019 34.728 166.678 34.44C166.347 34.1413 165.899 33.992 165.334 33.992C164.758 33.992 164.299 34.1413 163.958 34.44C163.627 34.728 163.462 35.144 163.462 35.688C163.462 36.2427 163.627 36.6693 163.958 36.968C164.299 37.256 164.758 37.4 165.334 37.4ZM162.998 42.024C162.998 42.5573 163.222 42.952 163.67 43.208C164.118 43.4747 164.678 43.608 165.35 43.608C166.011 43.608 166.539 43.464 166.934 43.176C167.339 42.888 167.542 42.504 167.542 42.024C167.542 41.6827 167.403 41.384 167.126 41.128C166.848 40.8827 166.336 40.7387 165.59 40.696C165.003 40.6533 164.496 40.6 164.07 40.536C163.632 40.7707 163.344 41.0213 163.206 41.288C163.067 41.5653 162.998 41.8107 162.998 42.024ZM174.066 41.192C173.117 41.192 172.327 40.952 171.698 40.472C171.069 39.992 170.701 39.3413 170.594 38.52H171.97C172.055 38.936 172.274 39.2987 172.626 39.608C172.989 39.9067 173.474 40.056 174.082 40.056C174.647 40.056 175.063 39.9387 175.33 39.704C175.597 39.4587 175.73 39.1707 175.73 38.84C175.73 38.36 175.554 38.04 175.202 37.88C174.861 37.72 174.375 37.576 173.746 37.448C173.319 37.3627 172.893 37.24 172.466 37.08C172.039 36.92 171.682 36.696 171.394 36.408C171.106 36.1093 170.962 35.72 170.962 35.24C170.962 34.5467 171.218 33.9813 171.73 33.544C172.253 33.096 172.957 32.872 173.842 32.872C174.685 32.872 175.373 33.0853 175.906 33.512C176.45 33.928 176.765 34.5253 176.85 35.304H175.522C175.469 34.8987 175.293 34.584 174.994 34.36C174.706 34.1253 174.317 34.008 173.826 34.008C173.346 34.008 172.973 34.1093 172.706 34.312C172.45 34.5147 172.322 34.7813 172.322 35.112C172.322 35.432 172.487 35.6827 172.818 35.864C173.159 36.0453 173.618 36.2 174.194 36.328C174.685 36.4347 175.149 36.568 175.586 36.728C176.034 36.8773 176.397 37.1067 176.674 37.416C176.962 37.7147 177.106 38.152 177.106 38.728C177.117 39.4427 176.845 40.0347 176.29 40.504C175.746 40.9627 175.005 41.192 174.066 41.192Z" fill="black"/>
<path fill-rule="evenodd" clip-rule="evenodd" d="M24 31C24 29.9391 24.4214 28.9217 25.1716 28.1716C25.9217 27.4214 26.9391 27 28 27C29.0609 27 30.0783 27.4214 30.8284 28.1716C31.5786 28.9217 32 29.9391 32 31C32 32.0609 31.5786 33.0783 30.8284 33.8284C30.0783 34.5786 29.0609 35 28 35C26.9391 35 25.9217 34.5786 25.1716 33.8284C24.4214 33.0783 24 32.0609 24 31ZM24 37C22.6739 37 21.4021 37.5268 20.4645 38.4645C19.5268 39.4021 19 40.6739 19 42C19 42.7956 19.3161 43.5587 19.8787 44.1213C20.4413 44.6839 21.2044 45 22 45H34C34.7956 45 35.5587 44.6839 36.1213 44.1213C36.6839 43.5587 37 42.7956 37 42C37 40.6739 36.4732 39.4021 35.5355 38.4645C34.5979 37.5268 33.3261 37 32 37H24Z" fill="black"/>
</svg>
