<svg width="305" height="81" viewBox="0 0 305 81" fill="none" xmlns="http://www.w3.org/2000/svg">
<path d="M27.4106 76V64.8H31.0906C31.9652 64.8 32.6852 64.944 33.2506 65.232C33.8159 65.52 34.2319 65.9093 34.4986 66.4C34.7759 66.8907 34.9146 67.4453 34.9146 68.064C34.9146 68.672 34.7812 69.2213 34.5146 69.712C34.2479 70.2027 33.8319 70.5973 33.2666 70.896C32.7012 71.184 31.9759 71.328 31.0906 71.328H28.7546V76H27.4106ZM28.7546 70.192H31.0586C31.9546 70.192 32.5892 70.0053 32.9626 69.632C33.3466 69.248 33.5386 68.7253 33.5386 68.064C33.5386 67.392 33.3466 66.8693 32.9626 66.496C32.5892 66.112 31.9546 65.92 31.0586 65.92H28.7546V70.192ZM39.7434 76.192C38.9968 76.192 38.3248 76.0213 37.7274 75.68C37.1301 75.3387 36.6554 74.8587 36.3034 74.24C35.9621 73.6107 35.7914 72.8747 35.7914 72.032C35.7914 71.1893 35.9674 70.4587 36.3194 69.84C36.6714 69.2107 37.1461 68.7253 37.7434 68.384C38.3514 68.0427 39.0288 67.872 39.7754 67.872C40.5221 67.872 41.1941 68.0427 41.7914 68.384C42.3888 68.7253 42.8581 69.2107 43.1994 69.84C43.5514 70.4587 43.7274 71.1893 43.7274 72.032C43.7274 72.8747 43.5514 73.6107 43.1994 74.24C42.8474 74.8587 42.3674 75.3387 41.7594 75.68C41.1621 76.0213 40.4901 76.192 39.7434 76.192ZM39.7434 75.04C40.2021 75.04 40.6288 74.928 41.0234 74.704C41.4181 74.48 41.7381 74.144 41.9834 73.696C42.2288 73.248 42.3514 72.6933 42.3514 72.032C42.3514 71.3707 42.2288 70.816 41.9834 70.368C41.7488 69.92 41.4341 69.584 41.0394 69.36C40.6448 69.136 40.2234 69.024 39.7754 69.024C39.3168 69.024 38.8901 69.136 38.4954 69.36C38.1008 69.584 37.7808 69.92 37.5354 70.368C37.2901 70.816 37.1674 71.3707 37.1674 72.032C37.1674 72.6933 37.2901 73.248 37.5354 73.696C37.7808 74.144 38.0954 74.48 38.4794 74.704C38.8741 74.928 39.2954 75.04 39.7434 75.04ZM49.2122 76.192C48.4655 76.192 47.7935 76.0213 47.1962 75.68C46.5989 75.3387 46.1242 74.8587 45.7722 74.24C45.4309 73.6107 45.2602 72.8747 45.2602 72.032C45.2602 71.1893 45.4362 70.4587 45.7882 69.84C46.1402 69.2107 46.6149 68.7253 47.2122 68.384C47.8202 68.0427 48.4975 67.872 49.2442 67.872C49.9909 67.872 50.6629 68.0427 51.2602 68.384C51.8575 68.7253 52.3269 69.2107 52.6682 69.84C53.0202 70.4587 53.1962 71.1893 53.1962 72.032C53.1962 72.8747 53.0202 73.6107 52.6682 74.24C52.3162 74.8587 51.8362 75.3387 51.2282 75.68C50.6309 76.0213 49.9589 76.192 49.2122 76.192ZM49.2122 75.04C49.6709 75.04 50.0975 74.928 50.4922 74.704C50.8869 74.48 51.2069 74.144 51.4522 73.696C51.6975 73.248 51.8202 72.6933 51.8202 72.032C51.8202 71.3707 51.6975 70.816 51.4522 70.368C51.2175 69.92 50.9029 69.584 50.5082 69.36C50.1135 69.136 49.6922 69.024 49.2442 69.024C48.7855 69.024 48.3589 69.136 47.9642 69.36C47.5695 69.584 47.2495 69.92 47.0042 70.368C46.7589 70.816 46.6362 71.3707 46.6362 72.032C46.6362 72.6933 46.7589 73.248 47.0042 73.696C47.2495 74.144 47.5642 74.48 47.9482 74.704C48.3429 74.928 48.7642 75.04 49.2122 75.04ZM55.0649 76V68.064H56.2809L56.3929 69.584C56.6383 69.0613 57.0116 68.6453 57.5129 68.336C58.0143 68.0267 58.6329 67.872 59.3689 67.872V69.28H59.0009C58.5316 69.28 58.0996 69.3653 57.7049 69.536C57.3103 69.696 56.9956 69.9733 56.7609 70.368C56.5263 70.7627 56.4089 71.3067 56.4089 72V76H55.0649Z" fill="black"/>
<path d="M121.503 76L125.631 64.8H127.055L131.167 76H129.743L128.719 73.12H123.951L122.911 76H121.503ZM124.351 72.032H128.319L126.335 66.496L124.351 72.032ZM134.228 76L131.22 68.064H132.628L135.012 74.704L137.412 68.064H138.788L135.78 76H134.228ZM143.445 76.192C142.688 76.192 142.016 76.0213 141.429 75.68C140.843 75.328 140.379 74.8427 140.037 74.224C139.707 73.6053 139.541 72.8747 139.541 72.032C139.541 71.2 139.707 70.4747 140.037 69.856C140.368 69.2267 140.827 68.7413 141.413 68.4C142.011 68.048 142.699 67.872 143.477 67.872C144.245 67.872 144.907 68.048 145.461 68.4C146.027 68.7413 146.459 69.1947 146.757 69.76C147.056 70.3253 147.205 70.9333 147.205 71.584C147.205 71.7013 147.2 71.8187 147.189 71.936C147.189 72.0533 147.189 72.1867 147.189 72.336H140.869C140.901 72.944 141.04 73.4507 141.285 73.856C141.541 74.2507 141.856 74.5493 142.229 74.752C142.613 74.9547 143.019 75.056 143.445 75.056C144 75.056 144.464 74.928 144.837 74.672C145.211 74.416 145.483 74.0693 145.653 73.632H146.981C146.768 74.368 146.357 74.9813 145.749 75.472C145.152 75.952 144.384 76.192 143.445 76.192ZM143.445 69.008C142.805 69.008 142.235 69.2053 141.733 69.6C141.243 69.984 140.96 70.5493 140.885 71.296H145.877C145.845 70.5813 145.6 70.0213 145.141 69.616C144.683 69.2107 144.117 69.008 143.445 69.008ZM148.987 76V68.064H150.203L150.315 69.584C150.56 69.0613 150.933 68.6453 151.435 68.336C151.936 68.0267 152.555 67.872 153.291 67.872V69.28H152.923C152.453 69.28 152.021 69.3653 151.627 69.536C151.232 69.696 150.917 69.9733 150.683 70.368C150.448 70.7627 150.331 71.3067 150.331 72V76H148.987ZM157.439 76.192C156.778 76.192 156.229 76.08 155.791 75.856C155.354 75.632 155.029 75.3333 154.815 74.96C154.602 74.5867 154.495 74.1813 154.495 73.744C154.495 72.9333 154.805 72.3093 155.423 71.872C156.042 71.4347 156.885 71.216 157.951 71.216H160.095V71.12C160.095 70.4267 159.914 69.904 159.551 69.552C159.189 69.1893 158.703 69.008 158.095 69.008C157.573 69.008 157.119 69.1413 156.735 69.408C156.362 69.664 156.127 70.0427 156.031 70.544H154.655C154.709 69.968 154.901 69.4827 155.231 69.088C155.573 68.6933 155.994 68.3947 156.495 68.192C156.997 67.9787 157.53 67.872 158.095 67.872C159.205 67.872 160.037 68.1707 160.591 68.768C161.157 69.3547 161.439 70.1387 161.439 71.12V76H160.239L160.159 74.576C159.935 75.024 159.605 75.408 159.167 75.728C158.741 76.0373 158.165 76.192 157.439 76.192ZM157.647 75.056C158.159 75.056 158.597 74.9227 158.959 74.656C159.333 74.3893 159.615 74.0427 159.807 73.616C159.999 73.1893 160.095 72.7413 160.095 72.272V72.256H158.063C157.274 72.256 156.714 72.3947 156.383 72.672C156.063 72.9387 155.903 73.2747 155.903 73.68C155.903 74.096 156.053 74.432 156.351 74.688C156.661 74.9333 157.093 75.056 157.647 75.056ZM166.592 73.504C166.144 73.504 165.733 73.4453 165.36 73.328L164.56 74.08C164.677 74.1653 164.821 74.24 164.992 74.304C165.173 74.3573 165.429 74.4107 165.76 74.464C166.09 74.5067 166.554 74.5547 167.152 74.608C168.218 74.6827 168.981 74.928 169.44 75.344C169.898 75.76 170.128 76.304 170.128 76.976C170.128 77.4347 170 77.872 169.744 78.288C169.498 78.704 169.114 79.0453 168.592 79.312C168.08 79.5787 167.418 79.712 166.608 79.712C165.893 79.712 165.258 79.616 164.704 79.424C164.149 79.2427 163.717 78.96 163.408 78.576C163.098 78.2027 162.944 77.728 162.944 77.152C162.944 76.8533 163.024 76.528 163.184 76.176C163.344 75.8347 163.642 75.5093 164.08 75.2C163.845 75.104 163.642 75.0027 163.472 74.896C163.312 74.7787 163.162 74.6507 163.024 74.512V74.144L164.384 72.8C163.754 72.2667 163.44 71.5627 163.44 70.688C163.44 70.1653 163.562 69.6907 163.808 69.264C164.053 68.8373 164.41 68.5013 164.88 68.256C165.349 68 165.92 67.872 166.592 67.872C167.05 67.872 167.466 67.936 167.84 68.064H170.768V69.072L169.28 69.136C169.589 69.584 169.744 70.1013 169.744 70.688C169.744 71.2107 169.616 71.6853 169.36 72.112C169.114 72.5387 168.757 72.88 168.288 73.136C167.829 73.3813 167.264 73.504 166.592 73.504ZM166.592 72.4C167.157 72.4 167.605 72.256 167.936 71.968C168.277 71.6693 168.448 71.2427 168.448 70.688C168.448 70.144 168.277 69.728 167.936 69.44C167.605 69.1413 167.157 68.992 166.592 68.992C166.016 68.992 165.557 69.1413 165.216 69.44C164.885 69.728 164.72 70.144 164.72 70.688C164.72 71.2427 164.885 71.6693 165.216 71.968C165.557 72.256 166.016 72.4 166.592 72.4ZM164.256 77.024C164.256 77.5573 164.48 77.952 164.928 78.208C165.376 78.4747 165.936 78.608 166.608 78.608C167.269 78.608 167.797 78.464 168.192 78.176C168.597 77.888 168.8 77.504 168.8 77.024C168.8 76.6827 168.661 76.384 168.384 76.128C168.106 75.8827 167.594 75.7387 166.848 75.696C166.261 75.6533 165.754 75.6 165.328 75.536C164.89 75.7707 164.602 76.0213 164.464 76.288C164.325 76.5653 164.256 76.8107 164.256 77.024ZM175.539 76.192C174.782 76.192 174.11 76.0213 173.523 75.68C172.937 75.328 172.473 74.8427 172.131 74.224C171.801 73.6053 171.635 72.8747 171.635 72.032C171.635 71.2 171.801 70.4747 172.131 69.856C172.462 69.2267 172.921 68.7413 173.507 68.4C174.105 68.048 174.793 67.872 175.571 67.872C176.339 67.872 177.001 68.048 177.555 68.4C178.121 68.7413 178.553 69.1947 178.851 69.76C179.15 70.3253 179.299 70.9333 179.299 71.584C179.299 71.7013 179.294 71.8187 179.283 71.936C179.283 72.0533 179.283 72.1867 179.283 72.336H172.963C172.995 72.944 173.134 73.4507 173.379 73.856C173.635 74.2507 173.95 74.5493 174.323 74.752C174.707 74.9547 175.113 75.056 175.539 75.056C176.094 75.056 176.558 74.928 176.931 74.672C177.305 74.416 177.577 74.0693 177.747 73.632H179.075C178.862 74.368 178.451 74.9813 177.843 75.472C177.246 75.952 176.478 76.192 175.539 76.192ZM175.539 69.008C174.899 69.008 174.329 69.2053 173.827 69.6C173.337 69.984 173.054 70.5493 172.979 71.296H177.971C177.939 70.5813 177.694 70.0213 177.235 69.616C176.777 69.2107 176.211 69.008 175.539 69.008Z" fill="black"/>
<path d="M245.32 76.192C244.275 76.192 243.358 75.952 242.568 75.472C241.779 74.9813 241.166 74.304 240.728 73.44C240.291 72.5653 240.072 71.5573 240.072 70.416C240.072 69.2747 240.291 68.2667 240.728 67.392C241.176 66.5173 241.806 65.8347 242.616 65.344C243.438 64.8533 244.403 64.608 245.512 64.608C246.771 64.608 247.816 64.912 248.648 65.52C249.491 66.128 250.035 66.9653 250.28 68.032H248.728C248.579 67.36 248.222 66.8267 247.656 66.432C247.102 66.0373 246.387 65.84 245.512 65.84C244.691 65.84 243.976 66.0267 243.368 66.4C242.76 66.7627 242.286 67.2853 241.944 67.968C241.614 68.6507 241.448 69.4667 241.448 70.416C241.448 71.3653 241.614 72.1813 241.944 72.864C242.275 73.5467 242.734 74.0747 243.32 74.448C243.907 74.8107 244.59 74.992 245.368 74.992C246.563 74.992 247.464 74.6453 248.072 73.952C248.68 73.248 249.027 72.288 249.112 71.072H245.88V70.016H250.488V76H249.256L249.144 74.16C248.739 74.8107 248.243 75.312 247.656 75.664C247.07 76.016 246.291 76.192 245.32 76.192ZM252.534 76V68.064H253.75L253.862 69.584C254.107 69.0613 254.48 68.6453 254.982 68.336C255.483 68.0267 256.102 67.872 256.838 67.872V69.28H256.47C256 69.28 255.568 69.3653 255.174 69.536C254.779 69.696 254.464 69.9733 254.23 70.368C253.995 70.7627 253.878 71.3067 253.878 72V76H252.534ZM261.617 76.192C260.86 76.192 260.188 76.0213 259.601 75.68C259.015 75.328 258.551 74.8427 258.209 74.224C257.879 73.6053 257.713 72.8747 257.713 72.032C257.713 71.2 257.879 70.4747 258.209 69.856C258.54 69.2267 258.999 68.7413 259.585 68.4C260.183 68.048 260.871 67.872 261.649 67.872C262.417 67.872 263.079 68.048 263.633 68.4C264.199 68.7413 264.631 69.1947 264.929 69.76C265.228 70.3253 265.377 70.9333 265.377 71.584C265.377 71.7013 265.372 71.8187 265.361 71.936C265.361 72.0533 265.361 72.1867 265.361 72.336H259.041C259.073 72.944 259.212 73.4507 259.457 73.856C259.713 74.2507 260.028 74.5493 260.401 74.752C260.785 74.9547 261.191 75.056 261.617 75.056C262.172 75.056 262.636 74.928 263.009 74.672C263.383 74.416 263.655 74.0693 263.825 73.632H265.153C264.94 74.368 264.529 74.9813 263.921 75.472C263.324 75.952 262.556 76.192 261.617 76.192ZM261.617 69.008C260.977 69.008 260.407 69.2053 259.905 69.6C259.415 69.984 259.132 70.5493 259.057 71.296H264.049C264.017 70.5813 263.772 70.0213 263.313 69.616C262.855 69.2107 262.289 69.008 261.617 69.008ZM269.799 76.192C269.137 76.192 268.588 76.08 268.151 75.856C267.713 75.632 267.388 75.3333 267.175 74.96C266.961 74.5867 266.855 74.1813 266.855 73.744C266.855 72.9333 267.164 72.3093 267.783 71.872C268.401 71.4347 269.244 71.216 270.311 71.216H272.455V71.12C272.455 70.4267 272.273 69.904 271.911 69.552C271.548 69.1893 271.063 69.008 270.455 69.008C269.932 69.008 269.479 69.1413 269.095 69.408C268.721 69.664 268.487 70.0427 268.391 70.544H267.015C267.068 69.968 267.26 69.4827 267.591 69.088C267.932 68.6933 268.353 68.3947 268.855 68.192C269.356 67.9787 269.889 67.872 270.455 67.872C271.564 67.872 272.396 68.1707 272.951 68.768C273.516 69.3547 273.799 70.1387 273.799 71.12V76H272.599L272.519 74.576C272.295 75.024 271.964 75.408 271.527 75.728C271.1 76.0373 270.524 76.192 269.799 76.192ZM270.007 75.056C270.519 75.056 270.956 74.9227 271.319 74.656C271.692 74.3893 271.975 74.0427 272.167 73.616C272.359 73.1893 272.455 72.7413 272.455 72.272V72.256H270.423C269.633 72.256 269.073 72.3947 268.743 72.672C268.423 72.9387 268.263 73.2747 268.263 73.68C268.263 74.096 268.412 74.432 268.711 74.688C269.02 74.9333 269.452 75.056 270.007 75.056ZM278.732 76C278.007 76 277.436 75.824 277.02 75.472C276.604 75.12 276.396 74.4853 276.396 73.568V69.2H275.02V68.064H276.396L276.572 66.16H277.74V68.064H280.076V69.2H277.74V73.568C277.74 74.0693 277.842 74.4107 278.044 74.592C278.247 74.7627 278.604 74.848 279.116 74.848H279.948V76H278.732Z" fill="black"/>
<rect x="30" y="22" width="249" height="8" rx="4" fill="#D9D9D9"/>
<circle cx="279" cy="26" r="26" fill="#9DB580"/>
<path d="M278.645 40C276.615 40 274.712 39.6133 272.936 38.84C271.159 38.0667 269.613 37.0215 268.296 35.7044C266.979 34.3873 265.933 32.8406 265.16 31.0644C264.387 29.2881 264 27.385 264 25.355C264 21.8267 265.124 18.7152 267.371 16.0206C269.619 13.326 272.483 11.6525 275.963 11C275.528 13.3925 275.66 15.7306 276.361 18.0144C277.062 20.2981 278.27 22.2979 279.986 24.0138C281.702 25.7296 283.702 26.9379 285.986 27.6388C288.269 28.3396 290.608 28.4725 293 28.0375C292.372 31.5175 290.704 34.3813 287.998 36.6288C285.291 38.8763 282.173 40 278.645 40ZM278.645 37.1C280.772 37.1 282.741 36.5683 284.554 35.505C286.366 34.4417 287.792 32.9796 288.831 31.1188C286.753 30.9254 284.783 30.3998 282.923 29.5419C281.062 28.684 279.394 27.5179 277.92 26.0438C276.446 24.5696 275.274 22.9021 274.404 21.0413C273.534 19.1804 273.014 17.2108 272.845 15.1325C270.984 16.1717 269.528 17.6035 268.477 19.4281C267.426 21.2527 266.9 23.2283 266.9 25.355C266.9 28.6175 268.042 31.3906 270.326 33.6744C272.609 35.9581 275.383 37.1 278.645 37.1Z" fill="#1C1B1F"/>
</svg>
