<svg width="315" height="81" viewBox="0 0 315 81" fill="none" xmlns="http://www.w3.org/2000/svg">
<path d="M1.26994 76V64.8H2.61394L8.58194 73.776V64.8H9.92594V76H8.58194L2.61394 67.024V76H1.26994ZM15.8372 76.192C15.0905 76.192 14.4185 76.0213 13.8212 75.68C13.2239 75.3387 12.7492 74.8587 12.3972 74.24C12.0559 73.6107 11.8852 72.8747 11.8852 72.032C11.8852 71.1893 12.0612 70.4587 12.4132 69.84C12.7652 69.2107 13.2399 68.7253 13.8372 68.384C14.4452 68.0427 15.1225 67.872 15.8692 67.872C16.6159 67.872 17.2879 68.0427 17.8852 68.384C18.4825 68.7253 18.9519 69.2107 19.2932 69.84C19.6452 70.4587 19.8212 71.1893 19.8212 72.032C19.8212 72.8747 19.6452 73.6107 19.2932 74.24C18.9412 74.8587 18.4612 75.3387 17.8532 75.68C17.2559 76.0213 16.5839 76.192 15.8372 76.192ZM15.8372 75.04C16.2959 75.04 16.7225 74.928 17.1172 74.704C17.5119 74.48 17.8319 74.144 18.0772 73.696C18.3225 73.248 18.4452 72.6933 18.4452 72.032C18.4452 71.3707 18.3225 70.816 18.0772 70.368C17.8425 69.92 17.5279 69.584 17.1332 69.36C16.7385 69.136 16.3172 69.024 15.8692 69.024C15.4105 69.024 14.9839 69.136 14.5892 69.36C14.1945 69.584 13.8745 69.92 13.6292 70.368C13.3839 70.816 13.2612 71.3707 13.2612 72.032C13.2612 72.6933 13.3839 73.248 13.6292 73.696C13.8745 74.144 14.1892 74.48 14.5732 74.704C14.9679 74.928 15.3892 75.04 15.8372 75.04ZM24.5134 76C23.7881 76 23.2174 75.824 22.8014 75.472C22.3854 75.12 22.1774 74.4853 22.1774 73.568V69.2H20.8014V68.064H22.1774L22.3534 66.16H23.5214V68.064H25.8574V69.2H23.5214V73.568C23.5214 74.0693 23.6228 74.4107 23.8254 74.592C24.0281 74.7627 24.3854 74.848 24.8974 74.848H25.7294V76H24.5134ZM35.4473 76.192C34.626 76.192 33.9113 76.0427 33.3033 75.744C32.6953 75.4453 32.226 75.0293 31.8953 74.496C31.5646 73.9627 31.3993 73.344 31.3993 72.64H32.8073C32.8073 73.0773 32.9086 73.4827 33.1113 73.856C33.314 74.2187 33.6073 74.512 33.9913 74.736C34.386 74.9493 34.8713 75.056 35.4473 75.056C36.2046 75.056 36.7913 74.8747 37.2073 74.512C37.6233 74.1493 37.8313 73.696 37.8313 73.152C37.8313 72.704 37.7353 72.3467 37.5433 72.08C37.3513 71.8027 37.09 71.5787 36.7593 71.408C36.4393 71.2373 36.066 71.088 35.6393 70.96C35.2233 70.832 34.786 70.688 34.3273 70.528C33.4633 70.2293 32.8233 69.8613 32.4073 69.424C31.9913 68.976 31.7833 68.3947 31.7833 67.68C31.7726 67.0827 31.9113 66.5547 32.1993 66.096C32.4873 65.6267 32.8926 65.264 33.4153 65.008C33.9486 64.7413 34.578 64.608 35.3033 64.608C36.018 64.608 36.6366 64.7413 37.1593 65.008C37.6926 65.2747 38.1033 65.6427 38.3913 66.112C38.69 66.5813 38.8446 67.1147 38.8553 67.712H37.4473C37.4473 67.4027 37.3673 67.0987 37.2073 66.8C37.0473 66.4907 36.802 66.24 36.4713 66.048C36.1513 65.856 35.746 65.76 35.2553 65.76C34.6473 65.7493 34.146 65.904 33.7513 66.224C33.3673 66.544 33.1753 66.9867 33.1753 67.552C33.1753 68.032 33.3086 68.4 33.5753 68.656C33.8526 68.912 34.2366 69.1253 34.7273 69.296C35.218 69.456 35.7833 69.6427 36.4233 69.856C36.9566 70.048 37.4366 70.272 37.8633 70.528C38.29 70.784 38.6206 71.1147 38.8553 71.52C39.1006 71.9253 39.2233 72.4427 39.2233 73.072C39.2233 73.6053 39.0846 74.112 38.8073 74.592C38.53 75.0613 38.1086 75.4453 37.5433 75.744C36.9886 76.0427 36.29 76.192 35.4473 76.192ZM44.1853 76C43.46 76 42.8893 75.824 42.4733 75.472C42.0573 75.12 41.8493 74.4853 41.8493 73.568V69.2H40.4733V68.064H41.8493L42.0253 66.16H43.1933V68.064H45.5293V69.2H43.1933V73.568C43.1933 74.0693 43.2946 74.4107 43.4973 74.592C43.7 74.7627 44.0573 74.848 44.5693 74.848H45.4013V76H44.1853ZM47.2368 76V68.064H48.4528L48.5648 69.584C48.8101 69.0613 49.1835 68.6453 49.6848 68.336C50.1861 68.0267 50.8048 67.872 51.5408 67.872V69.28H51.1728C50.7035 69.28 50.2715 69.3653 49.8768 69.536C49.4821 69.696 49.1675 69.9733 48.9328 70.368C48.6981 70.7627 48.5808 71.3067 48.5808 72V76H47.2368ZM56.3204 76.192C55.5631 76.192 54.8911 76.0213 54.3044 75.68C53.7178 75.328 53.2538 74.8427 52.9124 74.224C52.5818 73.6053 52.4164 72.8747 52.4164 72.032C52.4164 71.2 52.5818 70.4747 52.9124 69.856C53.2431 69.2267 53.7018 68.7413 54.2884 68.4C54.8858 68.048 55.5738 67.872 56.3524 67.872C57.1204 67.872 57.7818 68.048 58.3364 68.4C58.9018 68.7413 59.3338 69.1947 59.6324 69.76C59.9311 70.3253 60.0804 70.9333 60.0804 71.584C60.0804 71.7013 60.0751 71.8187 60.0644 71.936C60.0644 72.0533 60.0644 72.1867 60.0644 72.336H53.7444C53.7764 72.944 53.9151 73.4507 54.1604 73.856C54.4164 74.2507 54.7311 74.5493 55.1044 74.752C55.4884 74.9547 55.8938 75.056 56.3204 75.056C56.8751 75.056 57.3391 74.928 57.7124 74.672C58.0858 74.416 58.3578 74.0693 58.5284 73.632H59.8564C59.6431 74.368 59.2324 74.9813 58.6244 75.472C58.0271 75.952 57.2591 76.192 56.3204 76.192ZM56.3204 69.008C55.6804 69.008 55.1098 69.2053 54.6084 69.6C54.1178 69.984 53.8351 70.5493 53.7604 71.296H58.7524C58.7204 70.5813 58.4751 70.0213 58.0164 69.616C57.5578 69.2107 56.9924 69.008 56.3204 69.008ZM64.9018 76.192C63.9525 76.192 63.1631 75.952 62.5338 75.472C61.9045 74.992 61.5365 74.3413 61.4298 73.52H62.8058C62.8911 73.936 63.1098 74.2987 63.4618 74.608C63.8245 74.9067 64.3098 75.056 64.9178 75.056C65.4831 75.056 65.8991 74.9387 66.1658 74.704C66.4325 74.4587 66.5658 74.1707 66.5658 73.84C66.5658 73.36 66.3898 73.04 66.0378 72.88C65.6965 72.72 65.2111 72.576 64.5818 72.448C64.1551 72.3627 63.7285 72.24 63.3018 72.08C62.8751 71.92 62.5178 71.696 62.2298 71.408C61.9418 71.1093 61.7978 70.72 61.7978 70.24C61.7978 69.5467 62.0538 68.9813 62.5658 68.544C63.0885 68.096 63.7925 67.872 64.6778 67.872C65.5205 67.872 66.2085 68.0853 66.7418 68.512C67.2858 68.928 67.6005 69.5253 67.6858 70.304H66.3578C66.3045 69.8987 66.1285 69.584 65.8298 69.36C65.5418 69.1253 65.1525 69.008 64.6618 69.008C64.1818 69.008 63.8085 69.1093 63.5418 69.312C63.2858 69.5147 63.1578 69.7813 63.1578 70.112C63.1578 70.432 63.3231 70.6827 63.6538 70.864C63.9951 71.0453 64.4538 71.2 65.0298 71.328C65.5205 71.4347 65.9845 71.568 66.4218 71.728C66.8698 71.8773 67.2325 72.1067 67.5098 72.416C67.7978 72.7147 67.9418 73.152 67.9418 73.728C67.9525 74.4427 67.6805 75.0347 67.1258 75.504C66.5818 75.9627 65.8405 76.192 64.9018 76.192ZM72.9018 76.192C71.9525 76.192 71.1631 75.952 70.5338 75.472C69.9045 74.992 69.5365 74.3413 69.4298 73.52H70.8058C70.8911 73.936 71.1098 74.2987 71.4618 74.608C71.8245 74.9067 72.3098 75.056 72.9178 75.056C73.4831 75.056 73.8991 74.9387 74.1658 74.704C74.4325 74.4587 74.5658 74.1707 74.5658 73.84C74.5658 73.36 74.3898 73.04 74.0378 72.88C73.6965 72.72 73.2111 72.576 72.5818 72.448C72.1551 72.3627 71.7285 72.24 71.3018 72.08C70.8751 71.92 70.5178 71.696 70.2298 71.408C69.9418 71.1093 69.7978 70.72 69.7978 70.24C69.7978 69.5467 70.0538 68.9813 70.5658 68.544C71.0885 68.096 71.7925 67.872 72.6778 67.872C73.5205 67.872 74.2085 68.0853 74.7418 68.512C75.2858 68.928 75.6005 69.5253 75.6858 70.304H74.3578C74.3045 69.8987 74.1285 69.584 73.8298 69.36C73.5418 69.1253 73.1525 69.008 72.6618 69.008C72.1818 69.008 71.8085 69.1093 71.5418 69.312C71.2858 69.5147 71.1578 69.7813 71.1578 70.112C71.1578 70.432 71.3231 70.6827 71.6538 70.864C71.9951 71.0453 72.4538 71.2 73.0298 71.328C73.5205 71.4347 73.9845 71.568 74.4218 71.728C74.8698 71.8773 75.2325 72.1067 75.5098 72.416C75.7978 72.7147 75.9418 73.152 75.9418 73.728C75.9525 74.4427 75.6805 75.0347 75.1258 75.504C74.5818 75.9627 73.8405 76.192 72.9018 76.192ZM81.4298 76.192C80.6725 76.192 80.0005 76.0213 79.4138 75.68C78.8271 75.328 78.3631 74.8427 78.0218 74.224C77.6911 73.6053 77.5258 72.8747 77.5258 72.032C77.5258 71.2 77.6911 70.4747 78.0218 69.856C78.3525 69.2267 78.8111 68.7413 79.3978 68.4C79.9951 68.048 80.6831 67.872 81.4618 67.872C82.2298 67.872 82.8911 68.048 83.4458 68.4C84.0111 68.7413 84.4431 69.1947 84.7418 69.76C85.0405 70.3253 85.1898 70.9333 85.1898 71.584C85.1898 71.7013 85.1845 71.8187 85.1738 71.936C85.1738 72.0533 85.1738 72.1867 85.1738 72.336H78.8538C78.8858 72.944 79.0245 73.4507 79.2698 73.856C79.5258 74.2507 79.8405 74.5493 80.2138 74.752C80.5978 74.9547 81.0031 75.056 81.4298 75.056C81.9845 75.056 82.4485 74.928 82.8218 74.672C83.1951 74.416 83.4671 74.0693 83.6378 73.632H84.9658C84.7525 74.368 84.3418 74.9813 83.7338 75.472C83.1365 75.952 82.3685 76.192 81.4298 76.192ZM81.4298 69.008C80.7898 69.008 80.2191 69.2053 79.7178 69.6C79.2271 69.984 78.9445 70.5493 78.8698 71.296H83.8618C83.8298 70.5813 83.5845 70.0213 83.1258 69.616C82.6671 69.2107 82.1018 69.008 81.4298 69.008ZM90.5712 76.192C89.7819 76.192 89.0885 76.0107 88.4912 75.648C87.9045 75.2853 87.4459 74.7893 87.1152 74.16C86.7952 73.5307 86.6352 72.816 86.6352 72.016C86.6352 71.216 86.8005 70.5067 87.1312 69.888C87.4619 69.2587 87.9205 68.768 88.5072 68.416C89.0939 68.0533 89.7872 67.872 90.5872 67.872C91.2379 67.872 91.8139 68.0053 92.3152 68.272C92.8165 68.5387 93.2059 68.912 93.4832 69.392V64.48H94.8272V76H93.6112L93.4832 74.688C93.2272 75.072 92.8592 75.4187 92.3792 75.728C91.8992 76.0373 91.2965 76.192 90.5712 76.192ZM90.7152 75.024C91.2485 75.024 91.7179 74.9013 92.1232 74.656C92.5392 74.4 92.8592 74.048 93.0832 73.6C93.3179 73.152 93.4352 72.6293 93.4352 72.032C93.4352 71.4347 93.3179 70.912 93.0832 70.464C92.8592 70.016 92.5392 69.6693 92.1232 69.424C91.7179 69.168 91.2485 69.04 90.7152 69.04C90.1925 69.04 89.7232 69.168 89.3072 69.424C88.9019 69.6693 88.5819 70.016 88.3472 70.464C88.1232 70.912 88.0112 71.4347 88.0112 72.032C88.0112 72.6293 88.1232 73.152 88.3472 73.6C88.5819 74.048 88.9019 74.4 89.3072 74.656C89.7232 74.9013 90.1925 75.024 90.7152 75.024Z" fill="black"/>
<path d="M143.503 76L147.631 64.8H149.055L153.167 76H151.743L150.719 73.12H145.951L144.911 76H143.503ZM146.351 72.032H150.319L148.335 66.496L146.351 72.032ZM156.228 76L153.22 68.064H154.628L157.012 74.704L159.412 68.064H160.788L157.78 76H156.228ZM165.445 76.192C164.688 76.192 164.016 76.0213 163.429 75.68C162.843 75.328 162.379 74.8427 162.037 74.224C161.707 73.6053 161.541 72.8747 161.541 72.032C161.541 71.2 161.707 70.4747 162.037 69.856C162.368 69.2267 162.827 68.7413 163.413 68.4C164.011 68.048 164.699 67.872 165.477 67.872C166.245 67.872 166.907 68.048 167.461 68.4C168.027 68.7413 168.459 69.1947 168.757 69.76C169.056 70.3253 169.205 70.9333 169.205 71.584C169.205 71.7013 169.2 71.8187 169.189 71.936C169.189 72.0533 169.189 72.1867 169.189 72.336H162.869C162.901 72.944 163.04 73.4507 163.285 73.856C163.541 74.2507 163.856 74.5493 164.229 74.752C164.613 74.9547 165.019 75.056 165.445 75.056C166 75.056 166.464 74.928 166.837 74.672C167.211 74.416 167.483 74.0693 167.653 73.632H168.981C168.768 74.368 168.357 74.9813 167.749 75.472C167.152 75.952 166.384 76.192 165.445 76.192ZM165.445 69.008C164.805 69.008 164.235 69.2053 163.733 69.6C163.243 69.984 162.96 70.5493 162.885 71.296H167.877C167.845 70.5813 167.6 70.0213 167.141 69.616C166.683 69.2107 166.117 69.008 165.445 69.008ZM170.987 76V68.064H172.203L172.315 69.584C172.56 69.0613 172.933 68.6453 173.435 68.336C173.936 68.0267 174.555 67.872 175.291 67.872V69.28H174.923C174.453 69.28 174.021 69.3653 173.627 69.536C173.232 69.696 172.917 69.9733 172.683 70.368C172.448 70.7627 172.331 71.3067 172.331 72V76H170.987ZM179.439 76.192C178.778 76.192 178.229 76.08 177.791 75.856C177.354 75.632 177.029 75.3333 176.815 74.96C176.602 74.5867 176.495 74.1813 176.495 73.744C176.495 72.9333 176.805 72.3093 177.423 71.872C178.042 71.4347 178.885 71.216 179.951 71.216H182.095V71.12C182.095 70.4267 181.914 69.904 181.551 69.552C181.189 69.1893 180.703 69.008 180.095 69.008C179.573 69.008 179.119 69.1413 178.735 69.408C178.362 69.664 178.127 70.0427 178.031 70.544H176.655C176.709 69.968 176.901 69.4827 177.231 69.088C177.573 68.6933 177.994 68.3947 178.495 68.192C178.997 67.9787 179.53 67.872 180.095 67.872C181.205 67.872 182.037 68.1707 182.591 68.768C183.157 69.3547 183.439 70.1387 183.439 71.12V76H182.239L182.159 74.576C181.935 75.024 181.605 75.408 181.167 75.728C180.741 76.0373 180.165 76.192 179.439 76.192ZM179.647 75.056C180.159 75.056 180.597 74.9227 180.959 74.656C181.333 74.3893 181.615 74.0427 181.807 73.616C181.999 73.1893 182.095 72.7413 182.095 72.272V72.256H180.063C179.274 72.256 178.714 72.3947 178.383 72.672C178.063 72.9387 177.903 73.2747 177.903 73.68C177.903 74.096 178.053 74.432 178.351 74.688C178.661 74.9333 179.093 75.056 179.647 75.056ZM188.592 73.504C188.144 73.504 187.733 73.4453 187.36 73.328L186.56 74.08C186.677 74.1653 186.821 74.24 186.992 74.304C187.173 74.3573 187.429 74.4107 187.76 74.464C188.09 74.5067 188.554 74.5547 189.152 74.608C190.218 74.6827 190.981 74.928 191.44 75.344C191.898 75.76 192.128 76.304 192.128 76.976C192.128 77.4347 192 77.872 191.744 78.288C191.498 78.704 191.114 79.0453 190.592 79.312C190.08 79.5787 189.418 79.712 188.608 79.712C187.893 79.712 187.258 79.616 186.704 79.424C186.149 79.2427 185.717 78.96 185.408 78.576C185.098 78.2027 184.944 77.728 184.944 77.152C184.944 76.8533 185.024 76.528 185.184 76.176C185.344 75.8347 185.642 75.5093 186.08 75.2C185.845 75.104 185.642 75.0027 185.472 74.896C185.312 74.7787 185.162 74.6507 185.024 74.512V74.144L186.384 72.8C185.754 72.2667 185.44 71.5627 185.44 70.688C185.44 70.1653 185.562 69.6907 185.808 69.264C186.053 68.8373 186.41 68.5013 186.88 68.256C187.349 68 187.92 67.872 188.592 67.872C189.05 67.872 189.466 67.936 189.84 68.064H192.768V69.072L191.28 69.136C191.589 69.584 191.744 70.1013 191.744 70.688C191.744 71.2107 191.616 71.6853 191.36 72.112C191.114 72.5387 190.757 72.88 190.288 73.136C189.829 73.3813 189.264 73.504 188.592 73.504ZM188.592 72.4C189.157 72.4 189.605 72.256 189.936 71.968C190.277 71.6693 190.448 71.2427 190.448 70.688C190.448 70.144 190.277 69.728 189.936 69.44C189.605 69.1413 189.157 68.992 188.592 68.992C188.016 68.992 187.557 69.1413 187.216 69.44C186.885 69.728 186.72 70.144 186.72 70.688C186.72 71.2427 186.885 71.6693 187.216 71.968C187.557 72.256 188.016 72.4 188.592 72.4ZM186.256 77.024C186.256 77.5573 186.48 77.952 186.928 78.208C187.376 78.4747 187.936 78.608 188.608 78.608C189.269 78.608 189.797 78.464 190.192 78.176C190.597 77.888 190.8 77.504 190.8 77.024C190.8 76.6827 190.661 76.384 190.384 76.128C190.106 75.8827 189.594 75.7387 188.848 75.696C188.261 75.6533 187.754 75.6 187.328 75.536C186.89 75.7707 186.602 76.0213 186.464 76.288C186.325 76.5653 186.256 76.8107 186.256 77.024ZM197.539 76.192C196.782 76.192 196.11 76.0213 195.523 75.68C194.937 75.328 194.473 74.8427 194.131 74.224C193.801 73.6053 193.635 72.8747 193.635 72.032C193.635 71.2 193.801 70.4747 194.131 69.856C194.462 69.2267 194.921 68.7413 195.507 68.4C196.105 68.048 196.793 67.872 197.571 67.872C198.339 67.872 199.001 68.048 199.555 68.4C200.121 68.7413 200.553 69.1947 200.851 69.76C201.15 70.3253 201.299 70.9333 201.299 71.584C201.299 71.7013 201.294 71.8187 201.283 71.936C201.283 72.0533 201.283 72.1867 201.283 72.336H194.963C194.995 72.944 195.134 73.4507 195.379 73.856C195.635 74.2507 195.95 74.5493 196.323 74.752C196.707 74.9547 197.113 75.056 197.539 75.056C198.094 75.056 198.558 74.928 198.931 74.672C199.305 74.416 199.577 74.0693 199.747 73.632H201.075C200.862 74.368 200.451 74.9813 199.843 75.472C199.246 75.952 198.478 76.192 197.539 76.192ZM197.539 69.008C196.899 69.008 196.329 69.2053 195.827 69.6C195.337 69.984 195.054 70.5493 194.979 71.296H199.971C199.939 70.5813 199.694 70.0213 199.235 69.616C198.777 69.2107 198.211 69.008 197.539 69.008Z" fill="black"/>
<path d="M254.143 76.192C253.321 76.192 252.607 76.0427 251.999 75.744C251.391 75.4453 250.921 75.0293 250.591 74.496C250.26 73.9627 250.095 73.344 250.095 72.64H251.503C251.503 73.0773 251.604 73.4827 251.807 73.856C252.009 74.2187 252.303 74.512 252.687 74.736C253.081 74.9493 253.567 75.056 254.143 75.056C254.9 75.056 255.487 74.8747 255.903 74.512C256.319 74.1493 256.527 73.696 256.527 73.152C256.527 72.704 256.431 72.3467 256.239 72.08C256.047 71.8027 255.785 71.5787 255.455 71.408C255.135 71.2373 254.761 71.088 254.335 70.96C253.919 70.832 253.481 70.688 253.023 70.528C252.159 70.2293 251.519 69.8613 251.103 69.424C250.687 68.976 250.479 68.3947 250.479 67.68C250.468 67.0827 250.607 66.5547 250.895 66.096C251.183 65.6267 251.588 65.264 252.111 65.008C252.644 64.7413 253.273 64.608 253.999 64.608C254.713 64.608 255.332 64.7413 255.855 65.008C256.388 65.2747 256.799 65.6427 257.087 66.112C257.385 66.5813 257.54 67.1147 257.551 67.712H256.143C256.143 67.4027 256.063 67.0987 255.903 66.8C255.743 66.4907 255.497 66.24 255.167 66.048C254.847 65.856 254.441 65.76 253.951 65.76C253.343 65.7493 252.841 65.904 252.447 66.224C252.063 66.544 251.871 66.9867 251.871 67.552C251.871 68.032 252.004 68.4 252.271 68.656C252.548 68.912 252.932 69.1253 253.423 69.296C253.913 69.456 254.479 69.6427 255.119 69.856C255.652 70.048 256.132 70.272 256.559 70.528C256.985 70.784 257.316 71.1147 257.551 71.52C257.796 71.9253 257.919 72.4427 257.919 73.072C257.919 73.6053 257.78 74.112 257.503 74.592C257.225 75.0613 256.804 75.4453 256.239 75.744C255.684 76.0427 254.985 76.192 254.143 76.192ZM262.881 76C262.155 76 261.585 75.824 261.169 75.472C260.753 75.12 260.545 74.4853 260.545 73.568V69.2H259.169V68.064H260.545L260.721 66.16H261.889V68.064H264.225V69.2H261.889V73.568C261.889 74.0693 261.99 74.4107 262.193 74.592C262.395 74.7627 262.753 74.848 263.265 74.848H264.097V76H262.881ZM265.932 76V68.064H267.148L267.26 69.584C267.505 69.0613 267.879 68.6453 268.38 68.336C268.881 68.0267 269.5 67.872 270.236 67.872V69.28H269.868C269.399 69.28 268.967 69.3653 268.572 69.536C268.177 69.696 267.863 69.9733 267.628 70.368C267.393 70.7627 267.276 71.3067 267.276 72V76H265.932ZM275.016 76.192C274.258 76.192 273.586 76.0213 273 75.68C272.413 75.328 271.949 74.8427 271.608 74.224C271.277 73.6053 271.112 72.8747 271.112 72.032C271.112 71.2 271.277 70.4747 271.608 69.856C271.938 69.2267 272.397 68.7413 272.984 68.4C273.581 68.048 274.269 67.872 275.048 67.872C275.816 67.872 276.477 68.048 277.032 68.4C277.597 68.7413 278.029 69.1947 278.328 69.76C278.626 70.3253 278.776 70.9333 278.776 71.584C278.776 71.7013 278.77 71.8187 278.76 71.936C278.76 72.0533 278.76 72.1867 278.76 72.336H272.44C272.472 72.944 272.61 73.4507 272.856 73.856C273.112 74.2507 273.426 74.5493 273.8 74.752C274.184 74.9547 274.589 75.056 275.016 75.056C275.57 75.056 276.034 74.928 276.408 74.672C276.781 74.416 277.053 74.0693 277.224 73.632H278.552C278.338 74.368 277.928 74.9813 277.32 75.472C276.722 75.952 275.954 76.192 275.016 76.192ZM275.016 69.008C274.376 69.008 273.805 69.2053 273.304 69.6C272.813 69.984 272.53 70.5493 272.456 71.296H277.448C277.416 70.5813 277.17 70.0213 276.712 69.616C276.253 69.2107 275.688 69.008 275.016 69.008ZM283.597 76.192C282.648 76.192 281.858 75.952 281.229 75.472C280.6 74.992 280.232 74.3413 280.125 73.52H281.501C281.586 73.936 281.805 74.2987 282.157 74.608C282.52 74.9067 283.005 75.056 283.613 75.056C284.178 75.056 284.594 74.9387 284.861 74.704C285.128 74.4587 285.261 74.1707 285.261 73.84C285.261 73.36 285.085 73.04 284.733 72.88C284.392 72.72 283.906 72.576 283.277 72.448C282.85 72.3627 282.424 72.24 281.997 72.08C281.57 71.92 281.213 71.696 280.925 71.408C280.637 71.1093 280.493 70.72 280.493 70.24C280.493 69.5467 280.749 68.9813 281.261 68.544C281.784 68.096 282.488 67.872 283.373 67.872C284.216 67.872 284.904 68.0853 285.437 68.512C285.981 68.928 286.296 69.5253 286.381 70.304H285.053C285 69.8987 284.824 69.584 284.525 69.36C284.237 69.1253 283.848 69.008 283.357 69.008C282.877 69.008 282.504 69.1093 282.237 69.312C281.981 69.5147 281.853 69.7813 281.853 70.112C281.853 70.432 282.018 70.6827 282.349 70.864C282.69 71.0453 283.149 71.2 283.725 71.328C284.216 71.4347 284.68 71.568 285.117 71.728C285.565 71.8773 285.928 72.1067 286.205 72.416C286.493 72.7147 286.637 73.152 286.637 73.728C286.648 74.4427 286.376 75.0347 285.821 75.504C285.277 75.9627 284.536 76.192 283.597 76.192ZM291.597 76.192C290.648 76.192 289.858 75.952 289.229 75.472C288.6 74.992 288.232 74.3413 288.125 73.52H289.501C289.586 73.936 289.805 74.2987 290.157 74.608C290.52 74.9067 291.005 75.056 291.613 75.056C292.178 75.056 292.594 74.9387 292.861 74.704C293.128 74.4587 293.261 74.1707 293.261 73.84C293.261 73.36 293.085 73.04 292.733 72.88C292.392 72.72 291.906 72.576 291.277 72.448C290.85 72.3627 290.424 72.24 289.997 72.08C289.57 71.92 289.213 71.696 288.925 71.408C288.637 71.1093 288.493 70.72 288.493 70.24C288.493 69.5467 288.749 68.9813 289.261 68.544C289.784 68.096 290.488 67.872 291.373 67.872C292.216 67.872 292.904 68.0853 293.437 68.512C293.981 68.928 294.296 69.5253 294.381 70.304H293.053C293 69.8987 292.824 69.584 292.525 69.36C292.237 69.1253 291.848 69.008 291.357 69.008C290.877 69.008 290.504 69.1093 290.237 69.312C289.981 69.5147 289.853 69.7813 289.853 70.112C289.853 70.432 290.018 70.6827 290.349 70.864C290.69 71.0453 291.149 71.2 291.725 71.328C292.216 71.4347 292.68 71.568 293.117 71.728C293.565 71.8773 293.928 72.1067 294.205 72.416C294.493 72.7147 294.637 73.152 294.637 73.728C294.648 74.4427 294.376 75.0347 293.821 75.504C293.277 75.9627 292.536 76.192 291.597 76.192ZM300.125 76.192C299.368 76.192 298.696 76.0213 298.109 75.68C297.522 75.328 297.058 74.8427 296.717 74.224C296.386 73.6053 296.221 72.8747 296.221 72.032C296.221 71.2 296.386 70.4747 296.717 69.856C297.048 69.2267 297.506 68.7413 298.093 68.4C298.69 68.048 299.378 67.872 300.157 67.872C300.925 67.872 301.586 68.048 302.141 68.4C302.706 68.7413 303.138 69.1947 303.437 69.76C303.736 70.3253 303.885 70.9333 303.885 71.584C303.885 71.7013 303.88 71.8187 303.869 71.936C303.869 72.0533 303.869 72.1867 303.869 72.336H297.549C297.581 72.944 297.72 73.4507 297.965 73.856C298.221 74.2507 298.536 74.5493 298.909 74.752C299.293 74.9547 299.698 75.056 300.125 75.056C300.68 75.056 301.144 74.928 301.517 74.672C301.89 74.416 302.162 74.0693 302.333 73.632H303.661C303.448 74.368 303.037 74.9813 302.429 75.472C301.832 75.952 301.064 76.192 300.125 76.192ZM300.125 69.008C299.485 69.008 298.914 69.2053 298.413 69.6C297.922 69.984 297.64 70.5493 297.565 71.296H302.557C302.525 70.5813 302.28 70.0213 301.821 69.616C301.362 69.2107 300.797 69.008 300.125 69.008ZM309.266 76.192C308.477 76.192 307.784 76.0107 307.187 75.648C306.6 75.2853 306.141 74.7893 305.811 74.16C305.491 73.5307 305.331 72.816 305.331 72.016C305.331 71.216 305.496 70.5067 305.827 69.888C306.157 69.2587 306.616 68.768 307.203 68.416C307.789 68.0533 308.483 67.872 309.283 67.872C309.933 67.872 310.509 68.0053 311.011 68.272C311.512 68.5387 311.901 68.912 312.179 69.392V64.48H313.523V76H312.307L312.179 74.688C311.923 75.072 311.555 75.4187 311.075 75.728C310.595 76.0373 309.992 76.192 309.266 76.192ZM309.411 75.024C309.944 75.024 310.413 74.9013 310.819 74.656C311.235 74.4 311.555 74.048 311.779 73.6C312.013 73.152 312.131 72.6293 312.131 72.032C312.131 71.4347 312.013 70.912 311.779 70.464C311.555 70.016 311.235 69.6693 310.819 69.424C310.413 69.168 309.944 69.04 309.411 69.04C308.888 69.04 308.419 69.168 308.003 69.424C307.597 69.6693 307.277 70.016 307.043 70.464C306.819 70.912 306.707 71.4347 306.707 72.032C306.707 72.6293 306.819 73.152 307.043 73.6C307.277 74.048 307.597 74.4 308.003 74.656C308.419 74.9013 308.888 75.024 309.411 75.024Z" fill="black"/>
<rect x="54" y="22" width="249" height="8" rx="4" fill="#D9D9D9"/>
<circle cx="178" cy="26" r="26" fill="#9DB580"/>
<path d="M173.316 43C170.173 43 167.501 41.8856 165.3 39.6567C163.1 37.4278 162 34.7393 162 31.5911C162 28.443 163.088 25.7796 165.263 23.6011C167.438 21.4226 170.097 20.3333 173.24 20.3333H173.731L174.749 18.5578C175.051 18.0037 175.504 17.6448 176.107 17.4811C176.711 17.3174 177.289 17.3993 177.842 17.7267L178.974 18.3689L179.162 18.0667C179.741 16.9837 180.646 16.2785 181.878 15.9511C183.11 15.6237 184.267 15.7748 185.348 16.4044L186.669 17.16L185.16 19.7667L183.84 19.0111C183.488 18.8096 183.104 18.7656 182.689 18.8789C182.274 18.9922 181.966 19.2252 181.765 19.5778L181.576 19.88L183.085 20.7489C183.613 21.0511 183.959 21.5044 184.123 22.1089C184.286 22.7133 184.217 23.28 183.915 23.8089L182.897 25.6222C183.475 26.5289 183.909 27.4922 184.198 28.5122C184.487 29.5322 184.632 30.5837 184.632 31.6667C184.632 34.8148 183.532 37.4907 181.331 39.6944C179.131 41.8981 176.459 43 173.316 43ZM173.316 39.9778C175.604 39.9778 177.559 39.1656 179.181 37.5411C180.803 35.9167 181.614 33.9585 181.614 31.6667C181.614 30.8859 181.507 30.1178 181.294 29.3622C181.08 28.6067 180.759 27.8889 180.332 27.2089L179.351 25.66L180.935 22.94L177.012 20.6733L175.428 23.3933H173.769C171.405 23.3933 169.349 24.1489 167.601 25.66C165.854 27.1711 164.98 29.1481 164.98 31.5911C164.98 33.9081 165.791 35.8852 167.413 37.5222C169.035 39.1593 171.002 39.9778 173.316 39.9778ZM190.441 21.8444V18.8222H194.967V21.8444H190.441ZM182.142 13.5333V9H185.16V13.5333H182.142ZM189.498 16.5933L187.385 14.4778L190.591 11.2667L192.704 13.3822L189.498 16.5933Z" fill="#1C1B1F"/>
</svg>
