<?xml version="1.0" encoding="utf-8"?>
<!-- Generator: Adobe Illustrator 28.2.0, SVG Export Plug-In . SVG Version: 6.00 Build 0)  -->
<svg version="1.1" id="Layer_1" xmlns="http://www.w3.org/2000/svg" xmlns:xlink="http://www.w3.org/1999/xlink" x="0px" y="0px"
	 viewBox="0 0 166 35" style="enable-background:new 0 0 166 35;" xml:space="preserve">
<style type="text/css">
	.st0{fill:#465939;}
</style>
<path class="st0" d="M10.2,27c-0.7,0-1.2-0.2-1.7-0.6c-0.4-0.4-0.6-1-0.6-1.6V3.9h4.7v20.9c0,0.6-0.2,1.2-0.7,1.6
	C11.5,26.8,10.9,27,10.2,27z M2.3,5.9c-0.6,0-1.2-0.2-1.6-0.6C0.3,5,0.1,4.5,0.1,3.9s0.2-1.1,0.6-1.5c0.4-0.4,1-0.6,1.6-0.6h16
	c0.6,0,1.1,0.2,1.5,0.6c0.4,0.4,0.6,0.9,0.6,1.5S20.2,5,19.8,5.4c-0.4,0.4-0.9,0.5-1.5,0.5H2.3z M23.9,27c-0.6,0-1.1-0.2-1.5-0.6
	c-0.4-0.4-0.6-1-0.6-1.6V9.9c0-0.6,0.2-1.1,0.6-1.5c0.4-0.4,0.9-0.6,1.5-0.6S25,8,25.4,8.4c0.4,0.4,0.6,0.9,0.6,1.5v3.4l-0.3-2.4
	c0.3-0.6,0.6-1.1,1-1.5c0.4-0.5,0.9-0.8,1.4-1.1c0.5-0.3,1.1-0.5,1.7-0.7c0.6-0.1,1.2-0.2,1.8-0.2c0.7,0,1.3,0.2,1.8,0.6
	c0.5,0.4,0.8,0.9,0.8,1.4c0,0.8-0.2,1.4-0.6,1.7c-0.4,0.3-0.9,0.5-1.3,0.5c-0.5,0-0.9-0.1-1.3-0.3c-0.4-0.2-0.8-0.3-1.3-0.3
	c-0.4,0-0.9,0.1-1.3,0.3c-0.4,0.2-0.8,0.5-1.2,0.9c-0.4,0.4-0.7,1-0.9,1.6c-0.2,0.6-0.3,1.4-0.3,2.2v8.5c0,0.6-0.2,1.2-0.6,1.6
	C25,26.8,24.5,27,23.9,27z M52.7,7.4c0.6,0,1.1,0.2,1.5,0.6c0.4,0.4,0.6,0.9,0.6,1.6v15.2c0,0.6-0.2,1.2-0.6,1.6
	c-0.4,0.4-0.9,0.6-1.5,0.6s-1.1-0.2-1.5-0.6c-0.4-0.4-0.6-1-0.6-1.6V23l0.8,0.3c0,0.3-0.2,0.7-0.5,1.2c-0.3,0.4-0.8,0.9-1.4,1.3
	c-0.6,0.4-1.3,0.8-2.1,1.1c-0.8,0.3-1.6,0.4-2.5,0.4c-1.7,0-3.2-0.4-4.5-1.3c-1.3-0.9-2.4-2-3.2-3.5c-0.8-1.5-1.2-3.2-1.2-5.2
	c0-2,0.4-3.7,1.2-5.2c0.8-1.5,1.8-2.7,3.2-3.5c1.3-0.9,2.8-1.3,4.4-1.3c1,0,2,0.2,2.8,0.5c0.9,0.3,1.6,0.7,2.2,1.2
	c0.6,0.5,1.1,1,1.5,1.5c0.4,0.5,0.5,0.9,0.5,1.2l-1.3,0.5V9.6c0-0.6,0.2-1.1,0.6-1.5C51.5,7.6,52.1,7.4,52.7,7.4z M45.4,23.4
	c1.1,0,2-0.3,2.8-0.8s1.4-1.2,1.8-2.2c0.5-0.9,0.7-1.9,0.7-3.1c0-1.2-0.2-2.2-0.7-3.1c-0.4-0.9-1-1.6-1.8-2.2s-1.7-0.8-2.8-0.8
	c-1,0-1.9,0.3-2.7,0.8s-1.4,1.2-1.9,2.2c-0.4,0.9-0.6,1.9-0.6,3.1c0,1.1,0.2,2.1,0.6,3.1c0.5,0.9,1.1,1.6,1.9,2.2
	S44.4,23.4,45.4,23.4z M69.8,7.4c1.8,0,3.1,0.4,4,1.1c0.9,0.7,1.6,1.7,1.9,3c0.4,1.2,0.5,2.6,0.5,4.1v9.2c0,0.6-0.2,1.2-0.6,1.6
	c-0.4,0.4-0.9,0.6-1.5,0.6s-1.1-0.2-1.5-0.6c-0.4-0.4-0.6-1-0.6-1.6v-9.2c0-0.8-0.1-1.5-0.3-2.1c-0.2-0.6-0.6-1.2-1.1-1.5
	c-0.5-0.4-1.3-0.6-2.3-0.6c-1,0-1.8,0.2-2.4,0.6c-0.6,0.4-1.2,0.9-1.5,1.5c-0.3,0.6-0.5,1.3-0.5,2.1v9.2c0,0.6-0.2,1.2-0.6,1.6
	c-0.4,0.4-0.9,0.6-1.5,0.6c-0.6,0-1.1-0.2-1.5-0.6c-0.4-0.4-0.6-1-0.6-1.6V9.9c0-0.6,0.2-1.1,0.6-1.5c0.4-0.4,0.9-0.6,1.5-0.6
	c0.6,0,1.1,0.2,1.5,0.6c0.4,0.4,0.6,0.9,0.6,1.5v1.5l-0.5-0.1c0.2-0.4,0.5-0.8,0.9-1.3c0.4-0.5,0.9-0.9,1.4-1.3
	c0.6-0.4,1.2-0.7,1.9-1C68.2,7.5,69,7.4,69.8,7.4z M96.7,7.7c0.6,0,1.1,0.2,1.5,0.6c0.4,0.4,0.6,0.9,0.6,1.6V32
	c0,0.6-0.2,1.1-0.6,1.5c-0.4,0.4-0.9,0.6-1.5,0.6s-1.1-0.2-1.5-0.6c-0.4-0.4-0.6-0.9-0.6-1.5v-9l0.8,0.3c0,0.3-0.2,0.7-0.5,1.2
	c-0.3,0.4-0.8,0.9-1.4,1.3c-0.6,0.4-1.3,0.8-2.1,1.1c-0.8,0.3-1.6,0.4-2.5,0.4c-1.7,0-3.2-0.4-4.5-1.3c-1.3-0.9-2.4-2-3.2-3.5
	c-0.8-1.5-1.2-3.2-1.2-5.2c0-2,0.4-3.7,1.2-5.2c0.8-1.5,1.8-2.7,3.2-3.5c1.3-0.9,2.8-1.3,4.4-1.3c1,0,2,0.2,2.8,0.5
	c0.9,0.3,1.6,0.7,2.2,1.2c0.6,0.5,1.1,1,1.5,1.5c0.4,0.5,0.5,0.9,0.5,1.2l-1.3,0.5V9.9c0-0.6,0.2-1.1,0.6-1.5
	C95.6,8,96.1,7.7,96.7,7.7z M89.5,23.4c1.1,0,2-0.3,2.8-0.8s1.4-1.2,1.8-2.2c0.5-0.9,0.7-1.9,0.7-3.1c0-1.2-0.2-2.2-0.7-3.1
	c-0.4-0.9-1-1.6-1.8-2.2s-1.7-0.8-2.8-0.8c-1,0-1.9,0.3-2.7,0.8s-1.4,1.2-1.9,2.2c-0.4,0.9-0.6,1.9-0.6,3.1c0,1.1,0.2,2.1,0.6,3.1
	c0.5,0.9,1.1,1.6,1.9,2.2S88.4,23.4,89.5,23.4z M117.9,7.7c0.6,0,1.1,0.2,1.5,0.6c0.4,0.4,0.6,0.9,0.6,1.5v9.1c0,2.5-0.7,4.6-2.1,6
	c-1.4,1.5-3.5,2.2-6.1,2.2s-4.7-0.7-6.1-2.2c-1.4-1.5-2.1-3.5-2.1-6V9.9c0-0.6,0.2-1.1,0.6-1.5c0.4-0.4,0.9-0.6,1.5-0.6
	s1.1,0.2,1.5,0.6c0.4,0.4,0.6,0.9,0.6,1.5v9.1c0,1.5,0.3,2.6,1,3.3c0.6,0.7,1.6,1,2.9,1c1.3,0,2.3-0.3,3-1c0.6-0.7,1-1.8,1-3.3V9.9
	c0-0.6,0.2-1.1,0.6-1.5C116.7,8,117.2,7.7,117.9,7.7z M128.8,24.8c0,0.6-0.2,1.2-0.6,1.6c-0.4,0.4-0.9,0.6-1.5,0.6s-1.1-0.2-1.5-0.6
	c-0.4-0.4-0.6-1-0.6-1.6V9.9c0-0.6,0.2-1.1,0.6-1.5c0.4-0.4,0.9-0.6,1.5-0.6s1.1,0.2,1.5,0.6c0.4,0.4,0.6,0.9,0.6,1.5V24.8z
	 M126.6,5.4c-0.8,0-1.4-0.1-1.7-0.4c-0.3-0.3-0.5-0.7-0.5-1.4V2.9c0-0.7,0.2-1.2,0.5-1.4c0.4-0.3,1-0.4,1.7-0.4
	c0.8,0,1.4,0.1,1.8,0.4s0.5,0.7,0.5,1.4v0.7c0,0.7-0.2,1.2-0.5,1.4C128,5.3,127.4,5.4,126.6,5.4z M143.1,0.4c0.5,0,1,0.1,1.5,0.2
	s0.9,0.4,1.3,0.7c0.3,0.3,0.5,0.7,0.5,1.3c0,0.6-0.2,1.1-0.5,1.4c-0.3,0.3-0.7,0.5-1.2,0.5c-0.2,0-0.5,0-1-0.1
	c-0.4-0.1-0.9-0.2-1.3-0.2c-0.6,0-1.1,0.1-1.4,0.4c-0.3,0.3-0.5,0.6-0.6,0.9c-0.1,0.3-0.2,0.6-0.2,0.9v18.4c0,0.6-0.2,1.2-0.6,1.6
	c-0.4,0.4-0.9,0.6-1.5,0.6c-0.6,0-1.1-0.2-1.5-0.6c-0.4-0.4-0.6-1-0.6-1.6V6.4c0-1.7,0.6-3.1,1.8-4.3C138.9,0.9,140.7,0.4,143.1,0.4
	z M143.5,8.1c0.6,0,1.1,0.2,1.4,0.6c0.4,0.4,0.6,0.8,0.6,1.4s-0.2,1.1-0.6,1.4c-0.4,0.4-0.9,0.5-1.4,0.5H134c-0.6,0-1.1-0.2-1.4-0.5
	c-0.4-0.4-0.6-0.9-0.6-1.4s0.2-1,0.6-1.4c0.4-0.4,0.9-0.6,1.4-0.6H143.5z M163.2,7.7c0.6,0,1.1,0.2,1.5,0.6c0.4,0.4,0.6,0.9,0.6,1.5
	v15.3c0,2.2-0.4,4-1.3,5.3c-0.8,1.3-1.9,2.3-3.3,2.8s-3,0.9-4.7,0.9c-0.8,0-1.6-0.1-2.4-0.2c-0.9-0.1-1.6-0.3-2.1-0.5
	c-0.7-0.3-1.2-0.7-1.5-1.2c-0.3-0.5-0.3-0.9-0.1-1.5c0.2-0.7,0.6-1.2,1-1.4c0.5-0.2,1-0.3,1.5-0.1c0.4,0.1,0.9,0.3,1.5,0.5
	c0.6,0.3,1.3,0.4,2.2,0.4c1.1,0,2-0.2,2.7-0.5c0.7-0.3,1.3-0.8,1.7-1.5c0.4-0.7,0.6-1.7,0.6-2.9V23l0.8,0.9c-0.4,0.8-0.9,1.5-1.5,2
	c-0.6,0.5-1.3,0.9-2.2,1.2s-1.8,0.4-2.9,0.4c-1.3,0-2.4-0.3-3.3-0.9c-0.9-0.6-1.7-1.4-2.2-2.4c-0.5-1.1-0.8-2.3-0.8-3.6V9.9
	c0-0.6,0.2-1.1,0.6-1.5c0.4-0.4,0.9-0.6,1.5-0.6c0.6,0,1.1,0.2,1.5,0.6c0.4,0.4,0.6,0.9,0.6,1.5v9.2c0,1.6,0.3,2.7,1,3.3
	c0.7,0.6,1.7,0.9,2.9,0.9c0.8,0,1.5-0.2,2.1-0.5c0.6-0.3,1-0.8,1.3-1.4c0.3-0.6,0.5-1.4,0.5-2.3V9.9c0-0.6,0.2-1.1,0.6-1.5
	C162.1,8,162.6,7.7,163.2,7.7z"/>
</svg>
