<svg width="166" height="35" viewBox="0 0 166 35" fill="none" xmlns="http://www.w3.org/2000/svg">
<path d="M10.232 27C9.56 27 9.008 26.796 8.576 26.388C8.144 25.956 7.928 25.428 7.928 24.804V3.924H12.608V24.804C12.608 25.428 12.38 25.956 11.924 26.388C11.492 26.796 10.928 27 10.232 27ZM2.276 5.94C1.652 5.94 1.124 5.748 0.692 5.364C0.284 4.98 0.08 4.476 0.08 3.852C0.08 3.228 0.284 2.736 0.692 2.376C1.124 1.992 1.652 1.8 2.276 1.8H18.26C18.884 1.8 19.4 1.992 19.808 2.376C20.24 2.76 20.456 3.264 20.456 3.888C20.456 4.512 20.24 5.016 19.808 5.4C19.4 5.76 18.884 5.94 18.26 5.94H2.276ZM23.8906 27C23.2666 27 22.7506 26.796 22.3426 26.388C21.9346 25.956 21.7306 25.428 21.7306 24.804V9.936C21.7306 9.312 21.9346 8.796 22.3426 8.388C22.7506 7.956 23.2666 7.74 23.8906 7.74C24.5146 7.74 25.0306 7.956 25.4386 8.388C25.8466 8.796 26.0506 9.312 26.0506 9.936V13.32L25.7986 10.908C26.0626 10.332 26.3986 9.828 26.8066 9.396C27.2386 8.94 27.7186 8.568 28.2466 8.28C28.7746 7.968 29.3386 7.74 29.9386 7.596C30.5386 7.452 31.1386 7.38 31.7386 7.38C32.4586 7.38 33.0586 7.584 33.5386 7.992C34.0426 8.4 34.2946 8.88 34.2946 9.432C34.2946 10.224 34.0906 10.8 33.6826 11.16C33.2746 11.496 32.8306 11.664 32.3506 11.664C31.8946 11.664 31.4746 11.58 31.0906 11.412C30.7306 11.244 30.3106 11.16 29.8306 11.16C29.3986 11.16 28.9546 11.268 28.4986 11.484C28.0666 11.676 27.6586 11.988 27.2746 12.42C26.9146 12.852 26.6146 13.392 26.3746 14.04C26.1586 14.664 26.0506 15.408 26.0506 16.272V24.804C26.0506 25.428 25.8466 25.956 25.4386 26.388C25.0306 26.796 24.5146 27 23.8906 27ZM52.6861 7.38C53.3101 7.38 53.8261 7.584 54.2341 7.992C54.6421 8.4 54.8461 8.928 54.8461 9.576V24.804C54.8461 25.428 54.6421 25.956 54.2341 26.388C53.8261 26.796 53.3101 27 52.6861 27C52.0621 27 51.5461 26.796 51.1381 26.388C50.7301 25.956 50.5261 25.428 50.5261 24.804V23.04L51.3181 23.364C51.3181 23.676 51.1501 24.06 50.8141 24.516C50.4781 24.948 50.0221 25.38 49.4461 25.812C48.8701 26.244 48.1861 26.616 47.3941 26.928C46.6261 27.216 45.7861 27.36 44.8741 27.36C43.2181 27.36 41.7181 26.94 40.3741 26.1C39.0301 25.236 37.9621 24.06 37.1701 22.572C36.4021 21.06 36.0181 19.332 36.0181 17.388C36.0181 15.42 36.4021 13.692 37.1701 12.204C37.9621 10.692 39.0181 9.516 40.3381 8.676C41.6581 7.812 43.1221 7.38 44.7301 7.38C45.7621 7.38 46.7101 7.536 47.5741 7.848C48.4381 8.16 49.1821 8.556 49.8061 9.036C50.4541 9.516 50.9461 10.008 51.2821 10.512C51.6421 10.992 51.8221 11.4 51.8221 11.736L50.5261 12.204V9.576C50.5261 8.952 50.7301 8.436 51.1381 8.028C51.5461 7.596 52.0621 7.38 52.6861 7.38ZM45.4141 23.4C46.4701 23.4 47.3941 23.136 48.1861 22.608C48.9781 22.08 49.5901 21.36 50.0221 20.448C50.4781 19.536 50.7061 18.516 50.7061 17.388C50.7061 16.236 50.4781 15.204 50.0221 14.292C49.5901 13.38 48.9781 12.66 48.1861 12.132C47.3941 11.604 46.4701 11.34 45.4141 11.34C44.3821 11.34 43.4701 11.604 42.6781 12.132C41.8861 12.66 41.2621 13.38 40.8061 14.292C40.3741 15.204 40.1581 16.236 40.1581 17.388C40.1581 18.516 40.3741 19.536 40.8061 20.448C41.2621 21.36 41.8861 22.08 42.6781 22.608C43.4701 23.136 44.3821 23.4 45.4141 23.4ZM69.8196 7.38C71.5956 7.38 72.9396 7.752 73.8516 8.496C74.7876 9.24 75.4236 10.236 75.7596 11.484C76.1196 12.708 76.2996 14.076 76.2996 15.588V24.804C76.2996 25.428 76.0956 25.956 75.6876 26.388C75.2796 26.796 74.7636 27 74.1396 27C73.5156 27 72.9996 26.796 72.5916 26.388C72.1836 25.956 71.9796 25.428 71.9796 24.804V15.588C71.9796 14.796 71.8716 14.088 71.6556 13.464C71.4636 12.816 71.1036 12.3 70.5756 11.916C70.0476 11.532 69.2916 11.34 68.3076 11.34C67.3476 11.34 66.5316 11.532 65.8596 11.916C65.2116 12.3 64.7076 12.816 64.3476 13.464C64.0116 14.088 63.8436 14.796 63.8436 15.588V24.804C63.8436 25.428 63.6396 25.956 63.2316 26.388C62.8236 26.796 62.3076 27 61.6836 27C61.0596 27 60.5436 26.796 60.1356 26.388C59.7276 25.956 59.5236 25.428 59.5236 24.804V9.936C59.5236 9.312 59.7276 8.796 60.1356 8.388C60.5436 7.956 61.0596 7.74 61.6836 7.74C62.3076 7.74 62.8236 7.956 63.2316 8.388C63.6396 8.796 63.8436 9.312 63.8436 9.936V11.484L63.3036 11.376C63.5196 10.968 63.8316 10.536 64.2396 10.08C64.6476 9.6 65.1276 9.156 65.6796 8.748C66.2316 8.34 66.8556 8.016 67.5516 7.776C68.2476 7.512 69.0036 7.38 69.8196 7.38ZM96.7369 7.74C97.3609 7.74 97.8769 7.944 98.2849 8.352C98.6929 8.76 98.8969 9.288 98.8969 9.936V32.004C98.8969 32.628 98.6929 33.144 98.2849 33.552C97.8769 33.984 97.3609 34.2 96.7369 34.2C96.1129 34.2 95.5969 33.984 95.1889 33.552C94.7809 33.144 94.5769 32.628 94.5769 32.004V23.04L95.3689 23.364C95.3689 23.676 95.2009 24.06 94.8649 24.516C94.5289 24.948 94.0729 25.38 93.4969 25.812C92.9209 26.244 92.2369 26.616 91.4449 26.928C90.6769 27.216 89.8369 27.36 88.9249 27.36C87.2689 27.36 85.7689 26.94 84.4249 26.1C83.0809 25.236 82.0129 24.06 81.2209 22.572C80.4529 21.06 80.0689 19.332 80.0689 17.388C80.0689 15.42 80.4529 13.692 81.2209 12.204C82.0129 10.692 83.0689 9.516 84.3889 8.676C85.7089 7.812 87.1729 7.38 88.7809 7.38C89.8129 7.38 90.7609 7.536 91.6249 7.848C92.4889 8.16 93.2329 8.556 93.8569 9.036C94.5049 9.516 94.9969 10.008 95.3329 10.512C95.6929 10.992 95.8729 11.4 95.8729 11.736L94.5769 12.204V9.936C94.5769 9.312 94.7809 8.796 95.1889 8.388C95.5969 7.956 96.1129 7.74 96.7369 7.74ZM89.4649 23.4C90.5209 23.4 91.4449 23.136 92.2369 22.608C93.0289 22.08 93.6409 21.36 94.0729 20.448C94.5289 19.536 94.7569 18.516 94.7569 17.388C94.7569 16.236 94.5289 15.204 94.0729 14.292C93.6409 13.38 93.0289 12.66 92.2369 12.132C91.4449 11.604 90.5209 11.34 89.4649 11.34C88.4329 11.34 87.5209 11.604 86.7289 12.132C85.9369 12.66 85.3129 13.38 84.8569 14.292C84.4249 15.204 84.2089 16.236 84.2089 17.388C84.2089 18.516 84.4249 19.536 84.8569 20.448C85.3129 21.36 85.9369 22.08 86.7289 22.608C87.5209 23.136 88.4329 23.4 89.4649 23.4ZM117.866 7.74C118.49 7.74 119.006 7.956 119.414 8.388C119.822 8.796 120.026 9.312 120.026 9.936V19.08C120.026 21.624 119.318 23.64 117.902 25.128C116.486 26.616 114.446 27.36 111.782 27.36C109.118 27.36 107.078 26.616 105.662 25.128C104.27 23.64 103.574 21.624 103.574 19.08V9.936C103.574 9.312 103.778 8.796 104.186 8.388C104.594 7.956 105.11 7.74 105.734 7.74C106.358 7.74 106.874 7.956 107.282 8.388C107.69 8.796 107.894 9.312 107.894 9.936V19.08C107.894 20.544 108.218 21.636 108.866 22.356C109.514 23.052 110.486 23.4 111.782 23.4C113.102 23.4 114.086 23.052 114.734 22.356C115.382 21.636 115.706 20.544 115.706 19.08V9.936C115.706 9.312 115.91 8.796 116.318 8.388C116.726 7.956 117.242 7.74 117.866 7.74ZM128.771 24.804C128.771 25.428 128.567 25.956 128.159 26.388C127.751 26.796 127.235 27 126.611 27C125.987 27 125.471 26.796 125.063 26.388C124.655 25.956 124.451 25.428 124.451 24.804V9.936C124.451 9.312 124.655 8.796 125.063 8.388C125.471 7.956 125.987 7.74 126.611 7.74C127.235 7.74 127.751 7.956 128.159 8.388C128.567 8.796 128.771 9.312 128.771 9.936V24.804ZM126.575 5.4C125.759 5.4 125.183 5.268 124.847 5.004C124.511 4.74 124.343 4.272 124.343 3.6V2.916C124.343 2.22 124.523 1.752 124.883 1.512C125.267 1.248 125.843 1.116 126.611 1.116C127.451 1.116 128.039 1.248 128.375 1.512C128.711 1.776 128.879 2.244 128.879 2.916V3.6C128.879 4.296 128.699 4.776 128.339 5.04C127.979 5.28 127.391 5.4 126.575 5.4ZM143.111 0.36C143.639 0.36 144.155 0.431999 144.659 0.575999C145.163 0.719999 145.583 0.959998 145.919 1.296C146.255 1.608 146.423 2.028 146.423 2.556C146.423 3.156 146.243 3.636 145.883 3.996C145.547 4.332 145.151 4.5 144.695 4.5C144.479 4.5 144.155 4.452 143.723 4.356C143.291 4.236 142.871 4.176 142.463 4.176C141.863 4.176 141.395 4.308 141.059 4.572C140.747 4.836 140.531 5.148 140.411 5.508C140.291 5.844 140.231 6.144 140.231 6.408V24.804C140.231 25.428 140.027 25.956 139.619 26.388C139.211 26.796 138.695 27 138.071 27C137.447 27 136.931 26.796 136.523 26.388C136.115 25.956 135.911 25.428 135.911 24.804V6.444C135.911 4.74 136.511 3.3 137.711 2.124C138.911 0.947999 140.711 0.36 143.111 0.36ZM143.507 8.1C144.083 8.1 144.563 8.292 144.947 8.676C145.331 9.036 145.523 9.504 145.523 10.08C145.523 10.656 145.331 11.136 144.947 11.52C144.563 11.88 144.083 12.06 143.507 12.06H133.967C133.391 12.06 132.911 11.88 132.527 11.52C132.143 11.136 131.951 10.656 131.951 10.08C131.951 9.504 132.143 9.036 132.527 8.676C132.911 8.292 133.391 8.1 133.967 8.1H143.507ZM163.218 7.74C163.842 7.74 164.358 7.956 164.766 8.388C165.174 8.796 165.378 9.312 165.378 9.936V25.236C165.378 27.444 164.958 29.196 164.118 30.492C163.302 31.812 162.198 32.76 160.806 33.336C159.414 33.912 157.854 34.2 156.126 34.2C155.358 34.2 154.542 34.14 153.678 34.02C152.814 33.9 152.106 33.72 151.554 33.48C150.834 33.168 150.33 32.772 150.042 32.292C149.778 31.836 149.73 31.344 149.898 30.816C150.114 30.12 150.462 29.64 150.942 29.376C151.422 29.136 151.926 29.112 152.454 29.304C152.838 29.424 153.342 29.604 153.966 29.844C154.59 30.108 155.31 30.24 156.126 30.24C157.23 30.24 158.142 30.084 158.862 29.772C159.606 29.484 160.158 28.98 160.518 28.26C160.902 27.564 161.094 26.604 161.094 25.38V22.968L161.85 23.832C161.442 24.624 160.926 25.284 160.302 25.812C159.702 26.316 158.982 26.7 158.142 26.964C157.302 27.228 156.342 27.36 155.262 27.36C153.99 27.36 152.874 27.072 151.914 26.496C150.978 25.896 150.246 25.08 149.718 24.048C149.19 22.992 148.926 21.792 148.926 20.448V9.936C148.926 9.312 149.13 8.796 149.538 8.388C149.946 7.956 150.462 7.74 151.086 7.74C151.71 7.74 152.226 7.956 152.634 8.388C153.042 8.796 153.246 9.312 153.246 9.936V19.152C153.246 20.712 153.582 21.816 154.254 22.464C154.95 23.088 155.91 23.4 157.134 23.4C157.974 23.4 158.682 23.244 159.258 22.932C159.834 22.596 160.278 22.116 160.59 21.492C160.902 20.844 161.058 20.064 161.058 19.152V9.936C161.058 9.312 161.262 8.796 161.67 8.388C162.078 7.956 162.594 7.74 163.218 7.74Z" fill="black"/>
</svg>
